
<svg id="svg" version="1.1" xmlns="http://www.w3.org/2000/svg" xmlns:xlink="http://www.w3.org/1999/xlink" width="400" height="218.75" viewBox="0, 0, 400,218.75"><g id="svgg"><path id="path0" d="M2.079 0.405 C 2.440 0.624,3.966 1.496,5.470 2.342 C 6.975 3.189,10.569 5.214,13.457 6.841 C 16.346 8.469,19.103 10.020,19.584 10.287 C 20.066 10.554,22.577 11.977,25.164 13.450 C 27.752 14.922,30.312 16.374,30.853 16.676 C 35.154 19.077,38.153 20.768,42.013 22.972 C 44.480 24.380,47.090 25.858,47.812 26.256 C 48.534 26.653,51.143 28.127,53.611 29.531 C 56.078 30.935,59.992 33.148,62.309 34.448 C 64.625 35.748,66.521 36.899,66.521 37.005 C 66.521 37.114,63.300 37.199,59.188 37.199 L 51.856 37.199 47.536 34.762 C 45.160 33.421,41.100 31.121,38.512 29.652 C 35.925 28.182,33.217 26.657,32.495 26.262 C 31.772 25.868,30.295 25.034,29.212 24.409 C 28.129 23.784,25.864 22.500,24.179 21.556 C 22.495 20.612,20.131 19.276,18.928 18.588 C 17.724 17.901,16.247 17.064,15.646 16.730 C 15.044 16.396,12.779 15.119,10.613 13.892 C 8.446 12.665,5.985 11.284,5.142 10.824 C 4.300 10.364,2.888 9.562,2.006 9.042 C -0.088 7.808,0.000 7.749,-0.000 10.367 L -0.000 12.639 3.775 14.777 C 5.851 15.953,9.420 17.974,11.707 19.267 C 13.993 20.561,19.311 23.577,23.523 25.971 C 27.735 28.364,33.714 31.746,36.808 33.487 C 39.903 35.228,42.439 36.775,42.443 36.926 C 42.449 37.143,38.064 37.199,21.225 37.199 L 0.000 37.199 0.000 41.138 L 0.000 45.078 45.241 45.022 L 90.481 44.967 90.537 22.484 L 90.593 -0.000 87.091 -0.000 L 83.589 0.000 83.589 16.056 C 83.589 31.590,83.538 33.479,83.120 33.479 C 82.956 33.479,78.296 30.915,71.991 27.355 C 71.209 26.913,68.403 25.342,65.755 23.864 C 63.107 22.385,59.956 20.608,58.753 19.915 C 56.533 18.637,37.147 7.684,34.136 6.007 C 33.233 5.504,30.489 3.947,28.038 2.546 L 23.582 0.000 12.502 0.004 C 1.698 0.007,1.439 0.017,2.079 0.405 M110.941 22.538 L 110.941 45.077 157.112 45.077 L 203.282 45.077 203.282 41.138 L 203.282 37.199 180.916 37.199 C 162.219 37.199,158.602 37.151,158.870 36.906 C 159.046 36.745,161.504 35.301,164.333 33.698 C 180.616 24.467,185.747 21.556,186.433 21.159 C 186.854 20.915,187.987 20.278,188.950 19.742 C 190.565 18.843,196.493 15.488,201.204 12.805 L 203.173 11.683 203.231 5.842 L 203.289 0.000 202.406 0.000 C 201.852 0.000,201.218 0.193,200.706 0.518 C 200.258 0.803,198.734 1.690,197.319 2.488 C 194.068 4.322,191.403 5.832,183.479 10.329 C 179.989 12.310,174.032 15.687,170.241 17.834 C 160.832 23.162,153.498 27.321,146.608 31.234 C 143.419 33.046,140.317 34.797,139.716 35.125 C 139.114 35.454,138.067 36.055,137.389 36.461 L 136.157 37.199 128.678 37.199 C 124.200 37.199,121.249 37.119,121.324 36.998 C 121.440 36.810,123.437 35.615,125.930 34.241 C 126.532 33.910,128.009 33.075,129.212 32.386 C 131.807 30.901,135.992 28.536,137.527 27.687 C 138.129 27.354,139.508 26.565,140.591 25.933 C 141.674 25.300,143.151 24.459,143.873 24.064 C 144.595 23.668,147.254 22.168,149.781 20.730 C 156.500 16.908,161.040 14.334,162.035 13.782 C 162.516 13.514,163.895 12.728,165.098 12.035 C 166.302 11.341,167.779 10.502,168.381 10.170 C 170.448 9.029,179.543 3.874,182.809 1.993 L 186.078 0.109 182.020 0.050 L 177.962 -0.009 173.390 2.591 C 169.637 4.726,161.434 9.371,156.127 12.366 C 154.961 13.023,151.028 15.234,144.967 18.638 C 142.921 19.788,140.853 20.952,140.372 21.226 C 139.891 21.500,137.970 22.582,136.105 23.630 C 131.196 26.390,126.011 29.316,121.901 31.645 C 119.926 32.764,118.227 33.629,118.126 33.567 C 118.026 33.504,117.943 25.926,117.943 16.727 L 117.943 0.000 114.442 0.000 L 110.941 0.000 110.941 22.538 M0.000 72.101 L 0.000 75.930 18.346 75.930 C 35.880 75.930,42.670 76.049,42.670 76.358 C 42.670 76.436,41.906 76.928,40.974 77.452 C 40.041 77.975,37.801 79.240,35.996 80.263 C 34.190 81.285,31.630 82.732,30.306 83.479 C 28.135 84.704,23.571 87.284,14.442 92.448 C 3.766 98.486,3.738 98.502,1.699 99.619 L 0.006 100.547 0.003 106.847 L 0.000 113.148 0.930 112.616 C 2.398 111.778,12.584 106.004,17.396 103.283 C 19.803 101.922,23.889 99.607,26.477 98.139 C 29.065 96.672,31.625 95.226,32.166 94.926 C 32.708 94.626,34.628 93.540,36.433 92.512 C 41.788 89.463,49.263 85.231,50.438 84.582 C 51.039 84.250,52.516 83.410,53.720 82.716 C 54.923 82.022,57.434 80.594,59.300 79.543 C 61.165 78.491,63.349 77.248,64.152 76.780 L 65.613 75.930 72.577 75.933 C 79.372 75.937,80.666 76.053,79.869 76.588 C 79.688 76.709,78.457 77.418,77.133 78.163 C 75.810 78.907,73.446 80.250,71.882 81.147 C 70.317 82.043,68.594 83.021,68.053 83.319 C 67.511 83.617,66.772 84.034,66.411 84.245 C 66.050 84.456,65.263 84.898,64.661 85.227 C 64.059 85.557,62.237 86.588,60.613 87.520 C 58.988 88.452,56.379 89.932,54.814 90.808 C 53.249 91.684,50.985 92.965,49.781 93.654 C 48.578 94.343,47.150 95.151,46.608 95.450 C 46.067 95.748,43.457 97.223,40.810 98.727 C 38.162 100.231,35.553 101.709,35.011 102.011 C 33.352 102.938,23.917 108.274,20.788 110.057 C 19.163 110.982,16.810 112.316,15.560 113.022 C 12.788 114.586,12.836 114.624,17.587 114.645 L 21.060 114.661 22.948 113.583 C 24.671 112.599,34.854 106.836,37.199 105.517 C 41.778 102.942,58.970 93.230,61.488 91.796 C 64.664 89.987,75.261 84.052,80.192 81.320 C 81.633 80.522,82.922 79.869,83.057 79.869 C 83.430 79.869,83.588 86.111,83.592 100.965 C 83.594 108.197,83.675 114.240,83.773 114.393 C 83.907 114.604,84.750 114.658,87.216 114.612 L 90.481 114.551 90.537 91.411 L 90.593 68.271 45.296 68.271 L 0.000 68.271 0.000 72.101 M110.941 91.466 L 110.941 114.661 114.309 114.661 C 116.807 114.661,117.702 114.590,117.773 114.387 C 117.825 114.237,117.893 106.433,117.923 97.046 C 117.953 87.659,118.047 79.906,118.132 79.817 C 118.217 79.729,120.597 80.944,123.421 82.519 C 129.071 85.669,129.103 85.687,138.184 90.811 C 141.674 92.780,145.170 94.748,145.952 95.185 C 149.305 97.056,171.878 109.777,177.061 112.716 L 180.489 114.661 191.352 114.661 C 197.356 114.661,202.162 114.577,202.098 114.473 C 201.981 114.283,200.520 113.432,195.295 110.506 C 193.731 109.630,191.368 108.298,190.044 107.545 C 188.720 106.792,183.747 103.987,178.993 101.310 C 174.240 98.634,169.267 95.829,167.943 95.079 C 166.619 94.328,164.256 92.996,162.691 92.119 C 161.127 91.241,158.862 89.961,157.659 89.274 C 153.456 86.873,150.212 85.034,149.344 84.559 C 148.130 83.896,139.975 79.223,137.254 77.632 C 136.020 76.911,135.011 76.233,135.011 76.125 C 135.011 76.015,138.149 75.930,142.248 75.930 L 149.486 75.930 150.946 76.775 C 152.864 77.883,156.240 79.793,162.801 83.480 C 165.749 85.136,169.491 87.249,171.116 88.174 C 172.741 89.100,175.104 90.430,176.368 91.131 C 177.631 91.832,179.032 92.637,179.481 92.920 C 179.930 93.204,180.350 93.435,180.415 93.435 C 180.481 93.435,180.901 93.664,181.350 93.944 C 181.799 94.224,182.905 94.853,183.807 95.341 C 184.710 95.830,186.335 96.744,187.418 97.373 C 188.501 98.002,190.717 99.261,192.341 100.170 C 196.452 102.470,196.259 102.362,199.740 104.344 C 203.584 106.533,203.282 106.573,203.282 103.872 L 203.282 101.617 201.696 100.724 C 200.823 100.233,198.608 98.982,196.774 97.944 C 193.414 96.042,187.416 92.650,185.996 91.848 C 185.574 91.610,182.719 89.984,179.650 88.234 C 176.581 86.485,173.627 84.808,173.085 84.508 C 172.544 84.209,171.214 83.451,170.131 82.825 C 169.048 82.199,166.020 80.478,163.403 79.000 C 160.785 77.522,158.643 76.227,158.643 76.122 C 158.643 76.013,168.343 75.930,180.963 75.930 L 203.282 75.930 203.282 72.101 L 203.282 68.271 157.112 68.271 L 110.941 68.271 110.941 91.466 M256.359 80.252 C 256.153 80.944,255.899 81.707,255.795 81.947 C 255.691 82.188,255.539 82.730,255.458 83.151 C 255.377 83.572,255.234 84.015,255.141 84.136 C 255.048 84.256,254.847 84.921,254.694 85.613 L 254.416 86.871 250.403 86.871 C 246.249 86.871,245.945 86.947,246.991 87.723 C 248.239 88.648,248.505 88.852,249.937 89.981 C 250.745 90.617,251.656 91.315,251.961 91.531 C 252.267 91.747,252.516 92.119,252.516 92.356 C 252.516 92.888,251.593 96.129,251.398 96.280 C 251.321 96.340,251.186 96.816,251.099 97.337 C 251.011 97.859,250.803 98.548,250.636 98.869 C 249.888 100.302,250.240 100.547,251.501 99.470 C 252.145 98.919,252.747 98.468,252.837 98.468 C 252.928 98.468,253.213 98.275,253.470 98.040 C 253.906 97.641,255.085 96.690,256.263 95.788 C 256.897 95.302,256.933 95.305,257.616 95.897 C 257.929 96.168,258.829 96.882,259.617 97.484 C 260.406 98.085,261.516 98.947,262.086 99.398 C 262.655 99.850,263.197 100.219,263.289 100.219 C 263.520 100.219,263.502 99.616,263.267 99.470 C 263.162 99.406,263.013 99.031,262.936 98.637 C 262.756 97.713,261.953 94.986,261.695 94.420 C 260.911 92.699,261.303 91.068,262.509 91.035 C 262.650 91.032,262.797 90.955,262.837 90.864 C 262.967 90.572,265.170 88.840,265.411 88.840 C 265.540 88.840,265.646 88.755,265.646 88.651 C 265.646 88.546,266.039 88.200,266.521 87.882 C 267.937 86.944,267.710 86.871,263.390 86.871 L 259.384 86.871 258.915 85.284 C 258.657 84.412,258.378 83.403,258.295 83.042 C 258.213 82.681,258.072 82.287,257.981 82.166 C 257.891 82.046,257.749 81.530,257.664 81.019 C 257.580 80.508,257.421 80.034,257.311 79.966 C 257.201 79.898,257.112 79.652,257.112 79.418 C 257.112 78.588,256.728 79.012,256.359 80.252 M299.032 90.345 C 298.893 90.569,297.499 94.631,297.069 96.061 C 296.366 98.406,294.745 103.498,294.320 104.705 C 293.806 106.161,293.202 108.053,292.053 111.805 C 291.039 115.116,291.177 115.051,287.909 113.767 C 286.436 113.187,284.245 112.355,283.042 111.918 C 281.838 111.480,279.770 110.694,278.446 110.169 C 277.123 109.645,274.809 108.761,273.304 108.205 C 269.176 106.679,268.450 106.404,267.603 106.047 C 266.778 105.699,266.155 105.867,266.353 106.383 C 266.417 106.548,269.352 111.014,272.875 116.307 C 280.410 127.625,280.410 127.625,279.905 128.206 C 279.518 128.650,276.740 130.377,273.304 132.308 C 272.161 132.950,271.078 133.573,270.897 133.692 C 270.717 133.811,269.584 134.491,268.381 135.205 C 267.177 135.918,265.651 136.838,264.989 137.250 C 262.545 138.769,259.565 140.481,259.364 140.481 C 259.250 140.481,258.925 140.729,258.641 141.031 C 257.761 141.968,257.695 141.951,264.770 142.563 C 266.997 142.756,269.902 142.994,271.225 143.093 C 285.607 144.167,284.303 143.724,283.824 147.374 C 283.713 148.217,283.508 149.940,283.369 151.204 C 283.229 152.467,283.032 153.846,282.930 154.267 C 282.828 154.688,282.583 156.461,282.386 158.206 C 282.188 159.951,281.937 161.920,281.829 162.582 C 280.962 167.867,280.785 170.313,281.277 170.202 C 281.450 170.163,284.074 167.522,287.109 164.333 C 294.961 156.083,299.128 151.860,299.419 151.859 C 299.558 151.858,300.500 152.720,301.511 153.773 C 303.835 156.194,311.760 164.491,315.043 167.940 C 318.085 171.137,318.040 171.177,317.360 165.864 C 317.076 163.638,316.745 160.846,316.627 159.661 C 316.508 158.476,316.344 157.398,316.263 157.267 C 316.181 157.135,316.041 156.234,315.952 155.264 C 315.789 153.504,315.597 152.181,314.964 148.468 C 314.466 145.545,314.591 144.382,315.427 144.170 C 316.033 144.015,321.127 143.562,327.462 143.098 C 330.118 142.904,337.267 142.291,339.278 142.085 C 341.233 141.885,341.037 141.449,338.293 139.903 C 337.511 139.462,334.212 137.522,330.963 135.592 C 327.713 133.662,324.759 131.936,324.398 131.756 C 324.037 131.576,323.275 131.103,322.705 130.704 C 322.134 130.305,321.610 129.978,321.539 129.978 C 321.261 129.978,318.381 128.005,318.381 127.814 C 318.381 127.638,323.429 119.900,326.035 116.083 C 330.199 109.983,332.643 106.078,332.430 105.866 C 332.263 105.698,331.546 105.886,329.938 106.519 C 328.696 107.007,326.548 107.820,325.164 108.325 C 323.780 108.830,321.417 109.722,319.912 110.306 C 306.753 115.418,307.734 115.228,307.008 112.801 C 306.864 112.319,306.174 110.153,305.474 107.987 C 304.314 104.396,302.927 100.018,302.423 98.359 C 302.314 97.998,301.879 96.718,301.456 95.514 C 301.034 94.311,300.475 92.612,300.214 91.740 C 299.777 90.281,299.369 89.800,299.032 90.345 " stroke="none" fill="#ffffff" fill-rule="evenodd"></path><path id="path1" d="M23.972 0.185 C 24.086 0.287,26.493 1.680,29.322 3.280 C 32.150 4.881,35.892 6.998,37.637 7.985 C 39.382 8.973,44.354 11.778,48.687 14.219 C 53.020 16.660,57.549 19.224,58.753 19.916 C 59.956 20.608,63.107 22.385,65.755 23.864 C 68.403 25.342,71.209 26.913,71.991 27.355 C 78.296 30.915,82.956 33.479,83.120 33.479 C 83.538 33.479,83.589 31.590,83.589 16.056 L 83.589 0.000 53.676 0.000 C 37.224 0.000,23.857 0.083,23.972 0.185 M117.943 16.727 C 117.943 25.926,118.026 33.504,118.126 33.567 C 118.227 33.629,119.926 32.764,121.901 31.645 C 126.011 29.316,131.196 26.390,136.105 23.630 C 137.970 22.582,139.891 21.500,140.372 21.226 C 140.853 20.952,142.921 19.788,144.967 18.638 C 155.429 12.763,154.922 13.048,163.020 8.470 C 166.209 6.667,170.739 4.107,173.085 2.781 C 175.432 1.455,177.446 0.287,177.560 0.185 C 177.675 0.083,164.307 0.000,147.856 0.000 L 117.943 0.000 117.943 16.727 M203.231 5.842 L 203.173 11.683 201.204 12.805 C 196.493 15.488,190.565 18.843,188.950 19.742 C 187.987 20.278,186.854 20.915,186.433 21.159 C 185.747 21.556,180.616 24.467,164.333 33.698 C 161.504 35.301,159.046 36.745,158.870 36.906 C 158.602 37.151,162.219 37.199,180.916 37.199 L 203.282 37.199 203.282 56.565 L 203.282 75.930 180.963 75.930 C 168.343 75.930,158.643 76.013,158.643 76.122 C 158.643 76.227,160.785 77.522,163.403 79.000 C 166.020 80.478,169.048 82.199,170.131 82.825 C 171.214 83.451,172.544 84.209,173.085 84.508 C 173.627 84.808,176.581 86.485,179.650 88.234 C 182.719 89.984,185.574 91.610,185.996 91.848 C 187.416 92.650,193.414 96.042,196.774 97.944 C 198.608 98.982,200.823 100.233,201.696 100.724 L 203.282 101.617 203.282 108.162 C 203.282 113.894,203.241 114.691,202.954 114.575 C 202.774 114.502,202.462 114.376,202.262 114.295 C 202.015 114.196,201.949 114.232,202.056 114.405 C 202.176 114.599,199.589 114.661,191.352 114.661 L 180.489 114.661 177.061 112.716 C 171.878 109.777,149.305 97.056,145.952 95.185 C 145.170 94.748,141.674 92.780,138.184 90.811 C 129.103 85.687,129.071 85.669,123.421 82.519 C 120.597 80.944,118.217 79.729,118.132 79.817 C 118.047 79.906,117.953 87.659,117.923 97.046 C 117.893 106.433,117.825 114.237,117.773 114.387 C 117.611 114.852,83.900 114.780,83.721 114.315 C 83.648 114.124,83.589 108.084,83.589 100.892 C 83.589 86.128,83.430 79.869,83.057 79.869 C 82.922 79.869,81.633 80.522,80.192 81.320 C 75.261 84.052,64.664 89.987,61.488 91.796 C 58.970 93.230,41.778 102.942,37.199 105.517 C 34.807 106.862,24.658 112.607,22.916 113.601 L 20.996 114.698 10.498 114.589 L 0.000 114.479 0.000 166.649 L 0.000 218.818 200.000 218.818 L 400.000 218.818 400.000 109.409 L 400.000 0.000 301.645 0.000 L 203.289 0.000 203.231 5.842 M0.000 24.924 L 0.000 37.199 21.225 37.199 C 38.064 37.199,42.449 37.143,42.443 36.926 C 42.439 36.775,39.903 35.228,36.808 33.488 C 33.714 31.747,28.523 28.808,25.274 26.955 C 22.024 25.102,18.184 22.923,16.740 22.111 C 15.295 21.300,11.455 19.131,8.206 17.292 C 4.956 15.453,1.781 13.656,1.149 13.299 L 0.000 12.650 0.000 24.924 M0.000 88.184 C 0.000 94.923,0.074 100.437,0.164 100.436 C 0.254 100.435,1.116 99.983,2.079 99.431 C 3.042 98.879,4.371 98.127,5.033 97.759 C 5.695 97.392,7.319 96.478,8.643 95.728 C 13.720 92.854,27.414 85.111,30.306 83.479 C 31.630 82.732,34.190 81.285,35.996 80.263 C 37.801 79.240,40.041 77.975,40.974 77.452 C 41.906 76.928,42.670 76.436,42.670 76.358 C 42.670 76.049,35.880 75.930,18.346 75.930 L 0.000 75.930 0.000 88.184 M257.112 79.418 C 257.112 79.652,257.201 79.898,257.311 79.966 C 257.421 80.034,257.580 80.508,257.664 81.019 C 257.749 81.530,257.891 82.046,257.981 82.166 C 258.072 82.287,258.213 82.681,258.295 83.042 C 258.378 83.403,258.657 84.412,258.915 85.284 L 259.384 86.871 263.390 86.871 C 267.710 86.871,267.937 86.944,266.521 87.882 C 266.039 88.200,265.646 88.546,265.646 88.651 C 265.646 88.755,265.540 88.840,265.411 88.840 C 265.170 88.840,262.967 90.572,262.837 90.864 C 262.797 90.955,262.650 91.032,262.509 91.035 C 261.303 91.068,260.911 92.699,261.695 94.420 C 261.953 94.986,262.756 97.713,262.936 98.637 C 263.013 99.031,263.162 99.406,263.267 99.470 C 263.502 99.616,263.520 100.219,263.289 100.219 C 263.197 100.219,262.655 99.850,262.086 99.398 C 261.516 98.947,260.406 98.085,259.617 97.484 C 258.829 96.882,257.929 96.168,257.616 95.897 C 256.933 95.305,256.897 95.302,256.263 95.788 C 255.085 96.690,253.906 97.641,253.470 98.040 C 253.213 98.275,252.928 98.468,252.837 98.468 C 252.747 98.468,252.145 98.919,251.501 99.470 C 250.240 100.547,249.888 100.302,250.636 98.869 C 250.803 98.548,251.011 97.859,251.099 97.337 C 251.186 96.816,251.321 96.340,251.398 96.280 C 251.593 96.129,252.516 92.888,252.516 92.356 C 252.516 92.119,252.267 91.747,251.961 91.531 C 251.656 91.315,250.745 90.617,249.937 89.981 C 248.505 88.852,248.239 88.648,246.991 87.723 C 245.945 86.947,246.249 86.871,250.403 86.871 L 254.416 86.871 254.694 85.613 C 254.847 84.921,255.048 84.256,255.141 84.136 C 255.234 84.015,255.377 83.572,255.458 83.151 C 255.539 82.730,255.691 82.188,255.795 81.947 C 255.899 81.707,256.153 80.944,256.359 80.252 C 256.728 79.012,257.112 78.588,257.112 79.418 M300.214 91.740 C 300.475 92.612,301.034 94.311,301.456 95.514 C 301.879 96.718,302.314 97.998,302.423 98.359 C 302.927 100.018,304.314 104.396,305.474 107.987 C 306.174 110.153,306.864 112.319,307.008 112.801 C 307.734 115.228,306.753 115.418,319.912 110.306 C 321.417 109.722,323.780 108.830,325.164 108.325 C 326.548 107.820,328.696 107.007,329.938 106.519 C 331.546 105.886,332.263 105.698,332.430 105.866 C 332.643 106.078,330.199 109.983,326.035 116.083 C 323.429 119.900,318.381 127.638,318.381 127.814 C 318.381 128.005,321.261 129.978,321.539 129.978 C 321.610 129.978,322.134 130.305,322.705 130.704 C 323.275 131.103,324.037 131.576,324.398 131.756 C 324.759 131.936,327.713 133.662,330.963 135.592 C 334.212 137.522,337.511 139.462,338.293 139.903 C 341.037 141.449,341.233 141.885,339.278 142.085 C 337.267 142.291,330.118 142.904,327.462 143.098 C 321.127 143.562,316.033 144.015,315.427 144.170 C 314.591 144.382,314.466 145.545,314.964 148.468 C 315.597 152.181,315.789 153.504,315.952 155.264 C 316.041 156.234,316.181 157.135,316.263 157.267 C 316.344 157.398,316.508 158.476,316.627 159.661 C 316.745 160.846,317.076 163.638,317.360 165.864 C 318.040 171.177,318.085 171.137,315.043 167.940 C 311.760 164.491,303.835 156.194,301.511 153.773 C 300.500 152.720,299.558 151.858,299.419 151.859 C 299.128 151.860,294.961 156.083,287.109 164.333 C 284.074 167.522,281.450 170.163,281.277 170.202 C 280.785 170.313,280.962 167.867,281.829 162.582 C 281.937 161.920,282.188 159.951,282.386 158.206 C 282.583 156.461,282.828 154.688,282.930 154.267 C 283.032 153.846,283.229 152.467,283.369 151.204 C 283.508 149.940,283.713 148.217,283.824 147.374 C 284.303 143.724,285.607 144.167,271.225 143.093 C 269.902 142.994,266.997 142.756,264.770 142.563 C 257.695 141.951,257.761 141.968,258.641 141.031 C 258.925 140.729,259.250 140.481,259.364 140.481 C 259.565 140.481,262.545 138.769,264.989 137.250 C 265.651 136.838,267.177 135.918,268.381 135.205 C 269.584 134.491,270.717 133.811,270.897 133.692 C 271.078 133.573,272.161 132.950,273.304 132.308 C 276.740 130.377,279.518 128.650,279.905 128.206 C 280.410 127.625,280.410 127.625,272.875 116.307 C 269.352 111.014,266.417 106.548,266.353 106.383 C 266.155 105.867,266.778 105.699,267.603 106.047 C 268.450 106.404,269.176 106.679,273.304 108.205 C 274.809 108.761,277.123 109.645,278.446 110.169 C 279.770 110.694,281.838 111.480,283.042 111.918 C 284.245 112.355,286.436 113.187,287.909 113.767 C 291.177 115.051,291.039 115.116,292.053 111.805 C 293.202 108.053,293.806 106.161,294.320 104.705 C 294.745 103.498,296.366 98.406,297.069 96.061 C 297.499 94.631,298.893 90.569,299.032 90.345 C 299.369 89.800,299.777 90.281,300.214 91.740 " stroke="none" fill="#0c1474" fill-rule="evenodd"></path><path id="path2" d="M0.000 4.048 C 0.000 6.358,0.086 8.096,0.201 8.096 C 0.311 8.096,1.124 8.522,2.006 9.042 C 2.888 9.562,4.300 10.364,5.142 10.824 C 5.985 11.284,8.446 12.665,10.613 13.892 C 12.779 15.119,15.044 16.396,15.646 16.730 C 16.247 17.064,17.724 17.901,18.928 18.588 C 20.131 19.276,22.495 20.612,24.179 21.556 C 25.864 22.500,28.129 23.784,29.212 24.409 C 30.295 25.034,31.772 25.868,32.495 26.262 C 33.217 26.657,35.925 28.182,38.512 29.652 C 41.100 31.121,45.160 33.421,47.536 34.762 L 51.856 37.199 59.188 37.199 C 63.300 37.199,66.521 37.114,66.521 37.005 C 66.521 36.899,64.625 35.748,62.309 34.448 C 59.992 33.148,56.078 30.935,53.611 29.531 C 51.143 28.127,48.534 26.653,47.812 26.256 C 47.090 25.858,44.480 24.380,42.013 22.972 C 38.153 20.768,35.154 19.077,30.853 16.676 C 30.312 16.374,27.752 14.922,25.164 13.449 C 22.577 11.977,19.967 10.499,19.365 10.165 C 18.764 9.831,16.499 8.554,14.333 7.327 C 10.298 5.042,6.020 2.633,3.006 0.949 C 2.060 0.421,1.017 0.000,0.653 0.000 L 0.000 0.000 0.000 4.048 M90.537 22.484 L 90.481 44.967 45.241 45.022 L 0.000 45.078 0.000 56.674 L 0.000 68.271 45.297 68.271 L 90.595 68.271 90.538 91.466 L 90.481 114.661 100.711 114.661 L 110.941 114.661 110.941 91.466 L 110.941 68.271 157.112 68.271 L 203.282 68.271 203.282 56.674 L 203.282 45.077 157.112 45.077 L 110.941 45.077 110.941 22.538 L 110.941 0.000 100.767 0.000 L 90.593 0.000 90.537 22.484 M182.823 1.957 C 179.904 3.666,171.311 8.553,168.381 10.170 C 167.779 10.502,166.302 11.341,165.098 12.035 C 163.895 12.728,162.516 13.514,162.035 13.782 C 161.040 14.334,156.500 16.908,149.781 20.730 C 147.254 22.168,144.595 23.668,143.873 24.064 C 143.151 24.459,141.674 25.300,140.591 25.933 C 139.508 26.565,138.129 27.354,137.527 27.687 C 135.992 28.536,131.807 30.901,129.212 32.386 C 128.009 33.075,126.532 33.910,125.930 34.241 C 123.437 35.615,121.440 36.810,121.324 36.998 C 121.249 37.119,124.200 37.199,128.678 37.199 L 136.157 37.199 137.389 36.461 C 138.067 36.055,139.114 35.454,139.716 35.125 C 140.317 34.797,143.419 33.046,146.608 31.234 C 153.498 27.321,160.832 23.162,170.241 17.834 C 174.032 15.687,179.989 12.310,183.479 10.329 C 190.178 6.528,192.661 5.119,197.812 2.198 C 199.557 1.208,201.078 0.309,201.193 0.199 C 201.318 0.079,198.353 0.007,193.753 0.017 L 186.105 0.034 182.823 1.957 M64.333 76.668 C 63.671 77.067,61.406 78.362,59.300 79.544 C 57.194 80.727,54.683 82.153,53.720 82.714 C 52.757 83.275,51.379 84.061,50.656 84.460 C 49.291 85.215,42.112 89.279,36.433 92.512 C 34.628 93.540,32.708 94.626,32.166 94.926 C 31.625 95.226,29.065 96.672,26.477 98.140 C 13.833 105.315,6.166 109.659,3.282 111.282 C 0.380 112.916,0.104 113.125,0.043 113.730 L -0.024 114.392 5.378 114.554 C 12.381 114.764,12.609 114.737,14.894 113.410 C 15.909 112.821,18.414 111.393,20.460 110.237 C 22.505 109.081,26.395 106.881,29.103 105.348 C 31.811 103.815,34.469 102.313,35.011 102.011 C 35.553 101.709,38.162 100.231,40.810 98.727 C 43.457 97.223,46.067 95.748,46.608 95.450 C 47.150 95.151,48.578 94.343,49.781 93.654 C 50.985 92.965,53.249 91.684,54.814 90.808 C 56.379 89.932,58.988 88.452,60.613 87.520 C 62.237 86.588,64.059 85.557,64.661 85.227 C 65.263 84.898,66.050 84.456,66.411 84.245 C 66.772 84.034,67.511 83.617,68.053 83.319 C 68.594 83.021,70.317 82.043,71.882 81.147 C 73.446 80.250,75.810 78.907,77.133 78.163 C 78.457 77.418,79.688 76.709,79.869 76.588 C 80.668 76.051,79.373 75.937,72.538 75.939 L 65.536 75.942 64.333 76.668 M135.011 76.125 C 135.011 76.233,136.020 76.911,137.254 77.632 C 139.975 79.223,148.130 83.896,149.344 84.559 C 150.212 85.034,153.456 86.873,157.659 89.274 C 158.862 89.961,161.127 91.241,162.691 92.119 C 164.256 92.996,166.619 94.328,167.943 95.079 C 169.267 95.829,174.240 98.634,178.993 101.310 C 183.747 103.987,188.720 106.794,190.044 107.549 C 191.368 108.304,194.075 109.820,196.061 110.917 C 198.047 112.014,199.819 113.013,200.000 113.136 C 200.390 113.403,203.004 114.661,203.168 114.661 C 203.231 114.661,203.282 112.741,203.282 110.394 C 203.282 107.884,203.198 106.127,203.077 106.127 C 202.964 106.127,201.463 105.324,199.740 104.344 C 196.259 102.362,196.452 102.470,192.341 100.170 C 190.717 99.261,188.501 98.002,187.418 97.373 C 186.335 96.744,184.710 95.830,183.807 95.341 C 182.905 94.853,181.799 94.224,181.350 93.944 C 180.901 93.664,180.481 93.435,180.415 93.435 C 180.350 93.435,179.930 93.204,179.481 92.920 C 179.032 92.637,177.631 91.832,176.368 91.131 C 175.104 90.430,172.741 89.100,171.116 88.174 C 169.491 87.249,165.749 85.136,162.801 83.480 C 156.240 79.793,152.864 77.883,150.946 76.775 L 149.486 75.930 142.248 75.930 C 138.149 75.930,135.011 76.015,135.011 76.125 " stroke="none" fill="#e20405" fill-rule="evenodd"></path></g></svg>