<svg role="img" viewBox="0 0 24 24" fill="none" xmlns="http://www.w3.org/2000/svg">
  <title>Settings</title>
  <circle cx="12" cy="12" r="3" stroke="black" stroke-width="2" fill="none"/>
  <path d="M19.4 15a1.65 1.65 0 0 0 .33 1.82l.06.06a2 2 0 0 1-2.83 2.83l-.06-.06a1.65 1.65 0 0 0-1.82-.33 1.65 1.65 0 0 0-1 1.51V21a2 2 0 0 1-4 0v-.09a1.65 1.65 0 0 0-1-1.51 1.65 1.65 0 0 0-1.82.33l-.06.06a2 2 0 0 1-2.83-2.83l.06-.06a1.65 1.65 0 0 0 .33-1.82A1.65 1.65 0 0 0 3 12.52V12a2 2 0 0 1 0-4h.09a1.65 1.65 0 0 0 1.51-1 1.65 1.65 0 0 0-.33-1.82l-.06-.06a2 2 0 0 1 2.83-2.83l.06.06a1.65 1.65 0 0 0 1.82.33c.29-.09.55-.23.78-.42a1.65 1.65 0 0 0 1-1.51V3a2 2 0 0 1 4 0v.09c0 .56.22 1.09.61 1.49.23.19.49.33.78.42a1.65 1.65 0 0 0 1.82-.33l.06-.06a2 2 0 0 1 2.83 2.83l-.06.06a1.65 1.65 0 0 0-.33 1.82c.09.29.23.55.42.78a1.65 1.65 0 0 0 1.51 1H21a2 2 0 0 1 0 4v.52a1.65 1.65 0 0 0-.6 1.36z" stroke="black" stroke-width="2" fill="none"/>
</svg>
