<?xml version="1.0" encoding="UTF-8" standalone="no"?>
<svg xmlns:svg="http://www.w3.org/2000/svg" xmlns="http://www.w3.org/2000/svg" xmlns:xlink="http://www.w3.org/1999/xlink" height="1000" width="1000">
<!-- made with pythonshp (GPL): github.com/sanjayrao77/pythonshp , underlying data may come from naturalearthdata.com -->
<!-- 
COPYRIGHT: THIS SVG FILE IS RELEASED INTO THE PUBLIC DOMAIN
 -->
<!-- 
vars : {
	'cmdline' : 'pythonshp.py publicdomain wiki1 unitedstatesminoroutlyingislands locatormap'
	'title' : 'United States Minor Outlying Islands locator'
	'version' : '1.0.5'
}
 -->
<defs>
	<radialGradient id="watergradient" cx="500" cy="500" r="500" fx="500" fy="500" gradientUnits="userSpaceOnUse">
		<stop offset="0%" stop-color="#70add3"/>
		<stop offset="11%" stop-color="#6eaad0"/>
		<stop offset="22%" stop-color="#6ca7cc"/>
		<stop offset="31%" stop-color="#6ba5c9"/>
		<stop offset="41%" stop-color="#69a2c6"/>
		<stop offset="51%" stop-color="#679fc2"/>
		<stop offset="59%" stop-color="#669dbf"/>
		<stop offset="67%" stop-color="#649abc"/>
		<stop offset="75%" stop-color="#6297b9"/>
		<stop offset="81%" stop-color="#6095b6"/>
		<stop offset="87%" stop-color="#5f92b2"/>
		<stop offset="92%" stop-color="#5d8faf"/>
		<stop offset="95%" stop-color="#5b8dac"/>
		<stop offset="98%" stop-color="#598aa8"/>
		<stop offset="100%" stop-color="#5685a2"/>
	</radialGradient>
	<radialGradient id="landgradient" cx="500" cy="500" r="500" fx="500" fy="500" gradientUnits="userSpaceOnUse">
		<stop offset="0%" stop-color="#dddddd"/>
		<stop offset="11%" stop-color="#d7d7d7"/>
		<stop offset="22%" stop-color="#d1d1d1"/>
		<stop offset="31%" stop-color="#cccccc"/>
		<stop offset="41%" stop-color="#c6c6c6"/>
		<stop offset="51%" stop-color="#c0c0c0"/>
		<stop offset="59%" stop-color="#bbbbbb"/>
		<stop offset="67%" stop-color="#b5b5b5"/>
		<stop offset="75%" stop-color="#afafaf"/>
		<stop offset="81%" stop-color="#aaaaaa"/>
		<stop offset="87%" stop-color="#a4a4a4"/>
		<stop offset="92%" stop-color="#9e9e9e"/>
		<stop offset="95%" stop-color="#999999"/>
		<stop offset="98%" stop-color="#939393"/>
		<stop offset="100%" stop-color="#888888"/>
	</radialGradient>
	<radialGradient id="bordergradient" cx="500" cy="500" r="500" fx="500" fy="500" gradientUnits="userSpaceOnUse">
		<stop offset="0%" stop-color="#444444"/>
		<stop offset="11%" stop-color="#3f3f3f"/>
		<stop offset="22%" stop-color="#3a3a3a"/>
		<stop offset="31%" stop-color="#363636"/>
		<stop offset="41%" stop-color="#323232"/>
		<stop offset="51%" stop-color="#2d2d2d"/>
		<stop offset="59%" stop-color="#292929"/>
		<stop offset="67%" stop-color="#242424"/>
		<stop offset="75%" stop-color="#1f1f1f"/>
		<stop offset="81%" stop-color="#1b1b1b"/>
		<stop offset="87%" stop-color="#161616"/>
		<stop offset="92%" stop-color="#121212"/>
		<stop offset="95%" stop-color="#0e0e0e"/>
		<stop offset="98%" stop-color="#090909"/>
		<stop offset="100%" stop-color="#000000"/>
	</radialGradient>
</defs>
<style type="text/css">
<![CDATA[
.c4 {stroke:#45a211;fill-opacity:0;stroke-width:4}
.fs {font:14px sans;stroke:#ffffff;stroke-width:2px;stroke-opacity:0.8;text-anchor:middle}
.ft {font:14px sans;fill:#000000;fill-opacity:1;stroke-opacity:0;text-anchor:middle}
.sb {stroke:url(#bordergradient);fill-opacity:0}
.sg {stroke:#000000;fill-opacity:0.0;stroke-opacity:0.2}
.sh {fill:#45a211;stroke:#000000}
.sl {fill:url(#landgradient);stroke:url(#bordergradient)}
.sp {stroke:url(#landgradient);fill-opacity:0}
.sw {fill:url(#watergradient);stroke:url(#watergradient);stroke-opacity:0.8}
.tb {fill:#eeeeee;stroke:black;stroke-width:2}
.tg {stroke:black;stroke-opacity:0.2;fill-opacity:0}
.tl {fill:#aaaaaa;stroke:black}
.w4 {stroke:#ffffff;fill-opacity:0;stroke-opacity:0.6;stroke-width:4}
]]>
</style>
<circle cx="500.0" cy="500.0" r="500.0" fill="url(#watergradient)"/>
<path class="sl" d="M451,123h-1v4h-1v1l-1,1h-2v-1l-1,-1v-1h2l-1,-1l1,-1v-1l-1,-1l1,-1l-2,1h-2v1h-1h1h-1v1h-1l-1,-1h1l2,-2h1l-2,-2h-1v-2h-2v-1h1h-1l-2,-1v-3h1l1,1l-1,-1v-1h1h-2l-1,-1v-1l1,-1v-1v1h-1v1h-1l-1,-1h-1v-2h-1l1,-2l-1,-1l1,-1l-1,1v6h-1l-1,-1h-2v-1h1l-1,-1l2,-1h-1v-1h-1v2h-1v-1h-2v-1v1h-1h2v1h1l-1,1h2v1h-2l-1,1l-1,-1h-1l-2,-1v-2h-1v-1h-2v-1h1h-2l-1,-1h-1l-1,-1h1l1,-1v-1h1v1l-1,1h1v-1h1l-1,-1h-1l-1,1h-5l-1,-1h-1l1,-1h-11v-1h-2v-2h1l1,-1l-1,1h-2v1h-1v-1h-1l1,-1h-3v-1h1h-1v-1h1h-6l2,-1h-3v1h1h-2v1h-1h1v1h-1h1v1h-1l-2,2h-2l-1,-1v1v-1l-1,1h-1v1v-1h-1v1h-1l-1,1h-1v-1l-1,1v-1v1h-1l-1,1h-4v-1h3l2,-2l-2,1l-1,-1l2,-2h2l1,-1v-1h1v-1h3l1,-1h1v1h3l-1,-1h-1v-1h2l1,-1h1h-2v1h-6v1h-3v1h-2l-1,1h-1v1h-3v1h1h-1v1h-3l1,1h-3l-1,1l-2,1h-1v1h1l1,1v1h-2l-1,1h-2v1h-1v1h-4l-1,1h-1l-1,1h-3v1h-2l-1,1h1h-1v1h-3v1h-3v1h-3l-1,1h-1v1h-1l-1,1l1,-1h-1l-1,1l-3,1h-2v1l1,-1v-1h-1v1h-3l-1,1h-3v-1l1,1v-1h-2l-1,1l-2,1h-1l-1,1v-1l-1,1h-1l-1,-1v1l-1,1h-1l2,-2h2v-1h2l2,-1l1,-1h1l2,-1h3l-1,1v1v-1h2v-1h1l1,-1h1l1,-1l2,-1h3l1,-1v1h1v-1h1v-1h1v-1h3l1,-1h2l-1,-1h1l2,-2h2l-1,-1l1,-1l2,-1h1l1,-1h-1l-3,1h-2v-2h1h-2v1h-1l-1,1v1h-1v-3h-2v-1h-1l-1,1h-2l-1,1h-3l1,-1h2v-1l1,-1h-1l1,-1h1l2,-2v-1l1,-1v-1l1,-1h1l1,-1h-1v1l-2,1h-1v1h-1v1l-1,-1l-1,1h-3l-1,-1h1v-2h-1l1,-1h-1l2,-1l1,-1h1v2h-1h1l1,-1h1l-1,1h1l1,-1h-1h1v-1l-1,1h-1l-1,-1h-1l1,-1h1h-1v-1v1h-1v-2h1h-1v-1h2v-1h2l2,-2h2v-1h1v1l1,-1h1h-1l1,-1h1v-1h2v-1h2v1h-1v1l1,-1v1h1v-1h3l1,-1h6v-1h1v-1h1l1,-1v-1h-1l1,-1v1h1v-1h2v-1h-3l-2,1h-2l-1,1l1,-1l-1,-1v1h-1v-1h-2l-1,1v-1h-1v1h-1v-1h-2v-1h1l1,-1h-1v-1h3l-1,-1h-1l-1,-1l1,-1h1h-1h4l1,-1h4v-1h6l-1,1h-1v1h2l1,1h2l1,-1h2l-1,-1h-1h1v-2h1v1h-1v1h2v1h2v-1h1h-1l-1,-1l-2,1v-1h1l1,-1h-2l1,-1h-3v-1l1,-1v-2l-1,-1v-1h1h-1h1l1,-1l2,-1h8l1,-1h1h-1h1l1,-1h1l3,-1l2,-1h1h-1h4l2,-1l-1,1h1l1,-1h1l1,-1v1h4l1,-1h2l1,-1h1v1h1l-1,1h-1h2l1,-1v2h3v-1l1,1h1l-1,1h1h-1l2,1h7v1v-1l1,1h4v1h2l2,1v-1h4l1,1h1l1,1h2l1,1h4v1h1l1,1l2,1h4l1,1v-1h-1h1v-1h-1l1,-1h4v-1h2v1h-1v1v-1h4v-1h3l1,-1h3l1,-1l1,1h1v-1h1v1h-1l-2,1h-3v1h-3l-1,1h-2l-1,1h-1v1h1l-1,-1l2,1l1,-1h-1h1v-1h3v-1h2v1h1l2,-2h4v-1h1h-1v1h1l1,-1h1v-1h1h-1h1h-1v-1h2v1h1v1h1v1l2,2h2v-2h1l1,-1h-1h2v1l1,1h-2v1h3l2,-2h5l1,1h1l1,1h5l1,1h2l1,1h4v-1h2v1h3l1,1h1v1h-2v1h-1l-1,1h3l1,1h6v-1h5l1,-1h1l1,1h3v1h1v1v-1h1l1,1h2v1h-2l1,1h1l1,1h1l1,1l-2,-2v-1v1h1v-1v1h1l-2,-2h-1v-1h-1v-1h-1h1v-1h1l1,-1h1l1,-1h1v-1h-2v1h-2v1h-5v-1h1v-1h5l1,-1h2v1h1v1h1l1,1v-1v1h2l1,1l1,-1h2l1,1h2l1,1v-1h1l1,1l1,-1h8v-1h-1h1l2,1h2v-1h-4l-1,-1h1h-2v-1h1l1,1v-1h1h-1h3v1h1l1,-1v1h2v1l1,1v1h1v1h1v-1l1,1h1v1h-3l3,1l-1,-1h2l-2,-2v-1h-2v-2h2v-1l1,-1v-1h-1v-1h-1v1h-2v-1h1h-1v-1h1v-1v1h1h-1v-1h-6v-1h-3l-1,-1h-1v-2h1h-3v-1l-1,-1h1h-1l1,-1h1h-1v-2h2l1,1h3l1,1h1l1,1v1h3v1h2v1h1h-1v1h1l-1,1h2l1,1h1v-1h1v1h2v1v-1h-1v1h2l1,1h1v1h1v1h2v-1h-1v-1l-1,-1v-1h1l1,1h3l2,2h1v1h1h-1v1h1l2,2l2,1h2v-1h1h-1v-3l-1,-1h-1v-1l1,-1h-1v-1h-2l-1,-1h-1v-1h-1v-1h8v1h2v1h3v1h2v1h1v1h-1v1h1l1,1h2v1h2l2,2v3h-1v1h-1l-1,-1h-1l-1,-1h-3v-1h-1v1h2l1,1h2l1,1h1v1h-1l-1,-1v1h-1l-1,-1h-2l-1,-1v1h-2v1h3v4h-4l-1,-1h-2l-2,-1h-7l1,1h1v-1l1,1h4l2,1h1v1h8v5l-1,1h-1l-1,-1l1,1h-2l-1,-1h-1v1h1h-1h1v2h-5v-1h-7l-1,-1v1h2l3,1h1v1l1,-1h2l1,1h3l1,1v1h-1v1h-3v1h1h-2v1l1,1h1h-2l-1,-1l1,1v1h-1h1v1h-1h1v1h-1v1l1,1h-1l1,1v3h-1h1v2l1,1l1,2l1,1v2h2v1h2l1,2l-1,-1v-1h4l1,1l2,1l2,2v1l2,1l1,1v2h3l3,-2h2l1,1h3l2,1h4l1,1h1l1,1h1l3,2h3l3,1h2l1,1h2v1h1l1,1v1v-2h11l2,2h1v2l2,2h1l1,1v1l2,2v2h1v1h2l3,3h1l-1,1h3l1,1h1l2,1l2,2h1v1h-1v1h1v-1h3l2,1l2,2v-1h-1l-1,-1h-1v-1h-1v-3l1,1h2v1h1v1v-1h-1v-1l-2,-1v-4h-1v-1h-1l-8,-8h1h-1v-1h-1v-1h-2l-2,-2h-1l4,-4v-1l1,-1v-3h-1v-2l-3,-3l-2,-1v-1h-1l-2,-1v-1h-1l-4,-2l-1,-1h-2l-2,-1h-1v-1h-1v-4h-1v-1l1,1h1l-1,-1h-1v-1l-1,-1h-1l-2,-2h-1v-1h-1v-1v1h-2v-2l-1,-1v-1h-1l-1,-1h-1l-2,-2h-1v-1l1,-1h3l3,1h4v-1h1v-1l1,1h3v1l1,-1v1h1v1v-1h1l1,1h1v1h1v-1h1v1h1v1h1l1,1h6l-1,-1h1v1h1v1l1,1h1v1h1v1h1v1h-1h3v1h1v1l1,1h2v1h1v1h-1v1h2v-1h3l1,1h1l2,2v1h-1v1l1,-1v-1l-1,-1v-1l2,2v-1h-1h1l1,1v-4h1v1h1l1,1l-2,-2h-1h1l-1,-1l1,-1h-2v-1h-1h1l-1,-1l1,1v-1h-2v-1h-1h1l-3,-3h2v1h2l1,1h1v1h2v1h1v1v-1h1l1,1v1h-1h1v-1h1v1h2l2,2h-1l1,1v-1v1l1,-1l1,1v2h1v-1h3v1h1l1,1v1h2v1h2l2,1v1h1v1h-3v-1v1h3l1,1h-1h2v1h1l1,1h1h-1h2v1h1l-1,-1h1l1,1h1v1h2v1l1,1v1h1l-1,-1l1,-1l1,1v-1l1,1v1h1v1v-1l-1,-1v-1h1l2,2h2v-1l1,1h2v1l1,1h-1v2h1h-1v2h-1v1h1v1h-1v-1v1h1v1h1v1v-6h1h-1v-1h-1h3l2,1v1h1v1h1v1v-2h3l2,2h1v1l1,1h1v1h1v1h-1h2l1,1h-1h1v1h2v3l1,2h-2v1l-1,1v1l1,2v1l1,1l-1,1h1v1h-2l-1,1h-1v1l-1,-1h-5v1h-6l-2,1v1l-1,-1v1h-1v1l1,3l1,1v1h-2l-1,1h1l-1,1v3l1,1v2h-3l-1,-1h-1h1l2,1h2v2l1,1v2h-1l1,2l-1,1v2h-1v1h-1v1l-1,2h-1v4h-1v1h-1v1h2l-1,1v1l-1,1h5l2,-1h5l2,-1l-1,-1v-1l1,1v-1h1v-1l-1,-1l1,-1h-1v-2l-1,-1v-2l-1,-1v-1l-1,-1v-4h1v1h1v1h1v-1h1v-1l1,1h1l3,3v1l4,4v1h1v1h2v1h1v1l1,1h2v1l1,1v1h-1v1h-1l1,1h-1v1v-1h-2l1,1v1v-1h-1l-1,-1v1v-1v3h1v1h-1v1v-1h-1l1,1l-1,-1v2l-1,-1v4l1,1v3h1l1,1v2h1l4,4h1v-1l-1,-1v-1v1l-1,-1h1l2,2v1l-1,1h-1l-1,-1v2h-1l-1,-1v-1v1h-1v-1v1l1,1v1l-1,1h-3l-1,1h-2l-1,2v2l-1,-1v-1l-1,-1v-1v1l1,1v4h2v1h1v2l1,1v1v-1l-1,-1v1l1,1v2h-1h1v4h-1v-1h-1v-1l-1,1v-1h-1l-2,-1v-3h1v-1l-2,2h1l-1,1h1v1h1l2,2v1l2,1v1l1,1h-1h1l1,1v1v-1h-1l1,1v9l-1,-1v-5h-1l-2,-2v-1v1v-1h-1v1l-2,-2v-1h1h-1v-1h-1v1v-1h1l-1,-1h-1h1v-1l-1,-1v-1h1h-1v-1h1h-1v-1l-1,1h1v1h-1v-1v2h-1l1,1h1l-1,1v-1v1h1v2l2,2h-1l-1,-1l1,1l2,1v1h1h-1l-1,-1h-1l-1,-1v1l-1,-1l-1,1v-3l-1,-1l1,1l-1,1v1l1,1h1l1,1h3v1h1l1,1v1h-1l-2,-1l-1,-1l2,2h1l1,1h1v1h1v1l-1,-1v1l-2,-1l2,2h1l1,1h-1l-1,-1h-1l-2,-1h-1v1h3l2,2h3l1,1v1l2,3l3,2v1v-1l-2,-1l-1,-2l-2,-2v1h1v1h1l1,2l-1,-1h-1v1l-1,-1v1l-1,1l-1,-1v1h4v1l1,1l-1,-2h2v4h-3v-1v1h-2l2,1h1v3l-1,-1l-2,-1l2,2h1l1,-1l1,1v1h-1v1h-2l-1,1l-1,-1l1,1l-1,1v3l-1,-1l1,2l-3,1l-2,2v5h-1v2h-2l1,1v1h-2v1h-1h1v1h-1l-1,-1v1l1,1v1h-1v6h-1h1v5h1v1l1,3l3,3l1,3l3,3l3,4v1l1,1v2l1,1l-1,-2l-1,-1v-1v1l-1,-1v-2h-1v-1v1l1,1v1l1,1v1l5,7l2,2l1,2v2l2,6l-1,-1v6h-2l-1,1h-1v-2l1,1v-1h-1l-3,-3v-1h-1l-2,-1l-1,-1l-1,-2v-1h-1v-1l-1,-2h-1h1v1h-1v-1h-1l-1,-1l-2,-3v-2l1,-1v-1h-2l1,1v1h-1l-1,-1v-5l-1,-3v-1l-2,-1l-4,-3l-3,-3l-3,-2l-2,1v1h-1l-1,1v1h-2l-1,1v-1h-1v-1l1,1l-3,-3v-1h-1v1l-5,-2h1h-2l-2,1h-1l1,-1l-1,-1v1h-1h1l-2,2v-1l-1,1h-1v-1h-1v-1l-1,-1v2l-1,1h-3l-1,-1l-1,1h-2v1l-1,1l-3,-1l-1,-1h-1v1l-1,1l1,1h2l1,-1h1v2h1v-1h1l1,1v1h-1v1h-1l2,2h2l1,1h1v1h-1v1v-1l-1,1v-1h-1v-1h-2l-1,-1h-1l-2,-1h1v1l1,1v1h-1v1v-1l-1,-1h-2v1l-1,1l-1,-1h-3v-1h1l-1,-1v-1v1l-2,-1l-1,-1h-1l-1,-1v1h-1v1h1l-2,1h-2l-1,-1h-2l-1,-1h-1l-1,1h-3v-1h1l-1,-1v2l-1,1l-3,1l-1,1l1,-1h-2l1,-1l-1,-1l-1,1h-1l1,1v1h1l-1,1v2l-1,1h-1l-1,2h-1v1h-2l-1,1l1,-1h-4v-1l1,2h1l-1,1h-2v1h1l-1,1v-1l-1,1h-1v1l1,-1v1l-1,1h-1v1l1,1v2l-1,1l-1,-1h-1l2,2v2l1,1v1l1,2l2,3h1v4l-1,3l-1,2v11l1,3v7l1,2v1l2,3h1l1,1v1l-4,-4l2,3v1h1v1l2,2l1,3v1h1l4,4l2,3l1,2v1l3,3l1,2h1h-1l1,1h5l1,1h2l1,2l1,1h3l2,-1l1,-1h1l3,-1h2l1,-1l2,-1h3l1,-1v2h4l1,-1v-1h-1v-1h-1l2,-2h1v-1l2,-2l-1,-3h1v-1l1,-1h-1v-9l1,-1l2,-1l7,-2l1,-1h1l2,-1h4l1,1h2v-1h-1h1v-1l2,2h1v2h1l-1,1v2l-1,2v1l-1,2v4h-1v2h2l-1,1v1h-1l1,1v-1h1l-1,2v7h-1v-1l-1,-1v-3h-1v2l-1,1v2h2v10l1,1v3l-1,2l-2,2l-1,2v1h1l1,1h1v-2l2,2h2v-1h1l1,-1h1v1h6l2,-1l1,1l1,-1v-1h1v-1h1l2,1h3v-1h1l2,1h3l4,3l-2,-1v1h-1h2v1h1v1h1v-1l1,1v-1h-1v-1l2,1l1,2h1l-1,1v1v-1h-1v1h1v1l1,3v3h-1v6l1,3v5l-1,-1l1,-1l-1,-1v4h1v2h-1v2h1v3l-1,1v1l1,1v1l2,2l1,3l1,1l1,2l4,4h1l1,1v1l1,1h1h-1v1l1,1h3l-1,-1v-1v1h1l1,2h4l1,-1l1,-2h1l3,-3h1l1,-1v-1h4l1,1h3l3,1l1,1l1,2l3,1l-1,1v1h1v2h1v5l-1,1h-1v-1h-1v4h-1l-1,-2l-2,-3v-2l1,-1h-1l1,-1v-1l2,2h1h-1l-1,-1v-1l-1,-1v1h-2v-1v1h1v1h-1v-1l-1,-2h-1v-1h-1l-1,-1h-1l-1,-1l-3,3v2l-3,3h-1v2h1l1,1l1,2l1,1l-1,1h-2v1l-2,1h-1v-2l-2,-4v3h-2l-1,-1l-1,-2v-1h-1l-1,-1h-1v1l-1,-1h-4v2l-2,-2v-1l-1,-1v-1h-2l2,2h-3l-1,-1l1,-1v-3l-2,-2h-2l-1,-1l-2,-1h-1v-3l-3,-1l-1,-1h-1l1,1v1h2v2l-1,1l-2,-2h-2v-1l-2,-2v-1l1,-2v-2h-1l-1,-1h1v-1l-6,-6l-1,-2l-2,-2l-2,-1v-1l-3,-2l-1,-1v-1h1v1h1v-2h-1v-1h-1l1,-1h-3v1l-1,1h-3l-1,-1h-1v1h1l-2,-1l-5,-1h-3l-2,-2l-3,-1h-7l-2,-1l-5,-4l-2,-2l-2,-3h-1l-2,-2l-5,-4l-2,-1l-1,-1h-2v-1h-1v1h2l1,1h1l-4,-1h-2l1,-1h-2v-1h-1v2h1h-2l-2,2l-3,1l-3,2h-1l-1,1l-2,-1l-8,-2l-3,-2h-3l-2,-2h-2l-3,-1h-3l-3,-2h-1l-7,-3l-1,-1l-2,-1h-1l-3,-3h-3l-2,-1h-2l-2,-1l-4,-1l-5,-5l-2,-1h-1l-4,-2l-6,-6v-2h-1v-1l1,-1h1l1,-1l-1,-1h-1v-1l2,-2v-3l-2,-1v-1l-2,-2v-3l-2,-3l-1,-1h-1l-3,-3l-1,-2l-5,-5l-6,-4h1l1,1h1l-1,-1h-2l-2,-2l-1,-2l-1,-1l1,1h1v-1h-1l-2,-1h-1l-1,-1h-1v-1h-2v-1l1,-1h-1v1h-2l-1,-1l-1,-2l1,-1v-1l1,-1v1h1l-1,-1v-1h-1l-1,-2h-3l-1,-1v-2h-3l-2,-2v-1l-1,-1v-2h1l-2,-1h-1v1l-1,-1h-1l-5,-5h-1v-2h-1l-2,-2v-1l-1,-1v-1h-1l-1,-2l-1,-1v-2l-1,-2l-2,-2v-3h-1v-1h1v-1h-3l-2,-1v-1h-1l-1,-1v1h-2l-3,-2h-1l-2,-1h1v1l1,1l-1,1v3l1,1l1,2v5l2,2h1l2,2l2,1v1l2,2v1l1,1v-1l2,2l1,2h1l1,1v2l1,1v1l1,2l2,1l1,1v2h2v1l1,1v2l1,1h1l-1,-1v-1l-1,-1h1l1,1l1,2v1h1v1l1,1v3l1,2h1l1,1l1,2l1,1v2h1l-1,1v1l1,2l1,1h1v1h1v-2l2,1v1h1l1,1v1h1v1l2,2v3h-1l-2,2h-1l-1,-1l-1,-3l-1,-1v-1l-4,-2l-2,-2l-3,-2l-2,-2h-1l-3,-3v-7l-1,-1l-1,-2l-2,-1h-1l-3,-2v-1l-1,-1v-1l-1,1h-1l-1,1l-1,-1v-1h-1l-2,-2h-3v-2h-1l-3,-3h4v-1h1v1l1,1h1l-1,-1v-1h-1l1,-1v-2l1,-1l-1,-2l-2,-1l-2,-3l-2,-1l-1,-1h-1l-1,-1l-2,-1l-2,-2v-2l-1,-1v-1h-1v-2l-1,-1l-1,-2v-1h-1l-1,-2l-1,-1v-1l-1,-1h1v-1l-2,-1v-1l-1,-1l-1,-2v-1h-1v-3l-4,-4h-1l-1,-1h-2v-1l-2,-2h-4v-1h-1l-2,-2l-1,1l-1,-1h-4l-1,-1h-1l1,-1h-1l1,-1l-1,-1v-1l-1,-1v-1l-2,-2h-1l-1,-1v-1l-3,-3v-5h-2l-2,-2v-4h1v1h1v1h1h-1v-2h-1v-2h3v-1h-1l-1,1l-1,-1h-1v2h-2l-1,-1h-1l1,-1v-1v1v-1h-1v-1l-4,-4v-1l-1,-2l1,-1v-1l-1,-1v-1l-3,-3v-2l1,-1v-1l1,-1v-5l-1,-1h1v-1l-1,-1v-4l-1,-1v-1h1v-3h1v-1l1,-1v-5h1v-3l1,-5v-4h2l1,-1v1h1l-1,-1h-4l1,-1v-1v1l1,-1v-1h-1l-1,-1l2,-1h-1l-1,1v-3l-1,-2v-1l-1,-1v-3l1,1h3l5,1h2v2h-1l-1,2l-1,1h2v-1l-1,1v-1l1,-1h1v-1h1v-1v2h-1l1,1v1h-1v1l-1,-1l-1,1h1l1,1v-1h1v-1h1v-4h1v-1h-1v-1v1h-1v-1h1v-1h-1v-1h1h-1l1,-1h-1v-1h-1v-1h-2v-2h1h-2l1,-1v-1h-1v1h-1v1l-2,-1l-1,-1v-1h1v1h1h-1v-2l1,-1h-1v-1v2l-1,1h-2l-2,-2v-1l-1,-1l1,-1v-1l-2,2l-1,-1h-1v-1v2h-1v-1h-2l1,-1h-3l1,-1h-1v-1v1h-4v-1h-1l-1,-1v-1l2,-2h2h-2l-1,1h-1v-2l1,-1h-1v-1l1,-1h1l2,-1v1h1v1h1v1v-1h-1v-1h-1v-1l1,-1v-1v1h-1l-2,2h-2v1l-2,2v-1l-1,-1l2,-1v-1h1v-1l-2,2v-1l1,-1v-1l1,-1h-1l-1,1v-2l-1,-1h-1l-1,-1v-1l1,-1v1l2,1h2l1,1l-1,-1h-2l-1,-1v-1h1v-1h-1l-1,1h-1v1h-1v1h-1l-1,1l-1,-1v-1h-2v-1l1,-1h1v-1h1l1,-1h-3l-1,-1h1v-2h1l4,-4h-1v-1v1l-1,1v-2Z"/>
<path class="sl" d="M964,487v-2l1,1l1,4v5l1,4v4h1v2h1v1h1v6l-1,2v1l-1,1v4h-1v1l-1,1v4l-1,1v2l-1,1v5h-1l-1,1l1,1l1,-1l1,-2l1,-1v-1l1,-1v-1v4l1,2v3l1,-1v-1h1l2,-2l-1,2v6h-1h1v-3l1,-3v-1h1v-4h1v1v-4l1,-1v-3h1v-1v1l1,-1v1v-1h2v2h1v1v-1l1,1v1h1v1l1,-1v3l1,-1v4h-1v2l1,-1v-1v3h-1v5l1,-1v-2l1,-1v-2h1v-1h1v1l1,1l1,-1v1h1v-1l1,-1h1v2l1,1v3l1,1v8h1v1v-1h1v4l-1,3v8l-1,1v7l-1,1v4l-2,7v3l-1,2v3l-1,2v2l-1,1v2l-1,3v1l-1,1v1v-2v4l-2,4l-1,3v1l-1,3v-2v3l-1,1v2l-1,1v3l-1,2v1v-1l-1,6l-1,2l-1,3v2l-1,2v1l-1,2l-1,3v2l-1,3v1l-1,1l-1,3v1l-1,1v1l-1,2l-1,3l-1,2l-1,3v2l-1,1v1l-1,1v2l-2,2v1l-2,4v1l-1,1v2l-1,2h-1v1l-1,2v1l-2,2v1l-1,2l-1,1v1l-2,2v-1l-1,1v1h-1v1h-1h1v-1l-1,1h-1v2h-1v1h-1l-1,2l-1,1v1h-1l-3,4l-1,1l-1,2l-2,3l-2,2v1l-2,2v-1v1h-1v1v-1v2l-2,2l-1,2v1l-1,1v1l-1,1v2l-1,1v1l-1,1l-3,6l-1,1l-1,2v1l-1,1l-2,1l-1,2l-2,2l-2,4l-4,4l-3,6l-2,1l-1,2l-2,2l-2,1l-1,1v1v-1l1,-1h1v-1l2,-1v-1l2,-2v-1h1v-1l1,-1h1v-1l1,-2h1v-2l-1,2v-2l-1,1v2l-3,3v1h-1l-1,2h-1v1l-2,2l-1,2l-1,1v1l-2,2l-2,3l-2,2v1l-2,1l-2,3h-1l-1,2l-2,1v1l-3,3h-1l-2,2h-3l-1,1v-1h-1v-1h-2v-3l1,-1l2,-4l2,-2v-1h1v-2h1h-1l-1,3h-1v1h-1l-2,4l-1,1v1l-1,1v1h-1v1l-1,1v1l1,1v3l-2,2l-1,2h-1v2h1l-1,1l-1,2l-10,10l-3,2l-6,3l-1,1l-4,1l-1,1h-3v-1h-1v1h-1v1l-1,1h1v1h-1v1l-2,2h-1v1l-2,1v1l-1,1v1l-1,1h-1l-2,2h-1l-1,1h-2l-1,-1h-1v-1l-1,1h-1v1l-3,3v1l-2,2v1h1l-1,1h2v-1h1h-1l1,-1h1v1l-2,2v1h-1l-1,1h-1l1,-1v-1h-1l-1,1h-1v1h1v1h-1l-1,1h-1l-1,1l-2,1l-1,1v1l-4,4l-2,1l-1,1v1h-2l-1,1h-2v1h-2l-2,2l-4,2v1l-1,1v1h-1v3h3l-4,4h-1h1h-1v1h-1l-2,2h-2l-2,2h-1l-1,1h-1l-3,2v1l-3,2l-1,1l-2,1v-1h-2v1h1l-1,1h-1l-1,1h-1l-3,3h-1h1l-2,2h-1v1h-1h1l-1,1v2h-4l-1,1h-2l-2,1l-1,1h-1l-1,1l-2,1l-3,3h-3v-1l1,-1h2l-1,1h-1h1l1,-1l2,-1h1l1,-1v-1l-3,2h-1l-1,1h-2v1h-1v-1h1l2,-2h1h-1h1l2,-1h2h-4l-1,1h-1v1h-1l-1,1v-1l1,-1h1l1,-1l-1,1h-3l2,-2h2v-1v1l1,-1h2l1,-1v1l-1,1h-1h2v-2h2v-2h-1l1,1l-4,2h-1v-1h-1l1,-1h1l1,-1v-1h-2v-1l1,-1h2v-1l1,-1v3l1,-1h1v-1h1l-2,1h-1v-1h2l-1,-1l2,-2h1v-1l1,-1h2v-1l1,-1l-1,1h-1v1v-1l1,-1l1,-2l2,-1h1v-1h-1v1v-1l1,-1v-1h3l1,1v-2h1v-1l-2,2h-1v-1h-1l1,-1h2l-1,-1h1l1,-1h1v-1h1v-1h-3l1,-1h-2v1h-1v1h-1v-1l1,-1h2v-1h1l1,-1h1v-1l1,-1h3v-1h2v-1h1v-1h1l-3,3v1h-1l-2,1h1l3,-3h1l-4,4h-1h2v-1h1v-1h1v-1l1,-1h1h-1v-1l1,-1h2l1,-1l1,1v-1h-1v-1l1,-1h2l2,-1l2,-2h-1v-1h-1l4,-4v-1h1l1,-1v-1h2v-2h1l1,-1v-2h2l-1,1h1v-1l1,-2l-1,1v-1l1,-1h1l2,-2v1h-1l-1,1v-1h-1l-2,1v1h-2v-1h1h-1v-1l1,-1v-1l6,-6v-1l2,-1l2,-3l1,-1l1,-4h1v-1l1,-2h1v-2l1,-1v-1l1,-1v-1h2l2,-2v-1h1v-1h1l1,-1l2,-3l2,-2v-1h1v-1l1,-1h1l1,-1l1,-2l2,-2v-1l1,-1v-1l2,-2h1l2,-2v-2l1,-1v-1h1l2,-2v-1l1,-1v-2l2,-4l1,-3v-1l1,-2l1,-3l2,-1l2,-4l1,-1v-2l1,-2l2,-2v-1l1,-1l2,-4l2,-2v-1l1,-1v-1l1,-2l2,-2l1,-2v-1l1,-2v-2l3,-3v-1l1,-3v-1l1,-3l1,-1v-1l1,-1v-1l1,-1v-3l1,-1v-1h1v-1l1,-2l1,-3l1,-2l1,-1v-2l1,-1v-1l1,-1v-4l1,-1l2,-6v-4l1,-4v-2l1,-1l-1,-1l-1,-2h-1v-1l-1,-1v-3h-1l-3,-3v-1h-1l-1,-1h-1l-2,-1v-1h-2l-4,-4l-3,-2v-2h-1l-1,-2h-1l-1,-2v-3h-1v-3h1l1,-3v-1l-1,-2l-1,-1v-2l-1,-1v-2l-1,-1v-4l-3,-3v-1l1,-1l-1,-2l-1,-4l-1,-2v-3l-1,-2v-2l-1,-2v-3l-1,-1v-2l-3,-3l-1,-3v-3l-3,-3l-4,-3l-2,-1v-3h2v-3l-2,-2v-1l1,-1l-1,-1v-1h-1l1,-3v-1l3,-4v-1l2,-2l2,-1l2,-2v-1l1,-3l1,-2l-1,-1v-2v3l-1,1v-2l-2,2v1l-2,-2l-2,-1v-2h1v-7l-1,-2l1,-1h1l1,-1v-2h1l-1,-2l1,-2h1l1,-1v-8h1l1,-1h1l2,-2l3,-1v-3h-1v-2h3v-1l-1,-1v-3l1,-1h1v-1h2l1,-1v-1h1v-3h1v-1l1,-1v-2l1,-1l1,-3h-1v-1h-1v1l-1,-1v-2l1,-1v-3l-1,-3v-2l-1,-1l1,-2l1,-1l-1,-2l-1,-1v-1l1,-2l-1,-1v-1l-1,1v-2h-1v-1l-1,-1v-5h1v1h1l1,-1v-5h-1v-2h-1v-1l1,-1v1l1,1h1l1,2v1h1h-1v1h1v-3l-1,-1v-2h1l2,-3l1,-3l1,-1h1l1,-1v-2h-1v-1l1,-2l-1,-1h1v-1l-1,1v-1l1,-2v-1l1,-1v-1l1,-2l1,-1l2,1h1l-1,1l1,1v-2l1,-1v-2h5l3,-5l1,-1h1v-3l3,-3h1l2,2v3h-1v1l-2,2h-1v1h1v2l2,2h-1l1,1v5l-1,1v1l-1,2l1,2l1,1v1h1v2l1,1h1l1,-1v-1l1,-1v-3l-1,-2l-1,-1v-1l-1,-1l-1,-2v-4h1l2,-3h2l1,-2h1v-1l1,1v-1h1l-1,-1h-2v-1l-1,-1v-2h1v-1l2,2v2l1,1v1h1l1,-1l2,1h1l3,3v2l1,1v1h4l2,-1l1,-1h4v1l2,2h3l1,1v-1h1l3,-4h2l-1,-1h-1l-1,1v-1l2,-1h2l1,-1h5l1,-1v1h-1l-1,1h-1l-1,1v1h1v2h1v-1l1,2v2l1,-1v-1h1l1,1v1v-1h1v-1l1,2h2v1l1,1v1h-1v6h-2v1h1l1,1v-1h1v-1h2v-1h2l1,2h1v-1l1,1l1,2l3,3v1l1,1v6l1,-2h1v1l4,4v3l1,2v1v-5l2,1h2l1,1l-1,-1v-1h1v-1h6v4l1,-3v-1l2,2l2,1v1l1,2h1v1l1,1v1v-1h1v4h1Z"/>
<path class="sl" d="M370,17h-1l-1,1l1,-1h1l-2,1h-2l-1,1h-2l-1,1h-3l-1,1h-2h2l1,-1h1h-1l-5,2h1v-1v1h-3l-1,1l-3,1h-2l-1,1h-1h1l1,-1h2l1,-1h1h-1l-1,1h-2v1l1,-1l-1,1h-2v1h-1h1v-1h1v1h-1l2,-1h2l1,-1h1h-1h2l1,-1v1l1,-1h1l-1,1h-1l-1,1h-1l-1,1v-1h-1v1l-1,1h-2l2,-1h1h-2v1h-1l2,-1h1v1h-1l-1,1h-3v1h-1l-1,1h-1l-1,1h-2l-1,1h2v1l1,-1v2l-1,1h-2v1h-2l-1,1h-2l-1,1h-1v1h-1l-1,1h-2v1h-1l-3,1h-1h3v-1h2l1,-1h1l2,-1h3v1h-1l1,1h2l-2,2v1h-2v1h1l2,-1h1l1,-1l2,-1h1l1,-1h2l1,1h1v1h2v2h1v1h-1h1l-1,1v2h-1v1l-1,1h1v-1v1h-1h1v3h-1v1h-1h1l-1,1h-1l-2,2h-1v1h-1v1l1,-1v1h-1h1l1,-1v-1h2v-1h1h-1h1h-1l1,-1l1,1h1h-1v1h-1h1v-1h1v1h1l-1,-1h1v1h1v1h-1v2h-1h1v1h1h-2l-1,1h-2v1h-1v-1h-1v1h-2v-1h-1h1h-1v1h-1h1l-1,1h-1l-1,1h-3v1h-1v1h1h-3v1h-1v-1h1l1,-1l-1,1h-1v-2h-1v-2h2v-1l1,-1h-5v-1h2v-1l1,-1h2l1,-1h-1l-1,1v-1h1h-1l-1,1h-1l1,-1l-1,1h-1l-1,1v1h-2v1h-2l-2,1h-1l-1,1h-3l-1,-1l1,-1v-1h-1v1h1h-1v1h-1v-1h-1h1h-1v1h-2h4l-2,1l-1,1h1l-3,3h-2l1,1h-1h1h-1v1h-1v1h-1l-1,1h1h-1l-1,1h-1l-1,1h-1v-1l-1,-1h1v-1h-1v1h-2l-1,1h-5v1h-4l-1,1v-1l-2,1l-1,1v-1l-1,1h-2v1h-3v1v-1l-1,1l-3,1h-2v1l-2,1h-1l1,-1v-1h1l1,-1v-1h-4l-1,1l-3,1h-1h1l1,-1l2,-1l1,-1h-1l-1,1h-2v1h-2v1h-1v-1h1v-1v1h-1l1,-1h-1l-1,1h-1l-2,1l-1,1l-2,1h-1v1h-2l-1,1l-2,1h-1l-2,1v1h-1v1h-1h2v-1v1l-1,1h-1l-1,1h-1l-3,3h-1v1h-1l-2,2h-1v1h-1l2,-2h1h-1l-1,1h-2l-2,1l-3,3h-1l-3,3h-1l-1,1h-1l1,-1h-1l-1,1h-1l-1,1h-1v1l-2,1h-1v1h-1v1h-1l-1,1h-1h1v-1l-1,1h-1l-1,1v-1h1h-1v1l-2,1l-1,1h-1v1l-6,3l-1,1l-2,1l-1,1h-1l2,-2h1l1,-1l3,-2l7,-7l5,-4h1l4,-4l3,-1l3,-3l3,-2l7,-4v-1h1l2,-1h1l1,-1h1l2,-2h1l2,-1l-1,1h1v-1h2l1,-1h1l1,-1h2l2,-2l3,-1h2l2,-1l1,-1h1l1,-1h2v-1h2l1,-1l1,1v-1h2v-1h2l2,-2h1l1,-1l2,-1h2v-1h1v1h1v-1l1,-1h-3l-1,1h-1v1h-1l-2,1h-1v1h-1l1,-1l-1,1v-1l-1,1l-5,2h-3v1v-1h1l2,-1h-1l1,-1h2l2,-2h2v-1l-1,1h-1l1,-1h1h-2v-1h-1v1h-2l-2,1h-1l-1,1l-2,1h-1l-1,1h-1l-4,2h-1v1h-2v1l-2,2v-1h-1h1h-1h1v-1l-1,1h-2l1,-1h2v-1l1,-1h1h-1l2,-2h-1v1h-1h1h-2v1h-1h1l1,-1h-1l1,-1l-1,1h-1l1,-1h1v-1h1v-1v1v-1l-1,1h-1l-2,1v1h-2v1h-1l-2,1l-1,1h-1v1h-2v1l2,-2h1l1,-1h1l2,-2h1l1,-1h1l2,-2h1l1,-1h1l2,-2h1l1,-1h1l1,-1h1l2,-2h1l1,-1h1l1,-1h1l1,-1h1l2,-2h1l1,-1h1l1,-1h2l1,-1h1l1,-1h1l1,-1h1l1,-1h1l1,-1h1l1,-1h1l1,-1h1l1,-1h1l1,-1h1l1,-1h1l1,-1h2l1,-1h1l1,-1h1l1,-1h1l1,-1h1l1,-1h2l1,-1h2l1,-1h1l1,-1h2l1,-1h1l1,-1h1l1,-1h3l1,-1h1l1,-1h2l1,-1h1l1,-1h3l1,-1h1l1,-1h2l1,-1h2l1,-1h2l1,-1h2l1,-1h2l1,-1h3l1,-1h2l1,-1h2l1,-1h3l1,-1h2l1,-1ZM207,95h-1v1h-1v1h-1l-1,1l1,-1l-1,1h-1l-3,3h-1v1h-1l-1,1h1l1,-1v-1l1,-1h1l2,-2h1l2,-2h1l2,-2h1Z"/>
<path class="sp" d="M234,77l2,-2h1l1,-1h1l2,-2h1l1,-1h1l2,-2h1l1,-1h1l2,-2h1l1,-1h1l1,-1h1l2,-2h1l1,-1h1l1,-1h1l1,-1h1l2,-2h1l1,-1h1l1,-1h2l1,-1h1l1,-1h1l1,-1h1l1,-1h1l1,-1h1l1,-1h1l1,-1h1l1,-1h1l1,-1h1l1,-1h1l1,-1h2l1,-1h1l1,-1h1l1,-1h1l1,-1h1l1,-1h2l1,-1h2l1,-1h1l1,-1h2l1,-1h1l1,-1h1l1,-1h3l1,-1h1l1,-1h2l1,-1h1l1,-1h3l1,-1h1l1,-1h2l1,-1h2l1,-1h2l1,-1h2l1,-1h2l1,-1h3l1,-1h2l1,-1h2l1,-1h3l1,-1h2l1,-1h1M194,105l2,-2h1l1,-1v-1l1,-1h1l2,-2h1l2,-2h1l2,-2h1"/>
<path class="sl" d="M924,452h-1h1v-1ZM907,437l1,1v1h-1v1v-1h-2v-1h1v1h1v-1ZM901,440v1h-1v-1ZM923,454v1v-2l1,-1v2ZM37,644l1,3v-1l1,1v2h1v1h-1v1v-1l-1,-1v-2l-1,-3l-1,-1v-1l1,1ZM42,655v1l1,1v1h1l-1,1v-1h-1v-3h-1v-2ZM46,662h-1v-1h1ZM44,658v-1h-1v-1h1v1ZM48,668v1l1,1h-1v-1h-1v-1ZM41,650v-1ZM43,655v-1l-1,-2v-1l1,3ZM42,649v1v-1l-1,-2l1,1ZM40,652v-1ZM38,640l-1,-1h1ZM37,637v-1ZM59,691h-1v-1ZM56,685v1l-1,-1v-1ZM54,680l-2,-2v-1l1,1v1ZM15,467v1ZM4,438l1,-1v1ZM9,450v-1ZM32,470h-1h1v-1ZM31,456h-1ZM39,461v1ZM37,460v1l1,-1v1h-1ZM31,421h-1ZM890,377h-1v-1ZM890,376v1ZM891,381l1,1v-1v1h-1ZM125,660h-1h1v-1l1,1ZM883,377h3v2h-1v2h-4v1h-2v-2h-1v-3h2ZM887,379h-1h2ZM439,119h-1v-1h1v-1l1,1h-1ZM439,120h-2l1,-1h1ZM435,109h-2l1,-1ZM395,96h-1ZM395,99l1,-1h1h-1ZM383,97h-1v-1h1ZM369,94l1,-1ZM316,118h-1ZM318,119v1h-1h1ZM286,125l1,-1ZM244,131h-1l1,-1ZM355,63l1,-1ZM326,72h3l1,1h-1v1h1h-1h2v1h-3l-1,1v-3h-3l1,-1ZM322,89v1h1h-1v1h-1v1h-3l-1,-1v-1h2v-1h2ZM355,107h2v2h-3v1h-3l-1,1h-1l-1,1h-1l1,-1h-1h1v-1h-1v1h-1v-2l1,-1h3v1l1,-1h1l-1,-1l1,-1l1,1h2v-1h1v1ZM303,119l-1,1h1v1h-1v-1l-1,1h-5v1l-1,-1v-1h2l1,-1h2l1,-1h2ZM435,124l-1,1h-1v1v-2h1ZM444,127v1h-1v-1h-1h1v-1h1ZM441,121v1h-1v-1h-1v-1h1l1,-1l1,1ZM446,125l-1,1h-1v-1h-1v1h-1v-1l1,-1v-1l2,-1l1,1v1ZM437,116h2v1l-1,1l-1,-1v2h-2v-3h-1l1,-1h1ZM436,128h1v1h-1l-1,-1v-2h-1v-1h1v1l1,1ZM390,95h1l-1,1h-1v-1ZM383,98v-1h2l1,-1h1v-1h1v1h-1l-1,1h-2v1ZM386,95h-1v1h-1v-1h1v-1h1ZM386,93h-1v-1h1ZM352,111h-1v-1l2,1ZM360,104h-1v-1h1ZM354,107v-1h-1h1ZM337,117h-1h1v-1ZM343,114h-1h1v-1h1v1ZM345,114v-1h1h-1ZM315,118v1h-2l2,-2ZM306,120v-1h1v1ZM303,122h-1ZM317,119h-1v1h-1l1,-1ZM290,123h-1v-1h1ZM291,123v-1h1h-1ZM329,100l1,-1h1ZM304,86v1h-1v-1h1v-1ZM292,104h-1ZM270,128h-1ZM265,129h-1h1l1,-1v1ZM257,130h1v-1v1ZM290,107h1l-1,1ZM243,131h-1l1,-1ZM245,130h-1v-1h1ZM240,131h-2v-1h2ZM229,127h1ZM228,131v-1ZM220,122v-1h1ZM430,114h1v4h-1v2h-1v-3h-1v-1l1,-1h-1v-1l-1,1h-1v-1h1l1,-1h2ZM433,109h2l1,1v1h-1v-1h-1v1l1,1v2h-1l-1,1h-1v-1l1,-1h-1v-1l1,-2v-1h-1v-1h1ZM429,109v1h-1h1l1,-1l1,1h1l-1,1h-2l1,1h1v1h-1v-1h-2v1h-2v-1l-2,-2h1v-1h3Z"/>
<path class="sl" d="M435,120h2v1l1,1h1v1l1,1v1v-1h-2v1h2v1h1l-1,1v2h-1v-1h-1l-1,-1h1h-1h1l-1,-1v1l-2,-2h1v-1h-1v-1h-1v-1l1,1v-1h1v-1h-1l-1,1v-1h1ZM434,117h1v1h-1v1l-1,1v1h-1v-2h1v-1h-1v-1l1,-1h1ZM359,104h2v1h-2v1l-1,-1v1v-1v1h-3v-1h1l1,-1l1,1v-1ZM278,126l-1,1h-2v1h-2l1,-1h1v-1h2v-1h3l-1,1ZM286,123v1l1,-1v1h-1l-1,1h1h-1l-1,1h-4v1h-1v-1h3v-1h1v-1l1,1v-2h1ZM253,130l1,1h1h-3v-1ZM249,130h-1h2l1,-1h1h-1h1v-1h1v1h-1v1h-2ZM242,130v1h-2v1l1,-2h1l1,-1v1ZM237,131v-1h1v-1h1v1h-1v1ZM232,128v-1h1v1ZM226,127l1,-1h1h-1ZM223,118v1h-2l1,-1ZM225,385h-1l-1,-1v-6h1v-1l1,-1v-2l2,1l3,3v2l1,1v1l-2,1h-2l-2,1ZM218,365l1,1h2v1h-1l-1,-1h-1ZM222,368h2v1h1v1l-1,1h-2v-2h-1v-2h1ZM215,363v1h1l-1,1h-1v-1h-1l-1,-1v-1h1l1,-1l1,1ZM206,358h-2v-1h-1l2,-2l2,1v1h-1ZM201,358l-1,1v-1l1,-1h1h-1ZM220,369h-1v-1h1ZM778,205v1h1v-1h1l-1,1v1h-1l-1,1h-1l-1,1h-1v-1l-1,1v-2h1v-1h3l1,-1v-1h1ZM781,180v1v-1h-1v-1ZM773,210h-1v-1h1ZM785,201l-1,1v-1ZM782,201h-1v-1ZM788,202h-1v-1ZM783,244v1ZM786,249h-1h1l-1,-2v-1l-1,-1h1v1l1,1ZM785,249l-1,1h1ZM783,254v-2h1l-1,1ZM775,322h-1v-1ZM775,321h-1v-1ZM789,331l-1,2v-2h1l-1,-1h1ZM706,302h-2v-1h2ZM673,317h-1l1,-1v-1v1ZM674,315v-1l1,-1h1l-1,1ZM671,322v1v-3l1,-2l-1,2ZM684,306l1,-1h1h-1ZM674,331v1l-3,-6v-3l1,3l2,4ZM498,272h-1ZM504,279h-1v-1h1ZM512,282h-1v-1l-1,-1h1v1ZM500,273h-2l1,-1ZM501,272h2v1h-2ZM512,277v1h-1v-1h-1h1ZM484,167v1l-1,-1v1v-1ZM483,168v1l-1,-1ZM485,171l1,1h-1v-1l-1,-1l1,-1v1h-1h1ZM776,216v1v-2ZM777,229v-1ZM783,254h-1ZM784,336l-1,-1ZM788,333l-1,1ZM786,335h-1ZM767,285l1,2l-1,-1ZM783,337h-1v-1h1ZM785,314l-3,-3v-1l1,1ZM781,337h1ZM725,295h-1ZM728,294v1h-1v-1ZM721,296l1,1ZM725,298l-1,1v-2ZM750,298h-1l1,-1h1ZM483,177v-1ZM486,176h-1v-1h1ZM484,169h-1v-1ZM434,760v-1ZM898,376v1ZM774,905v1l1,-1v1h-1v1v-1h1l-1,1h1h-2v1h-1l-2,1h-1l-1,1h-1l-1,1l2,-2l2,-1h1v-1h1l1,-1h1ZM769,907h2l1,-1v1v-1v1h-1l-1,1l-2,1l-1,1h-2v1h-1l2,-2h1l1,-1v-1ZM765,909v1h-1ZM771,909h-1ZM770,907h-1h1v-1h1ZM766,911v-1ZM795,380h1l-1,1h-1v-1ZM803,376h-1v1v-1ZM804,376h-1ZM847,264v-1ZM891,375h1ZM891,376h-1ZM847,353h-1ZM846,353h-1v-1v1ZM843,353h1v1h-1Z"/>
<path class="sl" d="M905,388v-1ZM922,434h-1l1,-1ZM922,443l-1,1l-2,1v-1l-1,1l1,-2v-4h-1l1,-1h1l1,-1v4l1,1ZM117,711v1v-1h1v1h-1l-1,-1ZM117,692v1l-1,-1ZM119,713v1ZM13,584l-1,-1v-1v1ZM32,618h-1v-1ZM28,609v1l-1,-1v-1h1ZM19,612v1v-1l-1,-1v-1l-1,-1h1l1,2ZM17,595v1v-1v1v-3l-1,-1v1ZM13,588h-1v-1h1ZM14,588v1ZM10,579v1l-1,-1v1v-2ZM11,585v-1ZM11,583v1l-1,-1v-1h1ZM10,583l-1,-2v-1l1,1v1ZM8,575v-1ZM8,577v1v-2ZM9,577v1v-2h-1v-1l1,1ZM6,567v1v-2ZM10,584v-1ZM14,590v2h1v2l1,1v1l-2,-2v-3ZM13,584v-1l-1,-1v-2l-1,-1v-2h-1v-1l1,1v2h1l1,3v1ZM8,571v1v-3l-1,-2v-2l-1,-1h1v4l1,1ZM14,583l1,3v3l1,1v2l1,2v1v-1l-1,-1v-2l-1,-1l-1,-5ZM18,602h1v1l1,2v1v-1h-1v-1l-1,-1v-3h-1h1v1ZM115,652h1v2h-1l-2,-2h1ZM121,657h-2l-2,-2h1l2,1ZM917,418h-1v-2h1v1ZM917,419h-1h1h-1h1v-1ZM917,422v-1ZM917,412v1l-1,-1v-2ZM903,385h-1v-1ZM902,384h-1v-1h1ZM138,155v1ZM243,75v-1h1h-1ZM379,16l-1,1h1v-1h2l-2,1h-1h1l-3,1h-2l-1,1h-1v-1h3l1,-1h1l-1,1h-3l-1,1h-1l1,-1h-1h1h-1h1l2,-1h2l1,-1h3l1,-1h1v1h-1ZM374,19h-1v1h-1l-1,1l1,-1l-2,1h-1v-1h2l1,-1h3l1,-1l-1,1ZM356,41l1,-1h2v-1h4l-4,2h-2ZM170,124h1l6,-6h1l5,-5h1l3,-3h1v-1l2,-1l2,-2h1v-1h1v-1h1l2,-2h1v-1h1l2,-1l1,-2h1l2,-2v1v-1h1l2,-2l2,-1l1,-1l-2,1v1h-1v1h-1l-2,2l-2,1l-2,2l-2,1h-1v1h-1v1l-2,1l-1,1h-1v1h-1l-2,2h-1v1l-5,4l-2,1l-4,4h-1l-1,1v1h-1l-1,1l1,-1h1v-1v1h-1l-7,7h-1l-2,2h-1v1l-1,1l-2,1l-1,1v1l-2,1l-2,2v1h-1l3,-3h1v-1h1v-1l2,-2h1l6,-6Z"/>
<path class="sp" d="M171,124l4,-4M160,133l2,-2h1l7,-7"/>
<path class="sl" d="M365,39v1h-1v1h-5l1,-1l2,-1h2ZM224,106v1l1,-1v-1h1h-1v1ZM339,35h-1h1v-1ZM324,41h1v-1h2v-1h1v1h-2l-1,1ZM380,19h1ZM385,17h1ZM345,25h-1h2ZM364,20h-1h2ZM363,21h-1l-2,1h-1l-2,1v-1h2v-1h3ZM378,16h1l1,-1h1h-1l-1,1ZM365,19h2l1,-1h1h-1l-1,1h-1ZM335,42v-1h1v-1h2v1h-1l-1,1ZM247,84h-1h1l2,-2h2l1,-1v1l-1,1h-3ZM224,104l-1,1l1,-1v-1h1v-1h1v-1h1v1h-1l-1,1v1ZM175,127l2,-2v1h-1ZM185,120v1v-1h1v-1v1ZM182,122v1h-1v-1h1l1,-1l2,-1h1h-1l-1,1h-1ZM171,129v1v-1h1ZM186,119v-1ZM164,135h1v-1ZM159,139l-1,1v-1l1,-1h1ZM150,145l2,-1l1,-1l-1,1h-1ZM149,146h-1l-1,1v1h-1l1,-1l-3,3h-1h1v-1h1v-1h1v-1h1l1,-1h1v-1l-1,1l2,-1h-1ZM139,154h1ZM144,149v1h-1v1h-1v1h-1l-1,1h1v-1h1v-1h1v-1ZM898,197v1ZM886,186h1h-1v-1ZM890,188l-1,-1h1ZM891,189h-1v-1ZM891,190v-1h-1h1ZM891,190h1h-1v-1ZM894,192h-1h1v1v-1h-1ZM2,544v1v-8l-1,-3v-1l1,7v3ZM2,548v-1v1l1,1v2l-1,-1v-1Z"/>
<path class="sp" d="M3,554v-3l-1,-1v-2"/>
<path class="sl" d="M1,530v1v-2ZM1,528v-1ZM8,587v1Z"/>
<path class="sp" d="M8,589v-2"/>
<path class="sl" d="M6,576v-2h-1l1,1v2Z"/>
<path class="sp" d="M6,575v-1M6,577v-1"/>
<path class="sl" d="M11,602v1v-1v1ZM0,522h1v1l-1,-1v-1Z"/>
<path class="sp" d="M1,523l-1,-1v-1"/>
<path class="sl" d="M7,580v1ZM11,602v1v-2ZM1,527v-1ZM2,539v1ZM6,564v1v-1l-1,-1v-5l-1,-1v-3l1,1v5h1v3ZM4,552v-1ZM825,474v-2l1,1ZM808,484h-1l-1,-1v-1l1,-1v2h1ZM802,466v1l-1,-1ZM569,5h-2v-1h-1h1l1,1ZM566,4h-1Z"/>
<path class="sp" d="M566,4h1l1,1h1M565,4h1"/>
<path class="sl" d="M154,845h1v-1v1h1v1v-1l-1,-1h1v1h1v1v-1v1h1h-1v1h1l1,1v1h1v1h1v2h1v1l1,2l1,1v1l3,3h1v1h-1v-1v1v-1h-1h1l-1,1v-1l-1,-1v1h1v2h1l1,2l2,2h-1h1v1h1v1h1l1,1v1l1,1v1h1v1l1,1v1v-1h-2v-1h-1l-2,-2h-2v-1h-1l-1,-1h1h-1v-1v1l-1,-1v-1h-1v-1h-1v-1v1h1h-1v-1h-1v-1h-1h1h-1v-1l1,1l-2,-2h1h-1v-1l-2,-2v-1h1v1l-1,-1v-2h-1v-2l-1,-1h1v1v-1h-1l-1,-2l-2,-2v-1l-1,-1v-1l-3,-3v-2h-1v-1h1v2h1l1,1h1v1ZM154,843v1v-2ZM165,867h1v1v-1ZM163,865h1ZM175,875l1,1h1h-1l1,1h-1h1h-1v-1h-1v-1l-1,-1h-1h1ZM136,815h1h-1v-1h-1v-1v1h1ZM123,804h1v-1v1l1,1h1h-1h1l1,1v1h1l2,2v1l1,1v-1v1l4,4v1h1v2h1l1,1h1v1h1v1h1l-2,-2v-1h-1v-1h-1v-1l2,2h1v1l2,2l1,2l1,1h1v1l2,1h1l1,1h1v-2h1v1h1l1,1v1l1,2l2,2v1h-1h1l1,2l1,1l-1,-1h-2v1l2,2l1,2l1,1v1l1,1v1h1v2l1,1v2l-2,-2v1v-1h-1v-1v1v-1h-1v-1l-1,-1v-1l-3,-3v-1l-1,-1h-1l-1,-1h-1l-2,-2h-1v-1h-1v-1h-1v-1h1v-1l-1,-2l-2,-2v-1l-1,-1v-1h-1l-1,-2h-1v-1h-1l-1,-2h1v1l-4,-4v-1l-2,-2v1l-2,-2v-1v1l2,2h1h-1v-1h-1l-4,-5h-1v-1v1v-1h-1v-1h-1v-2l-1,-1h-1l-1,-2l-1,-1l3,3ZM212,906h1ZM196,895l1,1l-2,-2ZM200,868h-1v-1v1l1,1h1h-1l-1,-1h-1v-1ZM203,871h-1v-1ZM108,611v-1ZM116,618h-1ZM139,699v1l-1,-1v-1h1ZM202,723h-1ZM884,432v1v-1h-1v-1h1ZM899,381h-1ZM875,431h-1v-1v1ZM881,433v1l-2,-2v-1l1,1ZM756,375v1l-1,-1v-2h2l-1,1ZM609,372l-1,1v-1h-1v-1h1v1ZM575,397h-1v-1ZM574,344l1,1h-1l-1,-1ZM552,312l-1,-1l-2,-1v-3l1,1v1l2,1v1ZM537,320l-1,-1v-2h1v2ZM559,312v2h-1l-1,-1v-2l1,-1h1v1ZM513,313l-1,-2h1v1ZM756,367v1v-1h-1ZM725,392h-1l1,-1h1h-1ZM581,351h-1v-1ZM570,336h-1v2v-2ZM566,350l-3,-2h1ZM563,348h-1v-1l-1,-1v-1l1,-3v5ZM40,497v-1ZM40,508v-1ZM40,509v-1ZM40,515v1ZM45,532v-1ZM46,536v-1ZM112,565h-1ZM94,575v1ZM214,585v-1ZM242,649v-1ZM208,598v-1ZM197,532l1,1h-2l-1,-2h1v1l1,-1l-1,-1v1h1ZM184,513v1v-1h-1ZM108,561v1v-1v1ZM145,148l-3,3v1h-1l2,-2h1h-1l-3,3v1h-1l-2,2h1h-1v1h-1h1h-1v1v-1v1h-1l-1,1l1,-1h1v-1l2,-2h1v-1l7,-7Z"/>
<path class="sp" d="M134,159l1,-1h1v-1l2,-2h1v-1l7,-7"/>
<path class="sl" d="M822,385h2l1,1h1l2,1l1,1v1h-1l-1,1v-1h-2v1h-1v1h-1l-1,-1h-2l-1,-1h-1v-1h-2v-2h1v-1h4ZM699,41l1,1h2l2,2h2l1,1h1l1,1h1l1,1h2l1,1h1v1h2v1h2v1h1h-2v-1v1v-1h-1h1v1h1h-1l-1,-1h-1v-1h-2l-1,-1h-1h1h-2l-1,-1h-1v-1h-2v-1h-1v1h1h-1l-1,-1l1,1l-1,-1h-1h1h-1l-1,-1h-2v-1h1v1l-1,-1h1v1h1h-1v-1h-2v-1h-1h1v1h2l1,1h2v1h1h-1l-1,-1h-1h1h-1v-1h-2l-1,-1h1v1h1h-1l-1,-1h-1l-1,-1h1l1,1h1h-1l-2,-1h1h-1l-1,-1v1v-1h-1l-2,-1h-1h1l1,1v-1h-1l1,1h2v1h1h-1h1Z"/>
<path class="sp" d="M699,41l1,1h2l2,2h2l1,1h1l1,1h1M698,41h1"/>
<path class="sl" d="M765,408l-1,1l1,-1h1ZM769,407v1h-1ZM851,371l1,1v2l1,1v1l-1,1h1v3h-1l1,1v1h1v1l1,2l-1,-1h-1v-1l-3,1h-1l-1,1l-2,-1h-2l-1,1v1l-1,-1h-2l-2,-2l1,-1v-1h1l1,1h8v-1h1v-1l-3,-3v-2l-3,-3h-2v-1l1,-1h4l2,1h1ZM847,379v1l-1,-1h-2v-1h2v1ZM845,369h1h-2v-1h1ZM916,428v-1ZM916,406h-2l1,-1h-1l-1,-1v-1h1l1,1v1ZM910,392h-1v-2h1l1,1ZM909,394v-1l-1,-2h1v2ZM911,394v-1ZM807,157v-1ZM807,156v1v-1h-1l-1,-1h1v1ZM96,647v-1ZM89,654h-1v-1h1ZM899,377l-1,1v-1ZM250,692v-1ZM263,700h-1v-1h1ZM251,694h-1v-2l1,1ZM267,701l1,1v1l-1,-1v-1l-1,1l-2,-2l1,-1l1,1h1ZM339,640l2,1v-1v1h-3ZM339,642v1ZM343,647h-1v-1h1ZM330,633h-1v-1h2v1ZM331,637v1l-1,-1ZM331,706v-1h1h-1ZM335,634h-1v-1h1ZM332,710l1,1ZM331,709v-1h-1h1ZM367,713h-1v-1h-1h1v1ZM352,730l-1,1l1,-1h-1ZM309,695l1,1ZM308,695h-1ZM296,688v1v-1h-1ZM294,692h-1v-1h-1v-1l1,1v1ZM45,686h1v1l2,3l1,1v1h1v2h1v1l2,2l1,2l1,1v1l2,2v1l1,1h-1l-1,-1v-1l-1,-1v-1h-1v-1l-2,-2v-1h-1l-1,-2l-1,-1l-1,-2v-1h-1v-2l-1,-1v-1l-1,-1v-1ZM60,708l-1,-1h1ZM35,674v-1ZM57,699h1v1l-1,-1v-1ZM52,692l-1,-1v-1v1h1ZM55,696v-1h-1v-1h-1h1l-1,-1v-1l1,1v1l1,1ZM84,667v2l-1,1v1l1,1v-2h1v2h-2l-1,-1v1h-1v1l-1,-1v-1h-1v-1h1v-1h2v-1l1,-1v1h1ZM80,676l1,1v1h1v2l1,2h-1l-1,1v-1v1l-1,-1h-1l-1,-1v-1h-1v-4l1,-1h2ZM86,673v1v-1l-1,-1h1ZM86,674h-1v-2l1,1ZM84,689h1h-1v1h-1v-2h1ZM92,683v-1ZM96,683h-1ZM91,677l-1,-1h1ZM97,693v-1ZM75,673v-1ZM84,677v-1ZM86,682h-1v-1v1ZM83,679h-1v-1h1ZM66,634h-1ZM78,707h-1ZM100,705v-1ZM820,572v1h-1v-2l1,-1h1v-1l1,1l-1,1h-1ZM829,535h-1v-1h1ZM747,559h-1v-2h3v1l-1,1ZM754,560h-1v-1h1v-1h2l-1,1ZM739,557h-2v-1l2,-1v1ZM747,564h-1v-1h1ZM740,553h1v2l2,2v2h1l-1,2l-2,1h-2v-2l2,-2v-1l-1,-1l-1,-3l-1,1v-1h1v-1h1ZM746,556h-2l-1,-1h1v-1h1l1,1ZM855,385l-1,-2v-1h-1v-1l-1,-1h1v-3h-1l1,-1v-1l-1,-1v-2l-1,-1v-2h3l1,-1h1v1h2l1,1h2l1,1v1l1,1l2,-1h1v1h-2v1h4l1,1l2,1v1h1v2h-1v2l-2,-2l-1,1l-1,-1v1h-3l-1,1v1h-2l-1,-1h-1v1h-1v5l-1,1v-1h-1v-1ZM912,400l-1,-1v-2h1v2ZM556,7h4v1h1l-1,-1h7l1,1h1l1,1v-1h-1h1h-1v-1h-1h3v1h6l1,1h1h-1l-1,-1h-5v-1h-1h1h-3v-1h2l1,1h5v1h5l1,1h1h-1h2l1,1h7v1h3l1,1h4l1,1h7l1,1h2v1h3l1,1h1v-1l1,1h4v1h3l1,1h3l1,1h1h-1l-1,-1h-1h1l1,1h3l1,1h1h-2l-1,-1l1,1h3v1h1v-1v1h3l1,1h1h-1v1h2l1,1l-1,-1v1l-1,-1l1,1h1l-1,-1h-1h3l2,1h3v1h1h-1l-2,-1h-1l1,1h1h-2v-1h-1h1l2,1h3v1h4l1,1h1h-1h2l1,1h3l1,1h2v1l-1,-1h-1l2,1h-1l-1,-1h-2l-1,-1h-2l1,1h2l1,1h1l1,1h1l1,1h1l-1,-1h1v1h2l1,1l-1,-1h-1l-1,-1h1l-1,-1h1v1h2v1h2v1h1h-1h2l1,1h1l1,1h2v1h2v1h1v1h2v1h1h-1l1,1h1h-2l-1,-1v1h3v1h1l1,1h1l1,1h1l1,1h1l1,1l2,1h1l2,2h1h-1l1,1h1l1,1l-1,-1l1,1h1h-1l1,1h1h-1h1h-2v-1h-1l-2,-1h-1h1l2,1h-1h1l1,1h1v2h2v1h1l1,1h-1h1v1v-1l1,1h2l1,1h1v1h1h-2h2v1v-1l2,1l1,1h1l1,1h1v1h1l1,1h-1h2v1l1,1h-1h2l1,1h1v1h1l1,1h2v1h1l2,2l4,2l2,2h-1h2v1l2,1h1l-1,1l-1,-1h1l1,1h-2v-1h-1v-1h-1l2,2h-1l-1,-1h-2v-1l-1,-1l1,1h-2l-2,-1l-1,-1h-1v-1v1h1v2l-1,-1v1h1h-2v-1h-2v-1h-3l-1,-1h-1v-1h-2v-1h-2v-1h-3l-1,-1h-1l-1,-1h-1l-1,-1h-2l-2,-1l-1,-1h-1l-1,-1h-1v-2h-1v1h-1v-1h-1l-1,-1h1h-1v-1l1,1h1l-1,-1h-3l-1,-1h-1h1l2,1l1,1h-1v-1v1h1l2,2h-1v-1h-1l-1,-1h-2l-2,-1l-1,-1h-1l-2,-2l1,-1h-1v1l1,1h-2l-1,-1l-2,-1h-1l-1,-1v-1h-1v-1l-1,-1v1h1l1,1v1h1v1h-1l-1,-1h-1v-1h-1l-1,-1h1h-3l-1,-1l-2,-1h-1v-2l1,1l1,-1l2,1v-1h-5v1h1v1l-1,-1h-1v-1h-1l-1,-1h2v-1h-1v1h-1l-1,-1v1h-1v-1h-1v-1h2l-1,-1h-1l-2,-1h1h-1v-1v1l-1,-1h-1l-1,-1h-1v-1h-9l-1,-1h-2v-1h3l2,1h1l-1,-1h-2v-1h-5l-1,-1h-1v-1h-1l1,1h-2v-1h-2v-1h-3v-1v1h2l1,1h2v1h1v1h-2v-1h-2l-1,-1h-1l-1,-1h-1h1h-2v-1h-1l-1,-1h-3v-1h-4v-1h-2l-1,-1h-3v-1h-3l-1,-1h-3l-1,-1h-3l-1,-1h-11v1h-1v-1h-1v1h-1h2h-6l-1,-1h1h-4v-1v1h-1v-1h-1l1,-1h2l-1,-1h-3v1h-2l-1,-1h-6v-1h-1v-1h1h-1h1v-1h-1h1l1,-1h-1l-1,-1h-1l-1,-1h-5l-1,-1h-1v-1h-1h1h-1v-1h1v1h1v-1h-4v-1h-1h1h-1l-1,-1h1l-1,-1h1l1,1h1l-1,-1h-1h1l2,1h2v-1h-1h2l-1,-1h-5l1,-1h-2v1h-1l-1,-1h1h-1h1h-1v-1h-1h1h-2Z"/>
<path class="sl" d="M658,42h3v1h1v1h-4v-1h-2v-1h-2l-1,-1h3ZM663,43l-1,-1h-2v-1h1v1h2ZM649,38v1l-1,-1h-1h1ZM634,33v1h1h-1v-1h-1ZM582,25h-1l-1,-1h2ZM567,11h-1l-1,-1h-1h1ZM663,29v1h3v1h1h-1h1v1v-1h-3v-1h-1h1h-1l-1,-1ZM570,7h-1ZM586,9h1v1v-1h-2ZM602,12h1h-4v-1h-1l1,1h2ZM618,15v1l-3,-1h-1l-1,-1l2,1ZM623,17h4v1l-1,-1h-2ZM605,12v1v-1h-1ZM706,51h-1ZM734,75l1,1l-1,-1h-1v-1ZM652,38v1v-1h-1ZM784,349h3l1,-1v1h1l3,-1v1h4v1h1l1,1l2,1v1h5l4,2l2,2h2v-1v1h2v1h1v1h-1h1v1v-1l2,1v1l1,-1l1,1h2l2,1h2l1,1h-1l1,1h-1v1h7v1l1,1h2l1,1l-1,1h-1l-1,1h-1v1h-2v1h-2l-1,-1h-3l-2,1h-2v1h-3l-2,1l1,-2l2,-3v-1l-2,-2h-3l-1,1l-2,-2h-1v-1h-1l-1,-2v-1l-1,-1h-4l-4,-1h-2v-1h-1l-1,-1v-1v1h-4l-1,-1v1h-1v-1l-3,1v-1h-1l-1,-1h1l1,-1v-1h-7v1l-1,1h-1v2h-1l-1,1v-1v1h-2v2h-2l-1,1v1v-1l-1,-1v1h-2l2,-1v-1h1l-1,-1v-1l1,-1v-2h1l4,-3h1l5,-2l1,-1ZM812,356h-1v-1h-1h2ZM809,353v1v-1h-1v-1ZM805,352h1ZM811,355h-1v-1h1ZM783,362l-1,1h-1l-1,1v-1h-1v-1v1h1v-1l-1,-1v-2l2,1l1,1ZM801,351h-2v-1l1,1ZM833,523v-1ZM583,779l-1,1v-1ZM774,813h-1h1v-1ZM737,917l-6,6l-2,1l-4,4h-3v-1v1h-6l1,-1h3v-1h1v1h-1h2v-1h-1l2,-2h1v-1h1l-1,1v1h-1v1h-1h3l-1,1h1v-1h1l-1,-1v-1l1,-1h1l1,-1h2v-1h1h-2l-1,1h-1v-1h1l1,-1h1v-1h2l1,-1h1v-1h1v1ZM728,928l-1,1h-1h1v-1l-1,1h-1v-1h3v-1ZM763,871h-2v-1l2,-1l1,-2v-1h1v-1h1l1,-1v-1h1v-1h2v1h-1v2h-1v1h-2v3h-1l-1,1h-1ZM733,903v1l-2,2h-1v1h-1v1h-1v-1h1v-1h1v-1h1h-1l-1,1h-1v1h-2v-1h2v-1h1v-1h1l1,-1h1v-1h1l1,-1h1ZM731,902h-1l3,-3h1v-1h1l-1,1v1l-1,1h-2ZM715,922h3v1h-1v-1h-2v-1h1ZM736,900h-1l-1,1v-1h1v-2l1,-1h2l-1,1v1h-1ZM718,923v1h1v1h-2v1h-1v-1h-1v1h-1l1,-1v-1h-1h1l1,-1v1h1v-1ZM720,916l-1,1h1h-1l-2,2v-1l2,-2ZM721,928h4l-2,1h1h-1v2h-1v-1h-1h1v-1l-1,1v-1l-1,1v1h-1v-1h1h-1v-1h1ZM720,925h1v1h-1l-1,1v-1h-1v1h-1v-1l1,-1h1ZM758,877h-1v1h-1v2h-1v2h-1l-1,1h-1l1,-1v-3h1v-1h1l1,-1v1v-1h1l1,-1h1h-1h1v1ZM760,879h-2v-1h1l1,-1h2l-1,1h-1ZM750,881v-1h1ZM723,911l-1,1v-1h1v-1h1v1ZM732,902l-2,2h-1l1,-1v-1h3ZM737,897h-1h1v-1h1h-1ZM757,873h1ZM757,879v1h-1v-1h1v-1h1ZM723,914h-1l-1,1h-2l-1,1l1,-1h1l1,-1h2v-1ZM726,909l-2,1v-1h1v-1h2v1ZM760,874l-1,1v-1ZM721,917v-1h1v1ZM750,885h-2l1,-1h1v-1h1v-1h1l-1,1v1h-1Z"/>
<path class="sl" d="M722,932v-1h1ZM729,928h1ZM717,929h1v1h-2l1,-1h-1ZM724,931h-1h1l1,-1h-1ZM436,132v1h2v1l-2,1h2v-2h2l1,-1v1h-1v1l-1,1v1l-1,1v1h-4v-1h2l-1,-1h-1v-1l-1,-1v-1l1,-1h1ZM439,138v2h-1v1h2l-1,1l1,1v1h1l-1,1l-1,-1v-1l-2,-2h-1v-1h1v-1h-2v-1h3ZM460,154l6,2h3v1h1v1h1l1,2v1l1,1h1v1h2l1,1h1v1h1v1l1,2v-1l1,1v1h-5l-1,-1h-2l-1,-1h-1l-1,-1h1l2,-2h-1v1h-4l-1,-1h1h-1v-1h-1v-1v1v-1h-3v-1h1v-1h-1v-1h-3v-1h-1l-1,-1h-1v1h-1v-3h2v1v-1h1h-4l-1,-1v-1h4ZM517,25h1v1h1h-6v-1h3ZM517,27h1h-1v1h1v1h-5v-1h-1v-1h4ZM508,29h1h-2v1h1h-1l1,1h-2v1h-2v-1h-2v1h1h-1v1l-1,-1v1l-1,1h-1v-1h-5v-1h3l1,-1h1v-1h1l1,-1h5v-1h1ZM524,33h4v1v-2l1,1h2v3h-7l-2,1h-2l-1,1h-6v-1h2l1,-1h4v-1h-1v1h-2v-1h-1v1h-2v-1h-2l1,1h-7l-1,-1h4l1,-1h1h-1v-1h-3l1,-1h1l2,1v-1h-2l1,-1h1l1,1h3l1,1h2v1h6l-2,-1h-1h1v-1h-2v-1h1v-1h2v1l1,1ZM514,44h3v-1h3l2,1h1l-1,1h-1h3l1,-1l-1,-1h3v1h2v1h1l2,2h1v1v-1h1l-2,-2v-1h-1l-1,-2v-1l1,1h5v1h1v1h1l2,2h1v1h1l1,1v1l2,1l1,1h3l1,1h3v1h3v1h1l-1,1v-1h-4v1h-1v1l1,1v-1h1v-1h1v1h1l1,1h-1l-1,1h-8v-1h-4v-1h-2v1l-1,1h-3l-1,1h-2l-1,1h-11l-1,-1v-2h-9l-3,-3h2l3,-1h11l-1,-1h-5l-1,-1v1h-10l-2,-1v-1h3l1,-1h4v-1h-1l-3,1h-4v-1h-2v-1l1,-1h1l-1,-1l1,-1h1l1,-1h2l2,-1h4v2ZM501,39h1v1v-1h6l2,1l1,1v1h-2l-2,1h-2l-2,1h-1v1l-1,1h-2v2l-1,1h-4l-1,1h-3v-2h-1l-2,-1h-3v-1h1v-1h2v-2h1v-1h1l2,-2h-1l-1,-1v-1h10l1,1ZM547,12h3v1l1,-1h6l1,1h1v2h1v-1h1l3,3h-1h1l1,1h-1h2l1,1h-1v1h-1h1v1v-1h1l1,1h-4v1v-1h6v1h-1h1l2,2h-2l1,1h2l-1,1h-4v1h1v-1h4v1h4v2h-3v-1h-1v1h-1v-1h-1v1h-2l-2,-1l2,1l-1,1h-1l-2,-1h-1l1,1l-1,-1h-2l1,1h-1l-1,-1h-1h1v1h-2l-1,-1v-1h2v-1h1h-3l-1,-1h-1v-1h2v1h3l2,1l1,-1v-1h-1h1v1h-4l-1,-1v-1h1h-1l-2,-1l1,1v1h-1v-1l-1,1h-1v-1h-1v-1h-1h2v-1l1,1h2v-1h1h-4l-1,-1h-4l-1,-1h-2v-1h5l1,1h1l-1,-1h-2l1,-1h1v-1h1h-3v-1h-1l1,1h-1h1v1h-3v1h-3v-1h-1h1v-1h1h-1l-1,1v1h-1l-1,-1h-1h2v-1h1h-2v1h-4l1,-1h-1h1h-5v-1h2v-1h1l1,1v-1h1v1h1v-1h-2v-1v1h3l-1,-1h-1h3l-1,-1h-1h5v1v-1h-1h1l-1,-1h2ZM544,27h2l1,-1h1v1h-5ZM558,35h1v1h-3l-1,-1h-4v-2h4l1,1h1ZM547,39h8v1h-1h1v1h-1v1h3l1,1h2v1h1v1l1,1h-1l-1,1h-2v-1h-1h1l1,1v1h-3v-1h-1l-1,-1h-2l-1,-1h-4v-1h-2l-1,-1v-1h2l1,1h2v-1h1h-2v-1h1h-4v-1h2v1v-1h-1v-1h2Z"/>
<path class="sl" d="M620,70h1h-1v-1h2v1h3l2,1h1l1,1h3l2,1l1,1v1h1l1,-1h2v1h1h-1h2v2h-2l-2,-1h-2l-1,-1h-3v-1l-1,1v1h1l-1,1v2h-1v1h-1l-3,-3h-1l-1,1h-3v-2h1v-1l-1,-1h-1v-1l-1,-1v-1l-2,-1v-1h-1v-2h1v1h2v1h1ZM544,31h2v1h1v1h-1h2v1v-1l-1,1h1l1,1h-1v-1v1h-5v-1h-1h1v-1h-2l-1,1h-3v-1h2v-1h-2l-1,-1h2l1,1h1v-1h1h-3l1,-1h1l1,1h1v-1h-1h3ZM526,23h1l1,1h5l1,1h1v1h2v1h-2l-1,-1h-8v-1h2v-1l-1,1l-1,-1h1h-4v-1h1ZM536,18h2l1,1h4v1h1v-1h-1h2l1,1h2v1h5v1l-1,1h1h-2v-1v1h1v1h1h-1h1v1h-1l-1,-1h-1h1v1h1h-6v-1h-4v-1h1v-1h1h-5v1v-1h-1h1v-1h-1v1h-2l-1,-1h-1h3v-1h-4v-1h1h-1v-1h1h-1v-1h1l1,1ZM549,29h3v1h2v-1h3v1h-1h5l-2,1h-1h3l1,1v-1l1,1h1l1,1v-1h-1h7v-1h4v-1l1,1h6v1h1l-1,1h1l1,-1v1h1h-1v1h-1v1h-1l-1,-1v1l-1,-1h-2l-1,-1v1h2v1h-8l-1,1v-1h-1l-1,-1v1h-1h1l-1,1l-1,-1h-5l-1,-1h-1v-1h-1v-1h-1l-1,-1h-2l-1,-1v1h-5v-1h-1h1h-2v-1h-1h3ZM540,25h3v1h1h-2v1h-1v-1h-2l-1,-1h-1l-1,-1h4ZM562,37h1v1h2l2,-1l1,1h1v4h-3l1,1v1l1,1h-3l-2,-2l-2,-1l-2,-2h-1v-1h1l-1,-1h1l1,-1h1ZM567,54h1l1,1h3v1h1v1h2l-1,1v1h-1l-2,-1v1h-1l-1,-1h-2v-1l-1,1h-1v-1h-3l1,-1h2v-1h-1h1l-1,-1v-1h1l1,1ZM798,165l1,1v1v-1h1v-1h-1v-1h-1v-2h1v1h2v1h1l-1,1l1,1h-1v1h-2v1v-1h-1l-2,-2v-1l-1,-1l-1,-3v-2l2,1v1l1,2h1v2ZM781,174h-1l-1,-1v-1h-1v-1h-2v-1h-1v-1l-4,-4v-1l-3,-3h-1l-1,-1v1h-1v1h-1v-1h-1v-1h-1v4l1,1v1l1,1v2l1,1v2h1l-1,1l1,1v1h-1v1l-1,-1v1l1,1l-2,1h-5l-2,1h-4v-1l2,-2v-3l-1,-1l1,-1v-2h1v-1l4,-4v-6l-1,-1h1v-4l1,-1v-1h1l1,-1l1,-2h1l1,-1h5l2,1v1h-1h1l2,2l-1,1l1,1h-1v2l-1,-1h-3v1l-1,-1v1h4v1l1,1h1v-1l1,-1v1h2v1l1,1v3l1,-1h1v1l3,3h1v1h4v1l1,1h2v1h1v-1h2v1h1v-2h1v1h2l1,1h1v1h1v1h-1v2h-1v1l-1,1h-1v1h-1h1v1h-2v-1v1h-1l2,2h-1l1,1h-1l1,1v2h-1v1h1h-1v1h-1l-2,-2v1l-1,-1l-2,-4v-1h-1v1v-1l1,-1v-1v1h-1l1,-3l1,-1v-1h1v1h1l1,1l-1,-1v-1h1v-1h-2l-1,1h-2v-3h-1l-1,-1l1,1v2l-1,1v1l-1,1l-1,-1v2h-2ZM781,128v2h2v1h1v2h1v2h1v1l1,1v1h1v1h1v1v-2h-1v-1h3v2h1v1h2v-1v1h1v1l1,1v-1h-1v-1h1v1v-1l-1,-1h1l1,1l-1,-1h3v1h1v2h1v1h1l1,1v1v-1h1v-1v1h1v2h1v1l1,1v1h1v1l1,-1h-1l-1,-2v-1h1v1l1,1v1h1v1h1v-1h-1v-1v1h1v1h1l1,2l2,2v1h1h-1v1h-1l-1,-2l-1,-1v1h-1v-1l-1,-1v-1h-1l-2,-2h-1l1,2h1v1l-1,-1l1,1h-1l1,1v1l1,1h-1v1h-1v-1h-1l1,-1v-1l-1,-1v-1h-1v-1v1h-1h1v1h-2v-1l-1,-1v2h-6v1h-1v1l-1,-1h-1l-1,-1v-3l-1,-1l1,-1h-2v1h-1v-1h1l-1,-1v-1l-1,-1h1l-3,-3h1l-3,-3v-1l-2,-2v-1h-1v-2h-1v-1l-1,-1v-2h1v-1h1Z"/>
<path class="sl" d="M590,47h1v-1h2v1h1l-1,-1h-1v-1h-1v-1l-1,1v-1h-3v-1h1v-1h-1h1h-3v-1h-2v-1h1h-2v-1h1v-1h1v-1h4l1,1h2l1,1h1l1,1h1v1h1v1h1l1,1v-1h1l-1,-1h-1h3l1,1h1h-1l-1,-1h1l-1,-1h-1h1v-1h3l1,1v-1h1l1,1h2v2h1v-1h2v1h1v1h1v1h1v-1h-2v-1h2v1v-1h1v1h1l-1,-1h5v1h1v1h2l-1,-1h1v1h2v1h-1l1,1v-1l2,2l-1,-2h-1v-1h5l1,1v1h-1v1h1v-1h2v1h1l-1,-1h1h-1v-1l1,1h2l1,1h1h-2v1h-1h7v1h1h-4v1v-1h1v1h2l1,1h-1h1l1,1h4l1,1h1h-1v-1l1,1h1v1h1l-1,-1h2l1,1h1h-1l-1,-1h1v1h1v-1h1v1h3l1,1h-1h3l2,2v-1h4l1,1h1h-2l2,1h1h-2l1,1h2v1h-1h2v1h1h-1v1v-1h-1l-1,1h2l2,1l1,1v1v-1h-3l-1,-1l1,1h-2v-1h-2v-1h-2v-2h-1v-1h-1l1,1v1h-2v-1v1l-1,-1h-1l-2,-1h-2l1,1h1h-2l1,1h3v1h-2l-1,-1h-1l1,1h2v1h2v1v-1h2v1h1l1,1h2l1,1h1h-1v-1v1h4l1,1h2v1h-1h2v1h3l1,1h1v1h1l1,1l-2,-1h-1l-1,-1v1h1l1,1h1v1h3v1h-1l2,1h-2l-1,-1h-3l-1,-1h-1h1v1h1h-1l-1,-1h-1l-2,-1h-1l-1,-1v1h1l1,1l-3,-1h-1l1,1h2l1,1h2v1h3l1,1h2l1,1h2l2,2h-4v-1h-6l-2,-1l-1,-1h-2v1h-1l-1,-1h-2v-1l-1,1l-1,-1h-2l-1,-1h1v-1h-3l-1,-1v1l-1,-1h-1l-1,-1h-2l-1,-1h-4l-1,-1h-1l1,1h1v1h-2v-1l-1,1h1h-1l-1,1h-5v-1h-2v-1l-1,-1l1,-1h-1v-1h4l1,1h2v1h1l-1,-1h-1l-1,-1h3v-1h1v-1h-2v-1h-2l-1,-1h-1v-3l-1,-1h1l-1,-1h-1l-2,-1l-2,-2h-2l-1,-1h-3v-1h-1h1l-1,1l-1,-1h-2v-1h-2v1h-1v1v-1h-2v-1h1v-1h-3l-1,-1h-1h1h-2v-1h-3l-1,-1h-4v-1h-1v1h2l1,1h1l-1,1h-3l-1,-1h-2v1h3v1l-2,-1h-1v1h-1l-2,-1h-6l-1,1l-1,-1h-2v-1h-2v1h1h-5v-1h-3v-1h-1l-1,-1h3l1,1h2v-1h-6l-1,-1h-2l-2,-2v-1h-1v-1h-1v-1l-1,-1v-2h1l1,-1h4l1,1h-1v1l1,1v1h1l1,1h1v1h2v1h1l2,1h2l1,1h-2ZM778,146h-4l-3,-1l-1,-1h-1l-3,-1v-1h5l1,1h1l3,1l1,1h1ZM786,163h4l1,-1h1v3h1v1h-1l-1,-1v1v-1h-1v-1h-1v1h-1l-1,-1h-2v-1h-2v-2h-1v-1h1v1l1,1h1v1ZM640,80h1v2l-1,1v1l-1,-1l-1,1v-1h-2v-3h3ZM650,81l1,1h1l1,1v1l1,1h-3v-1h-1v-1h-1v-1h1ZM629,55h2l1,1l2,1l1,1v1h-4l-1,-1h-1l-2,-2v-1h1ZM591,37h1l2,-1l2,1h3v1h3v1h-4l-1,1h-1l-1,-1h-2v-1h-3v-1h-1h1ZM692,133h-6l-1,-1v-1h3l2,1h1v1ZM683,113v-1h-1h1ZM682,113h1v2l-1,-2v2l-1,-1v1h-1v-3l-1,-1l1,1v1h1l-1,-1v-1h1v1h1ZM679,113h-1h1v-1ZM555,27v1l-2,-1h-1v-1h1v1h1ZM530,29h-3v-1h-1v-1l1,1h2v1ZM531,21h1v1h-1v-1h-1ZM537,43h-1v-1h-1l-1,-1h-2v-1h6v2ZM537,32v1h1h-4v-1h-1h1v-1h1v1h1Z"/>
<path class="sl" d="M532,31h2l-2,1v-1h-1v-1h1ZM504,34l-1,1l-1,-1h-1h1l1,-1h2v1ZM511,28h-1l-1,-1h3v1ZM445,131v-1h1ZM441,146v-1ZM448,134h-2l1,-1h1ZM449,139l-2,-2h-1v-1h1l1,1h1v1ZM447,129h1l1,-1v-1v1l-1,1ZM455,140v3l-1,1v-3l-1,1v-1h-1v-2h1v-1h1v1h1ZM465,163h1h-1v-1ZM476,162h1l-2,-1l-1,-1h1l1,1ZM463,161h-1l-1,-1v-1h1v1h1ZM471,158l-1,-1v-1h1v1h1ZM453,143l-2,-2h1l1,1ZM457,149h-1v-1h1ZM456,143h-1v-1h1v-1h1l-1,1ZM451,140v-1h-1v-1h1v1ZM452,139h-1l1,-1ZM480,167l-1,-1h1ZM812,177v1l-1,-1ZM801,168h-1v-1v1ZM788,157l-1,-1v-1h1h-1v1h1ZM776,155h1v1h-1ZM776,154v1ZM789,179h-1v-1ZM785,177l-1,-1ZM754,175v1h-1v-2ZM753,175h-1v-1h1ZM758,165h-1l1,-1ZM786,132h-1ZM795,138v1h-1h1l-1,-1ZM779,125v1v-1h-1ZM795,137l1,1h-1v-1v1ZM808,151v-1h-1h1ZM689,75h1l1,1h-2ZM695,88l-2,-2h1l1,1ZM676,78h-2v-1h-2l-1,-1h2v1h3ZM697,81h-1l-2,-1h-1h3v1ZM693,79h1h-2v-1h1ZM699,94h1h-1v1v-1h-1ZM704,86h-1v-1h-1h1ZM739,106h1h-1v-1ZM728,98h1v1h-1l-1,-1ZM638,48h-1v-1ZM664,56v-1h-1h1ZM580,30h-1v-1v1ZM677,110h-1ZM674,106h-1l1,1l-1,-1ZM678,111v-1ZM692,130v-1ZM701,137l-1,1v-1h-1h1ZM481,166l-1,-1h-1v-1l1,1ZM472,158v-1v1h1ZM637,56h-1l-1,1v-1h-2v-1h3v1ZM650,76h1l1,1v1h-1l-1,-1h-1l-1,-1h1ZM553,32h-1ZM662,95h-1ZM662,95h-1v-1h1ZM558,42h-1v-1h1ZM551,37v-1ZM551,39h-1v-1h2v1ZM587,54h1v1v-1ZM587,55v-1h-1h1ZM665,79h-1l-1,-1h2ZM631,54v1l-1,-1h-2v-1h1l1,1ZM662,89h-1ZM622,56h-1ZM654,76h-2l-1,-1h2ZM612,50h1v1h-1h1h-3v-1h1ZM616,50v1h-1v-1h1h-1ZM648,74h-1v-1h1ZM621,65h-1ZM618,54h-1v-2h-1h1v-1l1,1v1ZM621,52h-1v-1h-1h2ZM593,51v-1l1,1h-2v-1ZM621,67h1v1h1h-2l1,-1h-1v1h-1v-1h-2v-1h2v1ZM604,60h-1v-1h-1v-1h-1h2l1,1ZM620,69h-1v-1h-2v-1h-1h2v1h2ZM607,88h-1l1,-1ZM537,31v-1h1ZM530,26h-1ZM533,27h-1h2ZM559,30h-1v-1h-1h1ZM551,33h-1v1h-1v-1h1ZM556,36h-1ZM498,34h-1h1v-1ZM513,31h-3l1,-1h2ZM535,36h-1v-1h-1l1,-1h1v1h1ZM561,58h-1v-1h-1h2ZM561,57h-1ZM556,51h-1ZM572,54h1v1h-1v-1v1h-1v-1ZM557,56h-1v-1h1ZM557,59h-2l1,-1h1ZM549,60h-2v-1h2ZM540,65l-1,-1v-1l1,1ZM535,62h1v1v-1ZM540,66h1v1ZM535,62h-1ZM443,55h-1h2ZM971,522h1v-1h2v8h-1v4h-1v-1v2h-1v-1v2l-1,1h-1l-1,1v-4l-1,-1l1,-1l-1,-1v-3l1,-1v-3l1,-1Z"/>
<path class="sl" d="M946,709h-1h1v-1ZM924,738l1,-1v-1v2ZM941,716l1,-2l-1,1ZM983,541v1v-3h1ZM981,621v1v-1l1,-1ZM980,625v-1h1ZM983,527v1ZM971,518v1l-1,1v1h-1v-2l1,-1ZM969,504l-1,1v-3ZM968,522l-1,2v-2ZM971,521v1l-1,-1l1,-1v-1l1,1v1ZM969,520v1h-1v-3l1,-1v2ZM969,517v1v-2l1,-1v1ZM964,535v-2l1,-1v-5h1v4l-1,2v1ZM920,748l-1,1l1,-2l1,-1v-1v2ZM752,396v-2h1ZM754,400l-1,2v-2h1v-1ZM924,417h-1v-2l1,1ZM807,337v1v-1l1,1v1h1v2h-1l-2,-2v-1l-1,-1h1ZM805,323v-1h-1h1v-1l-1,-1v-2l-1,-1l-2,-1l-1,-1l-1,1v-1h2l2,2h1l1,1v2l1,3ZM841,359v2h-2l-1,1v-1l-1,-1h1v-1h1v1h1v-2h1ZM805,333l1,1v2h-1v1l-1,-1v-1l-1,1v-1h-1v-1v1l1,-1h-1v-5l1,1v1h1ZM796,317h3l-1,1l-2,1h-1l-2,-1l2,1v-2ZM807,330l-1,1v-1ZM831,347h1l-1,1l-1,-1v-1v1ZM826,336v1l-1,-1ZM832,351l-1,1v-1l1,-1v-1h1v-1h-1v-1h1v3ZM810,326l1,1h1l2,2v3l1,1l-2,-2h1v-2l-2,-2h-3v-1ZM821,342h-1l-1,-1h-1l2,1ZM827,346l-2,-1h-1v-2l-2,-2v-1l1,1v1l3,3ZM821,336h-1v-1h-1l-1,-1v-1l-1,-1h1l1,2ZM838,349h2v1l-1,-1h-2ZM841,356l-1,1v-1ZM47,711v1l1,1v1l-1,-1v-1Z"/>
<path class="sp" d="M48,714l-1,-1v-2"/>
<path class="sl" d="M84,757v1v-1v1ZM725,928l4,-4l2,-1l6,-6v2h-2v1h-1h1l-1,1v4h2l-1,1h-1l-1,1v-1v1h-8ZM738,925h1h-2v1h-1h1v-1ZM829,838v1ZM907,385h-1v-1h1ZM905,381v-1ZM737,940h-1v1v-1v1v-1v1v-1ZM458,998h1l4,1v-1h-9l-1,-1h-8l-3,-1h-1h1h-4l-1,-1h-5l-1,-1l2,1h8l1,1h8l-1,-1h-2h1h-1h2l1,-1l1,1h5l1,-1h4l1,1h1v-1h10v1h28l1,-1h13l-1,1h-1h6v-1h3v1h-2h18l2,-1v1h3l1,-1h1h-1h1v-1v1h-2v-1h-1l1,-1h2v1h1v-1h2h-6v-1h28l1,-1h5v-1h2l-1,1h-1h12v-1h4v-1h2v1h2l1,-1v1h-1h2l1,-1h5l1,-1h5l1,-1h2l3,-1h3l4,-2h2l1,-1h1l2,-1h2l1,-1h1l1,-1h1l1,-1h4v-1h2l1,-1h2l1,-1h2v-1h2l1,-1h2v-1l-1,1h-1h1v-1h3v-1h1h-1v1h1v-1h2l1,-1h2v-1h2l1,-1h2l1,-1h2l1,-1h2v-1h2l1,-1h2l2,-1h1v-1h1l-1,1h1l1,-1h2v-1h2l1,-1h1l2,-1h2l1,-1h1l1,-1h2l1,-1h1v1h-1l1,-1l-1,1h-2l-1,1h-2l-2,2h-2l-1,1l1,-1l-1,1v-1v1h-3v1h-1l-2,1h-3v1h-2l-1,1h-1l-1,1h-2v1h1v-1h1l-1,1h-1h1h-2l-1,1l1,-1h-1l-1,1h-2v1l1,-1h-2l-1,1h-1l-1,1h-3v1h-3v1h-2l-1,1h-2l-1,1h1l1,-1v1h-3v1h-1h1l1,-1h1h-1v1h-2v1h-2l-1,1h-1l-1,1h-2v1v-1v1h-2l-1,1h-3v1h-2l-1,1h-3l-1,1h-2l-1,1l1,-1l-1,1h-4v1h-3v1h-3l-1,1h-4l-1,1l1,-1l-1,1h-4l-1,1h1h-3l-2,1h-4l-2,1h-4l-2,1h-4l-1,1h-7v1h-1h2h-4l-1,1h-7l-1,1h-7v1h-1h1v-1h1l-1,1h-1h2v-1v1h-8l-1,1h-11l-1,1h-15l-1,1h-44l-1,-1h-15l-1,-1h-2Z"/>
<path class="sp" d="M456,998h-1M558,997h-7l-1,1h-11l-1,1h-15l-1,1h-44l-1,-1h-15l-1,-1h-2"/>
<path class="sl" d="M636,978h-1h1l-1,1h-2l-1,1h-1l-1,1h-2l-1,1h-1l-3,1l-2,1h-2l-2,1h-3l-1,1v-1l-1,1h-2l1,-1h6v-1l-1,1h-2l2,-1h1h-1h1h-1l-2,1h-3l1,-1h5v-1h4l1,-1h3l1,-1h3v-1h-1h1l1,-1h1l1,-1h2l1,-1h2ZM558,989h-1v1h1l1,-1v1l1,-1h1l-1,1h1l2,-1h1h-1l-1,1h-15l6,-1v1l1,-1h3ZM499,993v1h-7v-1h6ZM484,993h5l1,1h1h-6l-1,-1h-1ZM444,997h-2l-2,-1h-6v-1h-1h1v1h7l1,1h1ZM568,995h5l1,-1h6l1,-1h-1l-1,1h-5l-1,1h-4Z"/>
<path class="sp" d="M579,994h-5l-1,1h-5"/>
<path class="sl" d="M693,959h1v-1h1h-1v1h-2v1v-1l-1,1l1,-1h1h-1h1l1,-1h1h-1ZM704,955h-2l-1,1h-1h1v-1h2ZM708,951v1h-3v1h-1h1h-1l2,-1h1ZM680,962l-1,1l1,-1h1h-1v1h-3v1v-1h2v-1h2ZM682,962h-1h1l1,-1h1l1,-1v1h-2v1ZM651,973h-2l-1,1h-1h1v-1h1l2,-1h2l1,-1l2,-1h1l-1,1h-2v1h-3ZM620,982h-1l-2,1h-2l-3,1v-1h5v-1h1l-1,1h1l1,-1ZM623,980v1h-1v-1ZM604,987h-1l-1,1h-1v-1h4ZM570,990l-1,1l1,-1h1l1,-1h1v1h-2ZM718,947l-1,1l1,-1h1ZM700,956h1ZM691,960h1l1,-1l-1,1ZM703,955h-1h1v-1h1ZM696,958h-1ZM647,977l1,-1h1l1,-1v1h-2ZM698,955l1,-1v1h-1v-1h1ZM629,980h-1v-1h1ZM563,990h-1h2ZM539,992h-1ZM501,994h-1h1h-1h1v-1h1l1,1h-1ZM483,994h-1ZM719,947h1ZM704,953h-1ZM647,977h-1ZM656,974h-1ZM642,979v-1h1ZM640,979h1ZM702,954h-1h1v-1ZM696,956h-1ZM689,959h1ZM685,960h1ZM677,963v1l1,-1h1h-1ZM691,957h1l1,-1l-1,1ZM666,967l-1,1v-1h2l1,-1v1h-1ZM662,969h-1l1,-1h1h-1ZM656,971h1ZM650,973h1ZM626,981h1h-2ZM603,988v-1h1ZM565,990h-1ZM508,994h1ZM471,994h-1ZM474,994h-1h2ZM447,995h-1ZM447,994h-1ZM449,996h-1h2ZM446,996l-1,-1h1ZM444,995h1ZM446,996h1ZM442,995h-1ZM447,995h-1ZM448,995h-1ZM445,996h-2l-1,-1h1v1h1ZM452,998h-1v-1h-1h1ZM446,996h-2l-1,-1h-1h3v1ZM898,378l1,-1v1ZM68,603v-1Z"/>
<rect class="sh" x="135.5" y="394.5" width="1" height="1"/>
<rect class="sh" x="178.5" y="549.5" width="1" height="1"/>
<rect class="sh" x="82.5" y="531.5" width="1" height="1"/>
<rect class="sh" x="82.5" y="531.5" width="1" height="1"/>
<rect class="sh" x="81.5" y="525.5" width="1" height="1"/>
<rect class="sh" x="47.5" y="352.5" width="1" height="1"/>
<rect class="sh" x="128.5" y="293.5" width="1" height="1"/>
<rect class="sh" x="128.5" y="293.5" width="1" height="1"/>
<rect class="sh" x="135.5" y="394.5" width="1" height="1"/>
<rect class="sh" x="135.5" y="394.5" width="1" height="1"/>
<rect class="sh" x="834.5" y="383.5" width="1" height="1"/>
<rect class="sh" x="166.5" y="493.5" width="1" height="1"/>
<rect class="sh" x="164.5" y="488.5" width="1" height="1"/>
<path class="sw" d="M722,202l1,1v1h1l1,-1h1v1v-1l1,-1h1v-1v1l1,-1h-1l1,-1v-1l1,-1h2l2,1h2v-1h-1v-1h1l1,-1h4v-1h-2v-1h1v1l1,1v2h-1v1l-2,2v1h-1l-3,3h-1l-1,1v1h-3v1h-1l-1,-1v1v-1l-1,1h-1h1l1,-1h-2l-1,-1h-2v-2h1l-1,-1ZM740,195v-1ZM726,205v1ZM627,151l1,1h-1v-1h-1v1l1,1h-2l-1,-1v-2h-1v-2h1v-1h-1v1h-1v-1l1,-1h-1v-1h-1v2l-1,-1v-1l-1,-1v-1h-1v1l-1,-1h1h-1v1h-2v-1h-1v-1l-2,-1l-1,-1l-2,-1v-1l1,-1h-4v-5h1l1,1v-1l1,1h1l-1,-1v-2h1h-1v2h1v-1h1l-1,1h1l1,1v1h1v1l1,1h1v1h1v1l4,4v1h1v1h1v1l1,1h1v1h1l1,1v1l1,1ZM615,142v-1l-1,-1v1ZM624,148v1ZM544,86l-1,1v-1h-7l-1,1h3v-1h3v1h-3l-1,1h-2v1h-1v1h1h-1l-2,2l-2,1h-3l-1,1h1v1h-3l-1,1h-6l-2,-1h-4v-1h-1h7v-1h1v-2h4v-1h-2v-1h-1v-1h-2v-1h-1v-1l1,1h2v1h4v1h2v1h5l1,-1h1l2,-2v-1h1l2,-1h5l1,1ZM534,90v-1h-1v1h-1l-1,1h-1v1h2v-1l1,-1ZM749,183v1l-1,1v1h1v1h1h-1h1l-1,1v-1v1h1v1h1v1h-1l-1,1v1h-9l-1,1h-1v1h-3v-3l1,-1v-1h2v-1l1,1v-1h2v-1h2v1h1v-1v1h2v-1h-1h1v-1h-1v1h-1v-1h-1h1v1h-1v-1l-1,1l1,-1h2v1l1,-1v-1h1l1,-1ZM749,187v-1ZM748,185h-1v1h1l-1,-1ZM508,69h1h-1v2h-1l-1,1h1v1h-2l-1,-1h-3v1h-1l1,1h1h-2v1h-2l-1,1h-1l-1,1v-1h1v-1l2,-1h1v-1h-3l-1,1h-1v1l-1,1h-2l-2,-1h-1l2,-1v-1h1l1,-1l-1,-1h4l-1,-1h-5v1h-3l-1,-1h-1v1h-2v-1h3l3,-1h4l1,-1h3l2,-1h5v1h-3v1h-1l1,1h5l1,-1h1v-1h1v1h-1ZM722,202v-1h1l-1,-1h1v-1h-1h1v1h2v1h-2v1ZM783,317v2h-1l-2,-2v-1h1v-1h1v1h1ZM783,452v1l-1,1h-1v-1h-3v-1h-2v-1l-1,-1v-2h-1v-3h2v1h2v1h1l3,3v1ZM871,676v-2h-1v-1h-2v-1h1v-1h1v1v-4h1v1h1v1h1v2h1v1h1h-1v2h1v1h-1v1h-1v1h-1v-1l1,-1v-1h1h-1v-1v1h-1v1ZM606,137h-5l-1,-1h-2v-1h-1h2l1,-1h-1v-1h-1v-1h1v-1h-1h1v-1l1,1h1h-1v1h-1h1v1h1v-1h1v1h-1v1h-1h1l1,1v1h3ZM553,220h-1v1h-1v1h-1v-1l-1,-1v1l-1,-1v-1h-1v-1l-1,-1v-1l-1,-1h2v1h1v1h1v1h1v-1h1h-1v1h1v1h1ZM551,221l1,-1l-1,-1v1ZM701,179h-1v1l1,1h1l-1,1h-1v1l1,1v1h-1v-1v1v-1h-1v-1v2h-1v1l-1,1h1v4l1,1v1h1l-1,1h1l1,2l3,3v2l1,1v5h-1l-1,1h-3v-1l-3,-3l-1,-2v-2h-1v-1h-1v-2h-1v-4h-1v-6l-1,-1h-1v2h-2v-2l1,-1v-5h1l-1,-1h1v1h1v-1h1v1l1,-1v-1h3v-1h3l2,1ZM698,179h-1v1h1ZM692,182h-1l1,1ZM691,183v3h1v-3ZM700,174h1h-4v-2h-1l-1,1h-4v1h-1v1h-5v-1h-1l-1,-1h-3v-1l-1,1v1v-2h-1v-1h-2v1h-1v1h-1v1h-2l-2,2h-1l-1,-1l-1,1v-2l-1,-1l-2,2h-4l3,-3l1,-2v-1l1,-1h2l1,-1h1v-1h1v-3l1,-1h1v1v-3h1v2h1v-2h-1v-1h1l1,1h8v1h1v1h1v1h1l1,1v1h6v2h1v1h2v2h1v1h2v1h-1h1v1v-1v2ZM667,173v1ZM668,174h-1v1v-1ZM668,174v-1h-1v1ZM668,173v-1ZM674,160v1h2l-1,-1h1h-1ZM673,166l1,-1h-1l-1,1v1v-1v1h1ZM680,169h1h-3l-1,1v1h1v1h1v-1l1,-1h-1v-1ZM676,161h1l-1,-1ZM690,166h-2l1,1Z"/>
<path class="sw" d="M701,174v-1h1v2h13v1v-1h1l-1,1h5l2,2h1v1h1l1,1v-1h1v2h1h-1h1v1h1l1,1h1h-2v1h1v1h-3l-1,-1l-1,1v-1h-1v-1h-1v-1h-1l-1,-1h-1v1h1l3,3v1h-1v3h1v1l1,2h1v3h-1v1h-1l-1,-1l-2,-3l-2,-2h-3v3h-2v-1h-1v-2h1v-4h-1v-2h-1l-1,-1h1v-1h-1v-1h-3l-1,-1h-1l-1,-1h-3v-2h3v-1h-2v-1ZM707,177v1h1v-1ZM706,177v-1h-1v1h2ZM704,176v-1h-1v1ZM702,175h1ZM702,175v-1h-1ZM703,178h-1v1h1ZM710,178h4v1h1l1,-1v1h1v-2h-1v1l-1,-1v-1h-1v1h-1v-1h-1v1h-1h1v1v-1h-3ZM717,179v1ZM673,338v9l-1,-1v-1l1,-1l-1,-1v-4h-1l1,-1h1v-1ZM577,108v1h-1v1l1,1v1v-1h-3l1,-1h-1v-3l1,1v-1h2v1h1ZM548,105h-3l-1,1h-1v1h-1v1l-1,-1v1h-1v-1h-1h1l3,-3h1l2,-2h2v1l1,-1v1h13l-3,1l-2,-1h-3v1h-2l-2,1h-1ZM730,139v2l-1,1v-1v3h1v1h1v2h-1v-1l1,-1h-1v-1l-1,-1v1l-1,-2l-1,-1v-1l1,-1v-1h1v1ZM642,159h1v1l-1,-1h-1v-1h-2v1h1v1h3v1l-1,-1v1l-1,1h-4v-2h1v-2h1v-1h-1v1h-1v1v-1h-1v-1h1v1h1v-1h-1h2v-1l-1,-1l1,1v1h1v1h2ZM640,160h-1l1,1h1v-1ZM670,153v1l1,1v2h-1v-1h-1v1l-1,-1l1,-1h-1v1h-1v-1h-1v-1v1v-4l1,1v-1l1,1l-1,-1h1v1h1v1ZM668,153h-1v1h1l-1,-1ZM670,155h-1ZM583,110h1v2h-1v1h1v3h-1v2h-2v1h-1v-1h-1h1v-1l-1,-1h1v2h1v-1h1v-2h-1v-1h-2v-2h1v-1l1,-1v-1h1v1v-1h1ZM754,192h-1ZM359,96v1h-3v1h-5v-1h3l1,-1h3ZM344,106h-1v1h-1l1,-1h-2v-1l1,-1l1,1ZM500,235h-1v-1l1,-1h1ZM689,192v2l-1,-1v-2ZM649,60h-1v-1h-1h3v1l1,-1l1,1h3v2l-1,-1v1l-1,-1v1h-2v-1h-1ZM570,83v-1h1l1,-1v1h1v-1h1v1h-1v1h1v2h-1v-1v1h-1l-1,-1v1l-1,-1h-1v-1ZM593,77h2v1h-6l-1,-1h4ZM761,184v1l1,1v1h1l-3,-3v-1l-2,-2v-1l-1,-1v-1v1h1v-1v1l2,2v2ZM532,278v1h-1l-2,-2v-1l1,1ZM511,84l-1,1h-1l-2,-1h-2v-1h1l1,-1l1,1h1l1,1ZM775,858l1,-1h1v1h-1ZM746,155h-2v-1h3v1ZM751,196v1h-1h1l-1,-1ZM752,198l-1,-1v-1l-1,-1l2,2ZM754,197h-1v-1l-2,-1v-1l1,1v1h1ZM563,112h1v1h1l-1,1h-3v1h-1v-2h2ZM579,84l1,-1l1,1h-1ZM574,97h1l-1,-1h1l2,2h1v1h-1l-1,-1h-2ZM713,295v1h-1v-1ZM701,112v1l-1,-1h-2l-1,-1h3ZM720,174v-1h1v1h1v-1h-1h4v1h-4ZM691,112v-1l-1,-1h1v1h1l1,1h1h-2ZM863,782h-1v1h-1v-2h1v-1h2v1ZM705,126l1,-1h-1l1,-1h1l1,1l1,-1h1h-1v1h-1v1h1l1,-1v1l1,-1v1h-3v1h-2v-1ZM705,126v1h-6v-1h2l1,-1l-1,-1h1h-1v-1h2v3ZM341,106l-2,1v1h-1v-1h2v-1ZM855,381h-1v-1ZM373,64h-1v-1h1Z"/>
<path class="sw" d="M521,99l-1,1l-1,-1l-1,1v-1h2ZM705,129h1h-1v1h1h-1v-1h-1v-1h1v-1v1ZM738,907l-1,1h-3l-1,1h1h-1l-1,1v-1h1v-1v1h-1l1,-1h1h-1v-1h1v1h1l1,-1ZM561,100h-1h1l-1,1v-1v1h-1v-2h1l1,-1v1h-1h1ZM326,40v-1ZM553,15l1,-1h1h-1ZM653,136v-1h2v1h-1ZM150,832h-1v-1h1ZM561,196h-1v-1h-1l1,-1v1h1ZM410,49h-3v-1h2ZM534,172v-1h1v2h-1ZM545,258h-1v-1l-1,-1h-1l-1,1h-1v-1h-2l-1,1v-1h2v-3h1v3l1,1v-1h1v-1l2,2ZM537,108v1h-1l-1,-1h-1v-1h1v-1h1v1h1ZM745,117v1h1h-1v1h-2v-1h-2l1,1h-1v2h2v1h1h-2v-1h-1v-1h-1v-1h-2l-3,-1v-1h-1l-1,-1l2,2h-1v-1h-1v-1h-1h1h-1v-1h-1v-1h-1h1v1h1l1,1h1v1h2v1h2l1,1h1h-1h1v-1l1,1v-1h-2v-1h-1l-1,-1h-1v-1h1v1h1v1h1v1h3v-1h-2v-1l-1,-1h-1v-1l2,2h1l1,1h1l1,1h1ZM749,416h-1v2h-2v1v-1h-1l1,-1h1l2,-2ZM346,28h-1h1v-1h1ZM651,148v-1h1l1,1v-1l1,-1h1v1h-1l-1,1h-1ZM736,157l-1,-1h-1v1h1v1l-1,-1v-1h-1v1h1h-1v-2h2v1h2v1h1h-1ZM709,117v-1h1l1,-1v2h-2v1h-1v-1ZM952,484v2l-1,1l-1,-1h1v-3h1ZM749,195v1ZM753,195h-1v-1ZM754,195h-1l-1,-1h1v1ZM330,90h-1v1h-1h1h-1v-1h1ZM556,212v1v-1h-1v-1h1ZM555,225l-1,1v-2h1ZM478,67h1v1h-1ZM648,173v1h-1l-1,-1v1v-1h1v-1v1ZM663,160v1h-2v-1l1,1h1ZM739,167v1h-1v-1ZM782,852h-1l1,-1h1v1ZM495,98h-1v-2h1v1ZM739,905h-2v-1h3v1ZM162,858v1l1,1v-1h-1l-1,-1v-1v1ZM352,24h-1ZM332,37h-1v-1h1ZM327,39h1h-2ZM793,179h1h-1v-1ZM781,169v-1ZM498,213v1h-1v-2h1ZM504,228h-1l-1,-1v-1h1v2ZM503,249v1h-1v-1ZM500,60h1v-1v1h1h-1v1h1h-1v-1ZM749,148h-1v-1h-1v2h-1v-1h-1l1,1l-1,-1h1v-1h1h-1v-1h-1h2v1h1l2,2v-1ZM791,142l-1,-1l1,1v1l1,1v1h-1v-2ZM479,65l-1,1v-2ZM481,65v1h-1ZM505,76v-1h-1h1v-1h1v2h1h-1h1v1h-1ZM646,131v-1h3v1h-2ZM642,148h-1l-1,-1v-1v1h1v-1v1h1ZM629,132h-4v-1h4ZM729,127v1h1v1h1v1v-1h-1v-1v1h-1v-1h-1v1v-2h-1h1ZM577,126h-2v1h-2v-2h4ZM654,179v1h-1v-2h1ZM772,186v1h1h-2v-1ZM733,186v1h-1v-3h-1h1l1,1ZM627,126h1h-1v1h-2v1h-1v-2h2ZM508,204h-1v-1h2v1ZM798,147v1l-1,-1ZM617,122l-1,1v-1ZM351,67h-1v1h-1v-1h1ZM333,86v1h-1h1v-1h1ZM335,89l-1,-1h1ZM339,98v-1h1v1ZM345,94h-1ZM343,93l1,-1h1h-1v1h1h-1ZM342,96h-1v1v-1h-1l1,-1v1ZM651,164h-1h1h-1v-1v1h-1v-1h-1l-1,-1h-1h1v-1l1,1h1v1h-1h4v1h1l1,1h-1v-1h-1ZM488,122h-6l-1,1h1v1h1v1h1v1l-2,-2h-1v-1h-1v-1h-1h1l-2,-2l-1,-2l2,2v1h1v1h7v-1h1v1h1Z"/>
<path class="sw" d="M613,119h-1v-1h1ZM580,173v1v-2h-1v-1h-1v1h-1v1h-5v1h-1v1v-1h-2v-1h1l1,1l1,-1h1l1,-1v1v-1h1l1,1v-1h2v-2h1v1l1,1ZM603,173v-1h-1v1v-2h-2v-1l-1,-1h-2l-1,1h-1l-1,-1v1h-1l1,-1h1v1l1,-1h4v2h1v-1h1v1h1v1h1l1,1l1,-1h2v1h-4ZM447,102v-1h-1v-2h-2v-1l1,1h1v1h1v1ZM512,163l-2,-2h1v-1v3ZM522,171h-1v1h-1v-1h1v-1h-1h2ZM500,173l-2,-2h-1l-1,-1h1l2,2h1ZM565,104h-1l-1,1l2,-2h1v1ZM397,86h-1v-1ZM641,168h2l-1,1h-2v-1l1,-1ZM641,167h1v-1h1v1h-1ZM586,85h-2v-1h2v-1h1v2h1l1,1h-3ZM662,68h-1v1h-2v-1h-1h1h-1h1v-1h-2v-1h-2v-1l1,1h3l1,1h1l1,1h1v1v-1l-1,1ZM642,305v1h-2v-1v1v-1h-1v-1l1,1h1ZM734,166h1v1l-2,-2v1l-1,-1v-1h-1v-1h1h-1v1l1,-1v1h1v1h1ZM639,383h1h-1v1l-1,-1h-4l1,-1h3ZM772,443v1h1h-1l-1,1v-1h-2v-1l1,-1h1v1ZM914,730v2h-1v1h-1v1h1h-1v1h-1v1v-2h1v-1h-1h1v-1h1v-2h1v-2h1v-2h1v-1v2l-1,1ZM819,467v1h-1v-1h1h-1v1h-1v-1l1,-1v-1v1h1h-1ZM889,787l-1,1v1h-2v1l-1,1h-1v1l-1,1v1h-1l1,-1v-1h1v-1l1,-1h1v-2h1l1,-1v-1h1v-1h1v-1v2h-1ZM620,154h-1v1h-1l-1,-1v-1h-1v-1l-1,-1h-1v-1h-1v-1h-1h1v1v-1l-3,-3h-1v1v-1h-1v-1h1l1,1v-1l1,1l1,-1v1h1v2h1v2l2,1h1l1,1h1v1h1ZM608,146h-2v-2h-1l1,1v1v-1h-1l-1,-2v-3l-1,-1h-1l1,1h-1l-1,-1v-1h-1v2h-1v-1h-1v-1h-1v-1h1l1,1v-1h2l1,1h3v1l1,1v4h1v1ZM745,136h1v2l1,2v-1h-1l-1,-1h-1v-1h-1l-3,-3h1h-1v-1l1,1v1v-1h1v-1l1,1h1v1h1ZM744,136v-1h-1h1v1h1l-1,-1h-1v-1h-1v2h1v1h2v-1ZM555,119h-1v-1h-1v-1h1v1h1v1h2v4h-1v1h-1v-2h-2v-1h1l1,1v1l1,-1v-1h1l-1,-1h-1ZM759,888h-3l-4,2h-1v1h-1l1,-1h1v-1h1v-1v1l2,-1h1l1,-1h2ZM545,258h-1v-1l-1,-1h-1l-1,1h-1v-1h-2l-1,1v-1h2v-3h1v3l1,1v-1h1v-1l2,2ZM566,242v2l-2,2v1h-1l1,1l1,-1v1h-3v1h-2l-1,1v-1h1v-1h3v-1l1,-1v-1h1v-1l1,-1ZM599,112h2v2h-2v1h-1l-1,1h-1v1v-1h-1h1v-1h1v-1v1h1v-1h1v-1h-1h1l-1,-1v-1h1ZM985,591v1l-1,1v2h-1v2h-1v-1v2l-1,1v2l-1,2v4h-1l1,-1v-2l-1,1v3l-1,1v1v-3h1v-4l1,1v-5h1v1v-4h1v-1h1v-1h1v-4h1v-1v1ZM979,608v-1l-1,1h1h-1v1ZM163,861h1h-1v-1l-1,-1h-1v-1v1l1,1h1ZM164,861h-1l-1,-1v-1v1l1,1ZM711,157v-1h1v1h1v1v-1h2l1,1v1v-1h-4v-1ZM580,173v1v-2h-1v-1h-1v1h-1v1h-5v1h-1v1v-1h-2v-1h1l1,1l1,-1h1l1,-1v1v-1h1l1,1v-1h2v-2h1v1l1,1ZM619,189v2h-1v1h1v1h1h-2v-2h-1v-1l1,1v-1h1h-1v-1h1v-1l-1,-1h-1h1v-1h-1v-1h-1h1v-1l-1,-1h-1v-3l-2,-2h1v1h1v3h1v1h1v2h1h-1v1h1l1,1v1Z"/>
<path class="sw" d="M447,102v-1h-1v-2h-2v-1l1,1h1v1h1v1ZM512,163l-2,-2h1v-1v3ZM546,80h-6l1,-1h2v-1l1,1v-1v1h2ZM546,79v1l1,-1h1v1h1v1h-1l-1,-1h-1ZM629,200h1l1,1h1l1,1h1h-3v-1h-1l-1,-1h-1v-1h-1v-1h1ZM659,327v2h-1v-2h-1v-1l-1,-1h1l1,1v1ZM560,126l-1,-1v-1h1h-1h1v-1l-1,-1h1v3ZM568,96v1l-1,1v-2h-2l1,-1h-1v-1h1v1h1h-1h2v-1v1h1h-1v1h-1h2ZM588,73v1h-2v-1h1ZM727,121h-1v1v-1h-2v-1h-1v-1h1v1h1l1,1v-1ZM731,122v1h1h-1v1h1h-1v-1l-1,-1h-1v-1h-1h1l1,1ZM722,119v1l-1,-1h2v-1h-1v-1l-1,1v-1h1v1h1v1ZM712,245l1,1v1l2,2v1h-1v-2h-1v-1v1v-2h-1v-1l-2,-2v-1v1ZM753,263h1v1h1v1h-1v-1l-1,-1h-1v-1ZM509,145h1l-1,1h-1v-1l-3,-3h1l1,2h1ZM770,298v-1v1l1,1ZM541,269h-1v-1l1,1h1l1,1l-1,1v-1h-1ZM485,221v1h1h-2v-1v1ZM521,74l-1,-1h1l1,1h4l1,1h1l1,1h-1v-1h-3l-1,-1h-1v1l-1,-1ZM488,209h-1h1v1h-1v-1ZM505,204h1v1ZM776,171h1h-1l-1,-1h1ZM969,559v-3l1,-1v-1v11h1v1h-1v-5l-1,-1ZM957,675v1l-1,1v-1v1v-1h1v-1h-1h1v-3h1v-1v2h-1v1ZM936,694v-1h1v-1h1v-1v1v-2l1,-2l1,-1l-1,1v1h1v-1v1l-1,1v1h-1v2h-1v1ZM779,854h1v1h-1ZM774,880v1h-1v-1l1,-1l-1,1ZM305,63v-1h1l-1,1h-1l1,-1ZM430,91v2l-1,-1v-1h-1h1ZM349,102h-1h1h-3v-1h1l1,1ZM335,87h1ZM359,94h2l2,-1l-2,1h-1l-1,1h-1ZM372,95h1v1h-1ZM346,87v-1ZM337,88h-1v1v-1ZM335,84v1ZM342,79l-1,1ZM720,259v-1h1l1,1h2l1,1h-1l-2,-1h-3ZM714,140h1h-2ZM650,147h-1ZM708,142v1l-1,-1h-1h1ZM723,164h-1ZM729,164h1v1l-1,-1v-1ZM544,77v-1ZM544,77h-1ZM541,77h-1h1h-1h2ZM540,77h-1v-1h1ZM606,45h1h-2ZM546,55l-1,-1h2v1ZM571,63v1h-1v-1ZM615,124h1v-1h1v1h-1ZM588,129v-1h1v2h-1ZM572,132v-2l1,1h-1v2ZM725,125h-1v-1ZM761,125h1v1h1h-1l-1,-1h-1ZM530,77h-1l-1,-1h1ZM697,161v1h-1v-1h1v-1ZM563,123v-1h1h-1ZM566,124v-1h1h-1h1h-1ZM569,86v1v-1h-1v-1ZM568,92v-1h1ZM573,107v-1ZM714,107l1,1h1l1,1h-1l-1,-1h-1v-1h-1v-1v1ZM603,65l-1,1v-1ZM604,65h1h-2Z"/>
<path class="sb" d="M800,465h-1v1v-1h-1v1h-1v2l1,2h1v1l-1,1v1l1,1v1l-1,1v1l1,1M791,454v1l-1,1h-1l-1,-1h-1v-1h-2l-1,-1l-1,1h-3l-1,-1h-2v1h-1M790,418h-2l-1,1v1h-1l-1,1h-3v1h-3v-1h-1l-1,1v2h-1v1h1l-1,1h-1v1l-1,1v1h-1v1l-2,-1v-1l-1,1v1l-1,1h-3v1l1,2v1h-1v2l-1,1h-2M753,415v1l-5,5h-1v2l1,1v1l-1,1v1M748,414h-2v-2l-1,-3v-7l-1,-2v-2M742,433v-1l1,-1v-1h1l1,-1h1v-1h-1v-1h4v1h1l2,2h1l1,1l1,-1h2v1h2v3h1l-1,1M749,392h-1l-1,1v2l-1,1v1l-1,-1h-1v2h-10l-3,1v3l1,1h-2l-1,1l3,3h1l2,2v1h2v3h-4l-2,1h-3l-1,1l-1,2v2l-1,2l1,2v4h-1M675,333h-2v1l-2,-1l-1,-1h-5l-1,-1h-1l-1,-1h-2l-1,-1l-1,-2v-1l-2,-1v-2l-1,-1h1l-7,-7h-1v-2l-3,-3v-1l-1,-1l-2,-1v-1h-1l-3,-3h-7v1h-1l-1,1v1l-1,1l1,1h-1v1l-1,1h-2l-4,-2h-1l-2,-2h-1l-2,-2l-1,-2v-1l-1,-2l-2,-2l-4,-2l-2,-2l-2,-1l-3,-3h-13v4h-20l-15,-4l-3,-1l-4,-2l-7,-2l1,-2l-1,1h-9l-2,1h-6M751,179l-2,2v3h-1v6h-8l-1,1h-1l-1,1l1,1h1v1l1,1h1v1h-1v1l-2,2h-1l-1,1l-2,1h-1l-1,1h-1l-3,3v1h-3l-3,-3v-1l1,-1v-1l1,-1v-1l-1,-2v-1l-2,-4l-1,-1l-1,-2l-2,-2v-1l-1,-1l-1,-2h-1v-1l-2,-1h-1l-1,-1h-2l-1,-1v-1l-1,-1h-3v-1h-1v-1l-1,-1v1h-2l-2,-2v-1h-3l-1,-1h-1l-2,-1h-1l-1,-1h-2l-1,-1h-1l-2,-1h-2l-2,-1h-1l-1,-1h-3l-2,2h-8l-1,-1h-1v1h-4l-1,-1h-2l-1,-1h-2l-1,-1h-2v1h-2l-2,-1h-3v-1l-1,-1h-1v-2h-2v1l1,2h-17l-2,1h-23l-3,1h-31l-2,1h-76M438,54l-1,1l-1,2l-3,3v1l-1,2l-3,3l-1,2v1l-1,1l-1,2l-2,2l-1,2v1l-1,1l-1,2l-2,2l-1,2v1l-1,2l-1,1l-1,2l-1,1v1l-1,2l-1,1l-1,2h3l1,1l1,-1h3l-1,1v1h2v2h1v1h1v1h1v1l-1,1h1v-1h4l1,-1v-1h1v-1h3l1,-1v1h1v2h1v1h1v2h2v1l2,2v2h1v1l1,1v1l1,1h-1v1h1v1h1v1h1v1h2l1,1h1v1h2v2M883,774l-3,3v2h-1v1l-2,2v1l-1,1v1l-1,1h-1v2h-1v1l-1,2M910,737l-2,3l-1,3l-1,1v1l-2,2v1h-1l-2,2v1h-1v1l-1,-1v1h-1v1h-6l-2,1v-1l1,-1v-1h1v-1h1v-1l1,-1v-1l1,-1v-1h1v-1l2,-2v-1h1v-1h1v-5h-1v1v-1l-2,-2v-1l-1,-1v-1h-2l-1,-1h-1v-2h-1v-2l-1,-1v-1l1,-2l-1,-2v-1M867,726l1,1l-2,2l-1,4l-2,2v1l-1,1l-2,1h-1l-2,2h-1v1l-1,1v3h-1v1l-1,1v2l-1,1v3l-1,1h-1v5h-1l-1,1h-2v1l-1,1v1l-2,2v1h-1v1h-1v1h-1v1l-3,3v1l-1,2l-1,1h-1v1l-1,2v1l-1,1v2l-2,2h-1v1l-2,2v1l-1,1h-1v2h-1v1l-1,1v1h1v1h-1v1l-1,1v2l-1,2h1l-2,2v1h1v1h-1v1l-2,2v2h-1v1h-1l-2,2v1h-1v1h-1l-1,2l-1,1v1l-1,1v1l-1,1v1h-1v1h-1l-1,1h-1v1h-1v1h-1v1l-1,1v1h-1v1h-1v1l-1,1v1l-1,1v1l-1,1v3h-1v1h-2l-1,1h-1v2h-1v1l-1,1h-1l-1,1v1l-2,2v1h-1v1h-1v1h-1v1h-1v1l-1,2l-1,1v1h-1v1l-1,1v1h-2v1h-1v1h-1v1l-2,2v1h1l-2,2v1h-1v2h-1l-2,2h3l-2,2h-3l-1,1h1v2l-1,1h-1l-2,2v1h-1l-1,1v1h-1v1l-1,1h-1l-2,2v1h-1l-1,1h-1l-1,1v1h-1l-1,1v1h-1l-3,3h-1v1h-1l-1,1h-1l-2,2h-1l-3,3v1h-1v1l-1,1v1l1,-1h2l-1,1v1h-1l-2,2h-1v1h1l-1,1h4l1,-1h4v1h1"/>
<path class="sb" d="M914,698v-1l1,-2l-3,-3h-1l-6,3h-1l-4,2v1l-1,2l-1,1l-5,10l-1,3l-2,4h-1v-1l1,-1h-1l-1,1h-3l-1,1l-1,2l-2,2v2v-5h-4l-1,1v-1l-1,-1h-1v1l-2,2h-1v1h-1v1l-4,4h-2v-2l1,-1v-6l1,-2v-3l-1,-1l1,-1v-2h-1v-1h1v-2h1v-1l1,-1l-1,-1l2,-2v-2h-1v-8h1v-1h-1v-4M878,632l1,2v3l1,1v3l1,2v2h-1v2h-1v1l-1,4v2h-1v5l-1,1v1l-1,1v1h-1v2h-1l1,1v1l-1,1v1l-1,2v4h1v1h1l-1,1h-1v2h-1v1l-1,1v1h-1v1l-1,1v2l-2,2v1l-1,1v1l-2,2h-2M852,544h-1v1l-1,-1v1h1v2h1v4h-1v1l-1,3v1l-1,1v1l-2,4l-4,4l-2,1l-1,1l-2,1h-1l-2,2h-1v2h-1v2h-1v-1v1l-1,1v3h-1v2l-1,1v3l-2,2v2h-2v-1h-1v-3h-3v-1h-2l-1,1h-1l1,-1v-1h-1v-2h2v-5M882,575v-1h-1v-1l-1,-1l-1,1l-1,-1l1,-1l1,-3l2,-4v-2h-1v-1h-1l-2,-2h-2v1h-2v-1h-2v1l-1,1h-1l-1,1h-1v-1h-1v1h-2v-1h-1v-1l1,-1l-1,-1v-1h-1v-1h-1l1,-1l-1,-1v-1l-1,-1h-1l-1,-1h-1v-2h-1v-2l-2,-2v-1h-2v-1h-1v1l-1,-1h-2l-3,-3h-1v2h-4l-1,-1h-2v-2h-1v-1h-1l-2,-1h-1l-4,-4M900,526v-2l-1,-1v-3l-1,-1v-3l-2,-2v-1h-2v-1l2,-3l1,-1v-1l-1,-2l-1,-1v-1l-1,-1v-4l-1,-1l1,-3l-1,-1v-3h1v-4l1,-1v-1l-2,-2l-2,2h-5l-1,1h-1l-1,-1l-1,-2l-1,-1l-1,-2h-2v-1h-2l-2,1h-3l-1,1h-1v-1h-1v-1l-2,-2v-1l-1,-1v-2l1,-1v-1l-1,-1v-1l-1,-1v-1l-2,-4h-1v-1h-1v1h-1v-3l1,-1v-8l1,-2v-2l1,-1v-1h1l1,-4v-1h1l1,-1h1v-1M928,486l-3,-6v-7h1v-1h1v-1l1,-1v-1h-1v-2l-1,-1v-1l1,-2v-1h1v-1l1,-1v-2l-1,-2M947,510h-1v-3h-1v-3l-1,-1v-5l-1,1h-1v-2l-1,-1v-1l-1,-1v-5h1v-2h-1v-1l1,-1h1v-1h1v-2h-1v-2h1M954,505l1,-1v-3l1,-1v-1l-1,-1v-1l1,-1v-3l-1,-1v-1l-1,-1v-6l-1,-1v-1l1,-2v-2M882,796v-2l2,-2v-1h1v-1l2,-2v-3l1,-1v-1h-1v-1l1,-1l-1,-1v-2h-1l-1,1v-1l1,-1v-4h-1l-1,1h-1v-1h1l1,-1v-1h1l4,-4v-1l3,-3v-1l1,-1h1v-1l1,-1h1v-1l4,-4v-1h1v-1h1v-1h1l4,-4v-1h1v-1l1,-2v-1h1v-3l1,-1v-2l-1,1h-1l1,-1l1,-2v-1l1,-2l2,-2v-2l1,-1v-2h-1l-2,2v-4h1v-2l1,-1v-2l1,-1v-3h-1v-1h-1v1h-5v-1h1v-2h1v-2l1,-1v-2l1,-1v-3l1,-1v-3h1v-2l1,-1v-2l1,-2l2,-2h-1l3,-6v-4l1,-1v-1l-1,1v-2h-1v-2l1,-1v-2l1,-2v-1l-2,1h-5v-1l1,-2v-6h1l1,-4v-8h-1l-1,-1l-1,1h-2v-1l-1,-1v-1h-1l-1,-1v1l-1,-1v-2h-1v1l-1,-1v-1h-1l-1,1h-1l-1,-1v-1h-1v-2h-1v-2h-1v-6l1,-1l-1,-1v-2h1v-2l1,-1v-4l-1,1h-2l-2,1h-1v1l-1,1l-3,2v1h-1v1l-2,2h-1l-3,3v1h-1l-1,1v-1h-7v1h-1l-1,1l-1,-1l-1,1l1,-2v-5l1,-2v-4h1v-1h-1v1l-2,2v1h-1l-1,1l-2,1h-3v-3l-1,-1h-4v-1l1,-2v-2l-2,-2h1v-1h-1v-1l-1,-1v-4h-1v-3h1v-3l1,-1l1,-2l1,-1h1l1,-1v-2l-1,-1v-1h1v-2l1,-1v-1l1,-2v-2h1l1,-1v-1l1,-1h1l1,-1v-1h1v-1h2l1,-1h1l1,-1h1v-1l1,-1h2v1h2v-1l1,-2v-3l1,-2v-6l1,-3v-3l1,-2v-8h-1v-3h-1v-1h-1v-8h1v-1h1l1,-1v1h2v-2l-1,-1v-1h-2v1l-1,-1v-5h1v-1h8v-1l-1,-1l1,-1v1l1,1h1v-2l2,-2v1l1,2l1,1v4h1l1,2l1,1h2l1,-1v-1h2v1h1v-1l1,-1v-1l1,-1h1v-1l1,-1h1v-1l1,-1v-3h1l1,-1v-1h1v-3h-1v1h-1l-1,-1v-2l-1,-2v-5l-3,-3v-1l-1,-1v-1h1v1h3v2h2v-1l1,1l1,-1l1,2l1,1l1,-1v-4h1v-1l1,1l1,-1h1l1,-2v-1h1v-1h1v-1l1,-1v-1l1,-1v-1l-1,-1h1v-1h2v6h1l1,1v2l1,1v3h-1v12h1v5h1v1h1v2h2v1v-1h1v-2h1v-1h1v-1h1l1,-1l1,-2v-1h1v1h1l1,-1v1v-1h1l1,1v-6h2v-1h1l1,-1v1h1v1l1,1h1l1,-1v-1h1v1v-1h1v1h1v-1l1,-1v-3l1,-2v-5l1,-2v-4h1"/>
<circle class="w4" cx="48" cy="353" r="22"/>
<circle class="w4" cx="48" cy="353" r="20"/>
<circle class="c4" cx="48" cy="353" r="21"/>
<circle class="w4" cx="136" cy="395" r="21"/>
<circle class="w4" cx="136" cy="395" r="19"/>
<circle class="c4" cx="136" cy="395" r="20"/>
<circle class="w4" cx="178" cy="550" r="21"/>
<circle class="w4" cx="178" cy="550" r="19"/>
<circle class="c4" cx="178" cy="550" r="20"/>
<circle class="w4" cx="83" cy="532" r="21"/>
<circle class="w4" cx="83" cy="532" r="19"/>
<circle class="c4" cx="83" cy="532" r="20"/>
<circle class="w4" cx="129" cy="294" r="21"/>
<circle class="w4" cx="129" cy="294" r="19"/>
<circle class="c4" cx="129" cy="294" r="20"/>
<circle class="w4" cx="835" cy="384" r="21"/>
<circle class="w4" cx="835" cy="384" r="19"/>
<circle class="c4" cx="835" cy="384" r="20"/>
<circle class="w4" cx="167" cy="494" r="21"/>
<circle class="w4" cx="167" cy="494" r="19"/>
<circle class="c4" cx="167" cy="494" r="20"/>
<path class="sg" d="M 255.3911 935.2879 A 249.7500 30.2493, 0, 0 0, 743.6089 935.2879"/>
<path class="sg" d="M 67.9950 751.1023 A 432.5797 52.3932, 0, 0 0, 931.0050 751.1023"/>
<path class="sg" d="M 0.0000 499.5000 A 499.5000 60.4985, 0, 0 0, 999.0000 499.5000"/>
<path class="sg" d="M 67.9950 247.8977 A 432.5797 52.3932, 0, 1 0, 931.0050 247.8977"/>
<path class="sg" d="M 255.3911 63.7121 A 249.7500 30.2493, 0, 1 0, 743.6089 63.7121"/>
<path class="sg" d="M 396.9459 988.3588 A 429.3951 499.5000, 11.84785292, 0 1, 602.0541 10.6412"/>
<path class="sg" d="M 464.6563 997.7832 A 247.9114 499.5000, 4.00004353, 0 1, 534.3437 1.2168"/>
<path class="sg" d="M499,998L499,0Z"/>
<path class="sg" d="M 534.3437 997.7832 A 247.9114 499.5000, -4.00004353, 0 0, 464.6563 1.2168"/>
<path class="sg" d="M 602.0541 988.3588 A 429.3951 499.5000, -11.84785292, 0 0, 396.9459 10.6412"/>
<path class="sg" d="M 0.0000 499.5000 A 495.8227 499.5000, 90.00000000, 0 1, 999.0000 499.5000"/>
<text x="0" y="0" class="fs" transform="translate(251,595) rotate(85)">150W</text>
<text x="0" y="0" class="ft" transform="translate(251,595) rotate(85)">150W</text>
<text x="0" y="0" class="fs" transform="translate(500,603) rotate(90)">120W</text>
<text x="0" y="0" class="ft" transform="translate(500,603) rotate(90)">120W</text>
<text x="0" y="0" class="fs" transform="translate(748,595) rotate(94)">90W</text>
<text x="0" y="0" class="ft" transform="translate(748,595) rotate(94)">90W</text>
<text x="0" y="0" class="fs" transform="translate(930,573) rotate(95)">60W</text>
<text x="0" y="0" class="ft" transform="translate(930,573) rotate(95)">60W</text>
<text x="0" y="0" class="fs" transform="translate(69,573) rotate(84)">180W</text>
<text x="0" y="0" class="ft" transform="translate(69,573) rotate(84)">180W</text>
<text x="0" y="0" class="fs" transform="translate(455,957) rotate(0)">60S</text>
<text x="0" y="0" class="ft" transform="translate(455,957) rotate(0)">60S</text>
<text x="0" y="0" class="fs" transform="translate(424,796) rotate(0)">30S</text>
<text x="0" y="0" class="ft" transform="translate(424,796) rotate(0)">30S</text>
<text x="0" y="0" class="fs" transform="translate(413,555) rotate(0)">0N</text>
<text x="0" y="0" class="ft" transform="translate(413,555) rotate(0)">0N</text>
<text x="0" y="0" class="fs" transform="translate(425,299) rotate(1)">30N</text>
<text x="0" y="0" class="ft" transform="translate(425,299) rotate(1)">30N</text>
<text x="0" y="0" class="fs" transform="translate(457,97) rotate(2)">60N</text>
<text x="0" y="0" class="ft" transform="translate(457,97) rotate(2)">60N</text>
<path class="tb" d="M127,998h-2l-1,-1h-2l-1,-1h-2l-1,-1h-2v-1h-3v-1h-2l-1,-1h-2v-1h-2l-1,-1h-2v-1h-2v-1h-2l-1,-1h-2v-1h-2v-1h-2v-1h-2v-1h-2v-1h-2v-1h-2v-1h-2v-1h-2v-1h-1l-1,-1h-1v-1h-2v-1h-2v-1h-1v-1h-2v-1h-1l-1,-1h-1v-1h-2v-1h-1v-1h-2v-1h-1v-1h-1l-1,-1h-1v-1h-1v-1h-1l-1,-1h-1v-1h-1v-1h-1v-1h-2v-1h-1v-1h-1v-1h-1v-1h-1l-2,-2h-1v-1h-1v-1h-1v-1h-1v-1h-1v-1h-1v-1h-1v-1h-1v-1h-1v-1h-1v-1h-1v-1h-1v-1h-1v-2h-1v-1h-1v-1h-1v-1h-1v-1l-1,-1v-1h-1v-1h-1v-1l-1,-1v-1h-1v-1l-1,-1v-1h-1v-1l-1,-1v-1h-1v-2h-1v-2h-1v-1l-1,-1v-1l-1,-1v-1l-1,-1v-2h-1v-2h-1v-3h-1v-2h-1v-4h-1v-3h-1v-5h-1v-6l-1,-1v-17h1v-7h1v-4l1,-1v-3h1v-3h1v-3h1v-2l1,-1v-2h1v-2h1v-2h1v-2h1v-2h1v-2h1v-2h1v-1h1v-2h1v-1h1v-2h1v-1h1v-1l1,-1v-1h1v-1h1v-1l1,-1v-1h1v-1h1v-1h1v-1h1v-1h1v-1h1v-2h1v-1h1v-1h1v-1h1v-1h1l3,-3h1v-1h1v-1h1v-1h1v-1h1v-1h1v-1h1l1,-1h1v-1h1v-1h1v-1h1l1,-1h1v-1h1v-1h2v-1h1v-1h1v-1h2v-1h1v-1h2v-1h1v-1h2v-1h1l1,-1h1v-1h2v-1h1l1,-1h1v-1h2v-1h2v-1h2v-1h1l1,-1h1l1,-1h1l1,-1h1l1,-1h1l1,-1h2v-1h2v-1h2v-1h2l1,-1h2v-1h2v-1h2l1,-1h2v-1h3v-1h2l1,-1h2v-1h3v-1h3v-1h159v1h3v1h3v1h2l1,1h2v1h3v1h2l1,1h2v1h2v1h2l1,1h2v1h2v1h2v1h2l1,1h1l1,1h1l1,1h1l1,1h1l1,1h1v1h2v1h2v1h2v1h1l1,1h1v1h2v1h1l1,1h1v1h2v1h1v1h2v1h1v1h2v1h1v1h1v1h2v1h1v1h1l1,1h1v1h1v1h1v1h1l1,1h1v1h1v1h1v1h1v1h1v1h1v1h1l3,3h1v1h1v1h1v1h1v1h1v2h1v1h1v1h1v1h1v1h1v1h1v1l1,1v1h1v1h1v1l1,1v1h1v1h1v2h1v1h1v2h1v1h1v2h1v2h1v2h1v2h1v2h1v2h1v2l1,1v2h1v3h1v3h1v3l1,1v4h1v7h1v17l-1,1v6h-1v5h-1v3h-1v4h-1v2h-1v3h-1v2h-1v2l-1,1v1l-1,1v1l-1,1v1h-1v2h-1v2h-1v1l-1,1v1h-1v1l-1,1v1h-1v1l-1,1v1h-1v1h-1v1l-1,1v1h-1v1h-1v1h-1v1h-1v2h-1v1h-1v1h-1v1h-1v1h-1v1h-1v1h-1v1h-1v1h-1v1h-1v1h-1v1h-1v1h-1l-2,2h-1v1h-1v1h-1v1h-1v1h-2v1h-1v1h-1v1h-1l-1,1h-1v1h-1v1h-1l-1,1h-1v1h-1v1h-2v1h-1v1h-2v1h-1l-1,1h-1v1h-2v1h-1v1h-2v1h-2v1h-1l-1,1h-1v1h-2v1h-2v1h-2v1h-2v1h-2v1h-2v1h-2v1h-2v1h-2l-1,1h-2v1h-2v1h-2l-1,1h-2v1h-2l-1,1h-2v1h-3v1h-2l-1,1h-2l-1,1h-2l-1,1h-2Z"/>
<path class="tl" d="M169,986h1v1h-3l-1,-1h2v-1ZM114,989h-3l-1,-1h2l1,1ZM176,983h1l1,1v1h1l-1,1h-2l-1,1h-1l-1,-1l1,-1v-2h1v-1ZM124,980h2v1h-1ZM122,980l1,1h-1l-1,-1ZM136,977h1h-2ZM156,974v1l1,1h-5v-1l1,-1v-1l-1,-1l1,-1v1h1l1,1ZM158,964v1h-2v2h1l-2,2v1h1l1,1h1l4,4v1l1,1v1h-1v2h-1l-1,1h-1v1h-2l1,1h1v1h-2l1,1h1v1h3l1,1h3l1,1h3l1,1h1l1,1v-1h1v-1h2l2,-1l1,1h1v-1h4v-1h3l1,-1h-1v-1h-4l-1,-1l1,-1h1l2,-2h4l1,-1h1l2,-2h-1v-1h1v-1h2v-1l1,-1h1v1h1v-1h8v-1h3v-1h1l1,1h2v-1h1v1l1,-1h4v1h6v-1h3v-1h2v1h3l1,-1h3v-1h2l1,-1h2l1,-1h4v1h1v1h1l1,1h1l1,-1l1,1h2v1l-2,2h-1v1h1h-1v1h-1v1h2l2,-2h1v-1h3l1,-1h1v-1h2l1,-1h5v-1h1v1h5v1h1l1,-1l1,1l1,-1h1l2,-1v1l1,1h3l1,-1h2v1h1v1h4l1,-1v1h9l1,-1l-1,1v1h-1h3l1,1h2l-1,1v1h1v1h2v1h1v2h2l1,1v1h-1l-1,1h-2l-1,1h-3l-1,1h-2l-1,1h-2l-2,2v1h-5l-1,1h-2v1h-1v3h2l-11,4h-155l-11,-4h-1h2l1,-1l1,1h14l-1,-1h-7v-1h-2v-1h-3l-1,-1h4v-1h-2l-1,-1h-7l-1,-1l-2,-1l1,1l1,-1l2,1v-1h1v-1l-1,-1h-1h2v-1h2v-1h4l1,-1h5l1,-1l1,1v-1h1l1,1h1v-1l1,1h6v-1h-2l-1,-1h-1l-1,-1h4l1,1h1l1,-1h3l-1,-1h1l1,1l1,-1l1,1h3v-1l1,1h4v-1h2l1,-1v-1h-1v-1h-1v-1h-1v-1h-1v-2l-1,-1v-1h1v-2h1v-1h1v-1h1l1,-1l1,1ZM144,951l2,1h1v1h-1v-1v1h-4l-2,-2l-2,-1l2,1h2v-2h1v1ZM151,947h1v1h-2v1l-1,-1l1,-1ZM269,946h-1v-2h1l1,1ZM345,939v1h1l1,-1v1l-3,3v-1l-1,1h-1l1,-1v-1l1,-1v-1ZM368,943v1l1,-1v1h-1l-3,3h-1l-1,1h-1l-2,2h-2v1h-1v-1h-1v-1l4,-2h1l1,-1h2l2,-2h1l2,-2ZM376,936l-1,2l1,-1l-1,1l1,1h1l-2,2h-1l-2,2l-2,1h-1l2,-1v-2l1,-1l2,-1v-1l1,-1v-3l1,-1v1l1,1ZM382,913l-1,1v-2l-1,-1v-1h1v1l1,1ZM397,906v1l-1,1h-1v-1l1,-1v1ZM398,906h-1v-1h1l1,-1v1ZM10,905v-1ZM386,904v-1ZM386,901v2h-1v-1ZM259,895v2l1,1h-1v1v-1v2h-1v3l-3,6v2h-1l-1,1l-1,-1h-1v-5h1v-2l1,-1h-1v-3h1v-1h1l2,-2h1v-1l1,-1v-1l1,-1v1ZM361,898v1h1v1h1l-1,1v2h1l-1,2v1l2,2v4h1l-1,2l1,1v3l-1,1v2l-3,3v1l-1,1l-1,2h-1l-1,2h-1l-4,4v1h-2l-1,1h-1l-1,1v-1h-1l1,-1h-1l-1,1h-1v-1h-1v-3h1l-1,-1v-1l1,-1l-1,1h-1l3,-3l-2,1h-1l-1,2v-4l-2,-2h-2l-1,1h-4l-2,2h-4l-1,1v-1l-1,1h-2v-1h-1l1,-1v-1h1v-3l1,-1v-7l1,1v-3l1,-1v-1l1,-1l-1,1l2,-2h1l1,-1h2l1,-1h2v-1h1l1,-1v-2l1,-1v2l1,-1v-1h1v-1l2,-2h2v1h2v-2h1l1,-1v-1h2v-1h-1h1l1,1h3l1,1h-1v1h-1v1l-1,1v1l2,2v1h1l1,1h1v-1l1,-1v-1l1,-1v-3l1,-1v-2h1v-1v3l1,1Z"/>
<path class="tl" d="M383,894h-1v-1v1ZM337,892l-2,-1h2ZM381,893h-1v-1h1ZM382,892v-1l-1,-1h1ZM341,892h-1l3,-3h2l-1,1h-1l-1,1ZM335,889h1v1h-3l1,-1ZM340,889v1h-3v-1h2ZM381,890v1l-2,-2h1v1ZM378,889v-1h-1v-1l1,1ZM325,887h2v-1l2,1v1h2l1,1l-1,1l-1,-1h-4l-1,-1h-1l-2,-1h-1l1,-2h1l1,1ZM353,886v1v-2ZM377,888h-1v-2l-1,-1h1v2h1ZM373,885l-1,1h-1l-1,1l-1,-1h-1l1,-1l1,1v-1h2v-2h1v1ZM345,882h-1v-1h1ZM349,881v2l-1,-1h-2v-1h2ZM374,884l-1,-1v-1l-1,-1h-1h2v2h1ZM353,878v3l2,1v-2l2,-1h1l1,1h1l1,1l4,2v1h1v1l2,1v1h-1v1l1,1v2h1v1h1h-1l1,1l-1,1v-1h-2l-1,-1v-3h-3l-1,1v1h-2l-2,-2v1h-2l1,-2h1l-1,-2v-1l-2,-1h-1l-1,-2l-1,1l-1,-1h1l-1,-1l1,-1h-1v-1h-1l-1,-1h2v-1ZM343,875l-1,1h-4v1l1,2v-1h2l-1,1h-1l1,2v1l1,2v1h-1v-2l-1,1v-1l-1,-1l1,-1h-1v4h-1v-3h-1v-1l1,-1v-4h1v-1h4l1,-1ZM347,875v1h-1v1l1,1h-1v-4h1ZM321,885h-1l-2,-2v-1l-2,-2l-1,-2v-2l-1,-1v-1l-4,-4v-1h2l3,3l1,2h1l2,2h1l-1,2h1v1l1,1h1v3ZM335,874l1,1h-1v3l-1,1v1l-1,3v-1l-1,1l-1,-1h-1v-1l-1,1l-1,-1h-1l-2,-4v-2l1,-1h2v-2h2v-1l1,-1v-1h1l1,-1v-2h1v1l2,2v1h-1l-1,2l1,1ZM344,864v3l-1,-1v2l-2,-2h1l-1,-1v1l-1,-1l-1,1v-1l1,-1h2v-1h1v-1l1,1ZM294,868h-1v-1l-1,-2l1,-2l1,1v1l1,1v1ZM137,863h-1l1,-1h1ZM341,861v1l-1,1l-1,-1l1,-1v-1v1l1,-1ZM335,863l-1,1v-1l1,-1v-1l1,-1v1l-1,1ZM338,859h2v1l-1,1v-1h-1ZM342,858l1,2h-1v1v-1h-1v-1h1h-1v-1ZM338,857l-1,1l-1,-1h1ZM336,849h1v6h1l2,1v2l-1,-1v-1v1l-1,-1h-2v-1h1h-1l-1,-1v-5ZM133,851v1h-1v-1ZM121,852h-1v-1h2v1ZM126,849h3v1h1v1h-2l-1,1v-1h-1v-2h-1ZM324,849l-1,1h-1v-2l1,-1h1v1ZM37,846v-2h1v2ZM38,844h-1v-1h1ZM119,845h2l1,1v1h1v1h2l-1,1h-3v-1h-1v-2h-2l-1,-1h-1h1h-2l-1,1h-1l2,-2h3ZM122,843h-1v-1l1,-1v1ZM334,843v1l-2,-2v-2l1,-1l1,1ZM122,839l-1,1v-1ZM123,839v1v-1h-1ZM340,825h1v1h-1v1h-1v-2ZM240,828l-2,2v-1h-1h2ZM229,828v1h-1ZM220,825v2h-1l-1,-1h-1v-1h2ZM214,821v3h-1v-3ZM344,820v1l1,1v1l-1,1h-1l-1,2l-1,-1v-1l-2,1l-1,1h-1l2,1v3l-1,-1v-1h-1l-1,-1l1,-1v-3h3v-3l1,1v-2h1l-2,-4v-1l3,3v1ZM214,820v1l-1,-1v-1l1,-1ZM340,810l1,-1l1,2h-1v2l-2,-1l1,2h-1l-1,-2l-1,-1h1l-1,-2l-1,-1l3,1ZM144,812l1,1h1h-2ZM147,809h-1l-1,-1h1ZM92,806h-1l-1,-1v-2h-1v-1h1l1,1v1l1,1ZM153,807l-1,1h1v1h2l-1,1h1v1l-1,2l-1,-1l1,-1l-2,1v-1h-3l1,-1h-1l4,-4h1Z"/>
<path class="tl" d="M90,797h1l-2,2v1v-3ZM332,800l3,3l-2,-1l1,2l2,2v1l-2,-2l-1,-2l-6,-6v-1h-1h1l3,3ZM198,806l-1,1h-2l1,-2v-1l2,-2h1v3ZM216,801l-1,2l-1,-1v-1h1ZM79,791h-1v-1h2ZM202,797l-1,2h2v1l-1,1h1l2,4h1v1l-1,1h1l-1,1h-3l-1,1h-2l2,-2h-1v-1h1l-1,-1v-1h2l-1,-1h-1v-2l-1,-1l1,-2v-1l1,1ZM75,786h-1v-1h1ZM141,790l-1,1v-1ZM139,790h-2l1,-1h1ZM78,780v1h1h-2v-1ZM139,786h1v1h1l-1,1h1l-1,1l-1,-1h-1l-2,1l1,-1h-1h1l1,-1l1,-2ZM193,787v1l1,1l-1,1h-3l-1,1l-1,-1h-2l1,-1h-1h1v-1h-2l1,-1h1l1,1l2,-1h2ZM147,784h-1l1,-1h2l-1,1ZM81,776v1l1,-1h2l-1,2h-3l-1,1h-1l-1,-1h1v-1h-1h1h-2l-1,1l8,-5v1l-1,2ZM135,780l-1,1v-1h-1l1,-1h1ZM322,771h-1ZM88,771h-1h2ZM139,780l-1,2l2,-1v1h-1v1l1,-1l2,-1l1,-1h2v2h-1v1l-1,1l-2,1h-1v-1l-1,1l-2,1v1h-3l-2,2h-1l-1,1l-2,1l-1,1l-1,2h1l-1,1v1h1l3,3l2,1h1l-2,2v2l1,1h1l2,-4h-1l4,-2v-1l1,-1v-1l-1,-1l2,-1l2,-4l1,1h1l1,-1v1l1,1h1v2l-1,1l1,1h2l1,-2h1v3l1,1l-1,1l1,1v1h1l1,1v1l1,1l-2,2h-2l-2,2h-1l-2,-1h-2l-2,1l-1,1l-2,1l-1,1l2,-1l3,-1h2l-1,1l-1,2v1l1,1l2,-1l1,-1v1h1l-4,2h-1l-2,1v-1l2,-1h-3v1h-1l-1,1h-1l-2,2l1,1v-1v1h-3l-1,1l2,-1v1h-2l-2,2v1l-1,1l-1,-1l1,-1l-1,1v4l-1,1h-1l-1,1h-1l-3,3h-1v8l-1,1h-1v-3l-1,-1l1,-1l-1,-2l-1,1l-1,-1h-4v1h-1l-1,-1l-1,1l-1,-1l-2,2h-2v1h-1v3l-1,1v1l-1,2v4l1,1v1h1v1l1,-1h3v-1l1,-1v-1l1,-1h3v1l-1,1v2l-1,1v-1v2l-1,1v1h5v1h1v1l-1,1v3l-1,1h1v2h1v1h2l1,-1h1v1h1l1,1l1,-1v-2l1,-1h2l2,-2v2h-1h1v1l-1,1v1h1v-3h1v-1h1v1h1v1h3l1,1l1,-1h1l1,1h1v1l1,1h1v1h1v1l1,1l2,1v-1h1l1,1h1l1,1v1h1v1l1,2v1l-1,1l1,1h2v1v-1l4,2v1h1l3,1h1l2,1l2,2h2v5l-1,1l-1,2l-2,2v9l-1,2v2h-1v1h-2l-1,1h-1l-3,3v5l-1,2l-2,2v2l-2,2v-1l-1,1l-1,-1h-1v-1v1l1,1v1l1,1v2l-2,1h-3l1,1v2l-1,1l-1,-1h-1l1,2h2l-2,2l1,1v1h-1l-1,1v1l2,1h1v1l-1,1v2h-1v1l2,2h-1l-1,1v1h-1l-2,-1l-3,-3l-1,-3v-1l1,-1h-2l1,-2l-1,-2h1v-2l-1,-1v2l-1,-2v-4l-1,-1l-1,-2h1v-6l-1,-2v-8l-1,-2v-6l-1,-2l-1,-1l-2,-1l-3,-2l-1,-1v-1l-1,-2l-1,-3l-2,-3l-2,-2v-1l-1,-2l2,-2v-1h-1v-3l1,-1v-1h1v-2h1l1,-1v-5l-1,-1v-2h-1v1h-1v1h-1l-1,-1h-2v-2h-1v-1v1h-1v-3l-2,-2h1h-2v-1h-2l-1,-1l-1,-2h-1l-1,-1v1h-2l-1,-1h-2l-2,-2h-1l-1,-1v-1h-1v-3h1l-1,-1v-3l-1,-1v-1l-1,-1v-3h-1v-5l-1,-1l-1,1v4h1l-1,1h1v5h1v2h-1v-1l-1,-1v-3l-1,-1v1v-1h-1v-1h1v-9h-1v-1h-1v-9l2,-2v-1l1,-2l2,-2l1,-2l1,-1v-1h1v1l2,-2h-1v-2l-1,-1v-1l1,-1l-1,-1l1,-1v-1l1,-1l-1,-1l1,-1v-1l1,-1l-1,-1h-1v-2h-1v-1h-1l-1,-1h-1l-1,1h-4l1,-1l2,-1h-1l-1,1l-2,1h-1l-1,1l-2,1h-2l-2,1h-1l-1,1h-3l-1,1h-2l1,-1h2l2,-1h2l2,-1h1l2,-1l1,-1h-3l1,-1l-1,1h-1l2,-2h-1v-1l2,-2l2,-1h3l1,-1h1l1,-1h-3v-2h4l1,1l1,-1v-3h4l1,-1h2l2,-1l1,1l1,-1h1l-1,1h1l1,1h2l1,1h2v1l1,1l1,-1h6l1,-1v2l2,-1l-1,1h2l1,1h2v1l-2,1h4v1l2,-2h2v1h1l1,1h2v-1h1l1,1l-1,1l1,-1h1l1,-1v-2l1,-1l2,-1l1,1l-2,2Z"/>
<path class="tl" d="M128,774l-1,1h4l-1,1h1l2,-2v1l-1,2v1l1,1h-2v1h-8v-1h-1v-1h4l-1,-1h-3l2,-1h-1l1,-1h1ZM135,774l-2,1v-1h1ZM152,776v1l-1,-1l-1,1v-2h2ZM146,776v1l1,-1l2,-1v2h3l1,1l-1,1l2,-1v1l1,1v2h-1l2,2v1h1v1l-2,1h-1l-1,-2l-1,1v1l1,1v2l-1,1l-2,-2v1l1,1h-2l-2,-2v-1l-1,-1v1h-3v-1l1,-1h3l1,-1l2,-1v-1l-1,-1h-1l1,-1l-1,-1h-5l-1,-1h-1l1,-1h-1l1,-1l2,-1l1,-1h2ZM138,774h2l-1,1h-1l1,1l-2,1h-2v-2l1,1v-1ZM298,772h-2v-1ZM141,776l-2,1v-1l2,-2h2l1,1l-2,1ZM122,776h-2l-1,-1h1l2,-1l2,-2h2v1h2v1h-1l-3,1h-2ZM299,769v1h-3v-1h1ZM143,773v1l-1,-1h-1l1,-1h1l1,1ZM295,769l1,1h-2l-1,1l-2,-1l-1,-1h2ZM143,771h-1v1l-1,1h-2l1,-1h-1l1,-1h2ZM136,771h1v1h-4l-2,1h-1l1,-1h-1l-1,-1l2,-1h1l2,1l1,1v-2h2ZM246,780h-3l-2,-1v-1l1,-2h-1l1,-1l-1,-1h1l4,-2h2l-1,1l-2,1l-1,1v2l-1,1l1,1ZM145,770l1,1h1l-1,1h1l1,1h4v1h-7l-1,-1l1,-1v-1h-2l1,-1ZM134,769l-2,1h-4l2,-1h3ZM271,770l1,1v-1h2l2,1h1v1l-1,1h1l2,1v-1l1,1l1,-1h2l1,1h3l-2,-1h5l1,1v1h2l2,1l-1,-1h1l1,-1l2,1v-1h1l-2,-1h8l3,1l1,-1h2l2,2h2v-1h3l3,1v-1h-2v-1h7l8,5h-1l1,1l2,1h2v1h-1v1h-1l1,1v2l-2,-1v2l-1,-1v1h-1l2,2v1h1l3,2h-1l1,1h1v1l1,2h-1l1,2l1,1l-4,-2l-4,-3l-1,-2l-1,-1v-3l-1,-2v-1l-2,-2l-1,1l2,2l-3,-1l-1,1l1,2l1,1h-1l-1,1l-1,-1h-1v1h-4v7h1l2,1h1l-1,-1h1l3,1l1,2l1,1l1,2l2,2v9h-1l-1,-1v2h-1v1l1,1v1h-1v1l1,1h1l2,2v1l1,1v1l-1,1h-1l-1,-2l-1,-1h1l-2,-1v-1v1v-1h-1v-1l-1,-1h-2v1h-1l-1,-1l1,-1l-1,-1l-1,1v2h-1v1l2,2h1v-1h2l1,1l-2,1v2l2,2l1,2l2,1v2h1v6l-2,4l-1,1h-1v1l-1,-1v1l-2,1h-1v2l-1,-1v-1h-2l-1,2v2l1,1l1,2l2,2l1,3v4l-2,1v1l-2,1v-2l-1,-1h-1v-1l-2,-2h-1v-1h-1v6h1v3l1,1h1v1h1v1l1,1v3h1v2h-1l-2,-2v-1l-1,-1v-1l-1,-1v-2l-1,-1v-1h-1v-6l-1,-1v-1l-1,-2v-2l-1,-1l-2,2h-1v-3l-1,-2v-1h-1l-2,-2v-1l-1,-1h-1v2l-1,-1v1h-2v2l-2,1l-1,2v1l-2,2h-1v8l-1,1l1,1h-1l-1,1l-1,-1l-1,-2v-1l-1,-1v-1l-1,-2v-1l-3,-6v-3l-2,1h-1l-1,-2v-1l-2,-1l-1,-1v-1l-1,-1l-2,1h-5l-1,-1h-2v-2h-1l-1,1h-2l-3,-3l-1,-2l-1,1v-1l-1,1v2l1,1h1l1,1v2l1,1l-1,-1l1,-1v2h1v1l1,-1h2v-1l1,-1v-1v2l2,2h1l2,2l-1,1v1h-1v3h-1v1h-1v1h-2v1h-1l-2,2h-1l-2,2v-1l-1,1h-2v1h-2v-2l-1,-1v-3h-1v-1l-1,-1v-1l-1,-1h-1v-1l-1,-1v-3h-2v-2l-1,-1v-1l-2,-2v-1v1l-1,1l-1,-1l-1,-2l1,2l1,1l1,2v1l2,2h-1l2,2v1l1,1h-1l1,2v1l1,1l1,2v1l1,1l2,1v1h1v1h1v1l-1,1h1l1,1h3l1,-1h3v-1h1v2l-1,1v3l-1,1l-3,6l-1,1l-2,1l-1,1l-1,2v1h-1v1h-1v2l-1,1l-1,2l1,1v4l1,1v7l-1,1h-1l-3,3h-1v1l-1,1v2h1l-1,1h1v1l-1,1h1l-1,1h-1l-2,2v3l-3,3v1l-2,1v1l-1,1h-2v1l-1,-1v1l-1,-1l-1,1h-2l-1,1l-1,-1h-1v-5l-1,-1v-2l-1,-1v-1l-1,-1v-5l-1,-1v-1l-1,-2v-1l-1,-1v-3l1,-1v-3h1v-1l1,-1v-1h-1v-5l-1,-1v-2l-3,-3l-1,-2l1,-1v-5l-1,-1v-1l-1,1h-2l-1,-1v-1l-1,-1h-2l-1,1h-2l-1,1h-6l-1,1l-4,-4h-1l-1,-1v-1l-1,-1v-1h-1v-1l-1,-1v-1h-1v-3h-1l1,-1v-1h1l-1,-1l1,-1v-4l-1,-1v-1h1v-2l1,-1v-1h1v-2h1l1,-2h1l2,-2v-3l3,-3l1,-2v-1h1l1,1h2l1,-1h2l1,-1h4l1,-1h1v1h1l1,-1h1v1l1,-1v1h-1v1h1v2h-1v1h1v1h3l2,2h1l2,2l1,-1v-2l1,-1h2l1,1h1l1,1h2l1,1h1v-1h2l1,1v-1h1l1,1v-2l1,-1v-5h-2l-1,1l-1,-1h-2v1l-1,-1h-2v-1l-1,-1v-2l1,-1h1v-1h2l1,-1h1l2,-1l2,1l1,1h2l1,-1v-2h-1l-2,-2h-1l-1,-1l1,-1l-1,-1h2l-1,-1v1h-2l-1,1v1h1l-1,1h-1v-1h-1l1,-1h-2v-1h-1v1l-1,1v1h-1v4l1,1h-2v1h-1v-1h-2l1,1h-2v1l1,1h-1h1l1,1v1l-1,-1v1h-1l1,1h-2v-2l-1,-1v-1h-1v-3h-1v-1h-1l-1,-1h-1l-1,-1v-1l-1,-1v1v-1h-2v1l2,2v1l1,1h1l1,1h1l1,1v1l-1,-1h-1v1h1v1h-1v1h-1v-1h1l-1,-1v-1h-1l-1,-1h-1l-2,-2l-1,-2h-2v1h-4l-1,1v2h-2v1l-1,2h1l-1,1v1h-1l-1,1h-2l-1,1l-2,-2v1h-2l1,-1v-1h-1v-2l1,-1v-3l-1,-1l2,-1l1,1h5v-4l-1,-1v-1h-2v-1h3v-2l1,1l2,-1v-1h1l1,-1l1,-2l1,-1h2v-5h2l-1,1h1v1l-1,1v1h1v1l1,-1h2v1h1l2,-2l1,1h1v-1h1v-3l1,-1l1,1v-1l-1,-1v-1h4l1,-1h-4l-1,1l-2,-2v-4l2,-1v-1l-1,-1l-2,2l-1,2l-1,1v3h1v2h-1v2l-1,2h-1v1h-1v-2l-1,-1l-1,-2l-1,-1l-1,2h-1l-2,-1v-5l2,-1l3,-3l2,-3l3,-3h2l1,-2h3l2,1l-1,1h2l1,1h3l3,1l1,1v1l-1,1h-1l-3,-1h-1l2,1v2l1,1h1v-1h-1l1,-1l2,1v-1l1,-2h1l1,1v-1l-1,-1v-1l-1,-1l2,1h1l-1,1l1,1h1v-1l1,-1l2,-1h1v1l1,-1h1l1,-1l1,1l1,-1h-2l1,-1h2l1,1l4,1v-1h-2v-1h-1l-1,-1v-3h2l1,1v1h1l1,1l1,2h1v3l1,1v-1h1l-1,-1l1,-1h-1l-2,-2v-1l-2,-1l1,-1l-1,-1h1l1,2l-1,-1l1,-1h2l1,1l-1,-1l-1,-2h4l-2,-1v-1h1l1,-1h3l1,-1h1v-2l2,1h-1ZM253,820l1,1v2h-1v1l1,1h1l1,1h3l-1,-1v-2h-1v-2h1v-1l-1,-1h-1l1,1l-1,-1v-1h-2v-2h-1h1v-2l1,1v-3h-2l-1,1h-1v1h-1l-1,2l2,1v1l1,1Z"/>
<path class="tl" d="M146,770h-1v-1h1l1,1ZM137,769h-2l1,-1h1l1,1ZM220,771l-1,1h-1v-1h-1l2,-1v1ZM139,768h-2l1,-1v1ZM146,769h-1v-1h1l1,1ZM144,769h-1l-1,-1h-1h1v-1h1l1,1ZM268,768l-3,1v-2ZM215,769l3,1h-2v3h-1l-2,-1h1l-1,-1l-2,-1v-1l1,-1l1,1h1v-1h1ZM220,768h1l-1,1h-4l-1,-1h3ZM234,767l-1,1h-1v-1h-1h4ZM264,768h-4l-2,-1l-1,-1h1l1,-1l4,2ZM153,767v1h-1l-2,1h-2v-1h1h-1v-1l1,-1h2v-1h1v1h1ZM167,764h3v1h-3l-1,1h-1l-1,1l-2,1h-3v1h-1v1h-2l-2,1h1l-2,1h-4l-1,-1h2v-1h2v-1h-1h1l1,-1h1l-1,-1h4l-1,-1h-3v-1l1,-1h6v-1h3v1l2,-1l1,1ZM190,764l3,1h-6v1h5l-1,1l2,-1h4v1l-2,1h-1l-2,2v2l1,1h-2l1,1l-1,1v1h-1l1,1h-3l1,1v1l-1,-1l-1,1h1l1,1v1h-2l-1,-1v1l-1,1h3l-4,2h-3l-1,1l-4,2h-1l-2,1h-1v1l-2,2v1l-1,1l-1,2h-1l-1,-1h-1l-1,-1v-2l-1,-1v-1l1,-1l-1,-2l1,-1l1,-2h1l1,-1v-1l-1,1h-1v-1l1,-1h1l-1,-1h-1l1,-1v-4l-1,-1h-5v-1l-1,-1h1l-1,-1l1,-1h2l3,-1h1l-2,-1h1l3,-1h1v-1h9l1,1l-1,-1h1l2,-1h3l2,-1Z"/>
<path class="tg" d="M66,970h1l1,-1h4v-1h5v-1h5v-1h6v-1h6l1,-1h7v-1h8v-1h9l1,-1h11v-1h14v-1h20v-1h79v1h20v1h14v1h11l1,1h9v1h8v1h7l1,1h6v1h6v1h5v1h5v1h4l1,1h1M21,927h6v-1h7v-1h8v-1h10v-1h10v-1h12v-1h14v-1h18v-1h23v-1h38v-1h75v1h38v1h23v1h18v1h14v1h12v1h10v1h10v1h8v1h7v1h6M5,877h399M21,826h4v1h7v1h8v1h9v1h10v1h11v1h14v1h16v1h21v1h32v1h103v-1h32v-1h21v-1h16v-1h14v-1h11v-1h10v-1h9v-1h8v-1h7v-1h4M66,783v1h5v1h4v1h5l1,1h5v1h6l1,1h6l1,1h7v1h10v1h10v1h13l1,1h17v1h36v1h21v-1h36v-1h17l1,-1h13v-1h10v-1h10v-1h7l1,-1h6l1,-1h6v-1h5l1,-1h5v-1h4v-1h5v-1M140,755h-1v1h-3v1h-2v1h-2v1h-2v1h-2v1h-2l-1,1h-1l-1,1h-1l-1,1h-1v1h-2v1h-2v1h-2v1h-1l-1,1h-1v1h-2v1h-1l-1,1h-1v1h-2v1h-1v1h-2v1h-1v1h-2v1h-1v1h-1l-1,1h-1v1h-1v1h-2v1h-1v1h-1v1h-1v1h-2v1h-1v1h-1v1h-1v1h-1v1h-1v1h-1l-1,1h-1v1h-1v1h-1v1h-1v1h-1v1h-1v1h-1v1h-1v1h-1v1l-1,1v1h-1v1h-1v1h-1v1h-1v1h-1v1l-1,1v1h-1v1h-1v1h-1v2h-1v1h-1v2h-1v1h-1v2h-1v1h-1v2h-1v2h-1v1h-1v2h-1v2h-1v2h-1v2h-1v2l-1,1v2h-1v2l-1,1v2h-1v3h-1v4h-1v4h-1v5h-1v9h-1v13l1,1v8h1v5h1v4h1v4h1v3h1v3h1v2h1v3h1v2h1v2h1v2h1v2h1v2h1v2h1v1l1,1v1h1v2h1v1h1v2h1v1h1v1h1v2h1v1h1v1l1,1v1h1v1h1v1h1v1l2,2v1h1v1h1v1h1v1h1v1h1v1h1v1h1v1h1v1h1v1h1v1h1v1h1v1h1v1h2v1h1v1h1v1h1v1h1v1h1l1,1h1v1h1v1h1v1h2v1h1v1h1l1,1h1v1h1v1h2v1h1v1h2v1h1l1,1h1v1h2v1h1v1h2v1h2v1h1l1,1h1v1h2v1h2v1h2v1h2v1h2v1h2v1h2v1h2l1,1h2v1h2v1h2M153,755h-1v1h-2v1h-2v1h-1v1h-2v1h-2v1h-1v1h-2v1h-1v1h-2v1h-1v1h-2v1h-1v1h-1v1h-2v1h-1v1h-1l-1,1h-1v1h-1v1h-1v1h-1v1h-1l-1,1h-1v1h-1v1h-1v1h-1v1h-1v1h-1v1h-1v1h-1v1h-1v1h-1v1h-1v1h-1v1h-1v1h-1v1h-1v1h-1v1h-1v1l-2,2v1h-1v1h-1v1h-1v1l-1,1v1h-1v1h-1v2h-1v1h-1v1l-1,1v1h-1v2h-1v1h-1v2h-1v1h-1v2h-1v2h-1v2h-1v2h-1v2h-1v2h-1v2h-1v3h-1v2h-1v3h-1v3h-1v3h-1v3h-1v4l-1,1v4h-1v6l-1,1v30h1v6h1v5h1v4h1v3h1v3l1,1v2l1,1v2h1v3h1v2h1v2h1v2h1v2l1,1v1h1v2h1v2h1v2h1v2h1v1h1v2h1v1h1v2h1v1h1v2h1v1h1v1h1v2h1v1h1v1h1v1l1,1v1h1v1h1v1h1v1h1v1h1v1h1v1l3,3v1h1l3,3h1v1h1v1h1v1h1v1h1v1h1v1h1v1h1l1,1h1v1h1v1h1v1h1l1,1h1v1h1v1h1l1,1h1v1h1v1h2v1h1v1h2v1h1v1h2v1h2v1h1v1h2v1h1l1,1h1v1h2M166,755h-1v1h-1v1h-1l-1,1h-1v1h-1v1h-1v1h-1v1h-1v1h-1l-2,2h-1v1h-1v1h-1v1h-1v1h-1v1h-1v1h-1v1h-1v1h-1v1l-2,2v1h-1v1h-1v1h-1v1h-1v1l-1,1v1h-1v1h-1v1h-1v2h-1v1h-1v1l-1,1v1h-1v1h-1v2h-1v1h-1v2h-1v2h-1v1h-1v2h-1v2h-1v2h-1v1l-1,1v1l-1,1v1l-1,1v2h-1v2h-1v2h-1v3h-1v2h-1v3h-1v3h-1v3h-1v3h-1v4h-1v4h-1v5h-1v6h-1v8h-1v30h1v7l1,1v5h1v5h1v4h1v4h1v3h1v3h1v3h1v3h1v3h1v2h1v2h1v2l1,1v2h1v2h1v2h1v2h1v1h1v2h1v2h1v2h1v1h1v2h1v1h1v2h1v1l1,1v1h1v1h1v2h1v1h1v1h1v1l1,1v1h1v1h1v1h1v1l1,1v1h1v1h1v1h1v1h1v1h1v1h1v1h1v1h1v1h1v1h1v1h1v1h1v1h1v1h1v1h1l2,2h1v1h1v1h1v1h1v1h2v1h1"/>
<path class="tg" d="M179,755h-1v1h-1v2h-1v1h-1v1h-1v1h-1v2h-1v1h-1v1l-1,1v1h-1v1l-1,1v1h-1v1l-1,1v1h-1v2h-1v1l-1,1v1h-1v2h-1v2h-1v2h-1v2h-1v2h-1v2h-1v2h-1v2h-1v2l-1,1v2h-1v2l-1,1v2h-1v3h-1v3h-1v3h-1v3h-1v4h-1v4h-1v4h-1v4h-1v5l-1,1v5h-1v8h-1v11h-1v29l1,1v10l1,1v7h1v6h1v5h1v4l1,1v4h1v3l1,1v3h1v3h1v3h1v3h1v3h1v3h1v2h1v3h1v2h1v2h1v2l1,1v2h1v2h1v1l1,1v1l1,1v1h1v2h1v2h1v1l1,1v1h1v2h1v1h1v2h1v1h1v2h1v1h1v1l1,1v1h1v1h1v1h1v2h1v1h1v1h1M192,755h-1v3h-1v2h-1v3h-1v3h-1v3h-1v3h-1v3h-1v3l-1,1v3h-1v4h-1v4h-1v4l-1,1v4h-1v5h-1v6h-1v6l-1,1v7h-1v8h-1v11l-1,1v18h-1v29l1,1v18h1v11h1v8l1,1v7h1v6h1v6h1v5h1v5h1v4h1v4h1v4h1v4h1v3h1v3l1,1v3h1v2l1,1v2h1v3h1v3h1v2h1M205,755v243M217,755h1v3h1v2h1v3h1v3h1v3h1v3h1v3h1v3l1,1v3h1v4h1v4h1v4l1,1v4h1v5h1v6h1v6l1,1v7h1v8h1v11l1,1v18h1v29l-1,1v18h-1v11h-1v8l-1,1v7h-1v6h-1v6h-1v5h-1v5h-1v4h-1v4h-1v4h-1v4h-1v3h-1v3l-1,1v3h-1v2l-1,1v2h-1v3h-1v3h-1v2h-1M230,755h1v1h1v2h1v1h1v1h1v1h1v2h1v1h1v1l1,1v1h1v1l1,1v1h1v1l1,1v1h1v2h1v1l1,1v1h1v2h1v2h1v2h1v2h1v2h1v2h1v2h1v2h1v2l1,1v2h1v2l1,1v2h1v3h1v3h1v3h1v3h1v4h1v4h1v4h1v4h1v5l1,1v5h1v8h1v11h1v29l-1,1v10l-1,1v7h-1v6h-1v5h-1v4l-1,1v4h-1v3l-1,1v3h-1v3h-1v3h-1v3h-1v3h-1v3h-1v2h-1v3h-1v2h-1v2h-1v2l-1,1v2h-1v2h-1v1l-1,1v1l-1,1v1h-1v2h-1v2h-1v1l-1,1v1h-1v2h-1v1h-1v2h-1v1h-1v2h-1v1h-1v1l-1,1v1h-1v1h-1v1h-1v2h-1v1h-1v1h-1M243,755h1v1h1v1h1l1,1h1v1h1v1h1v1h1v1h1v1h1l2,2h1v1h1v1h1v1h1v1h1v1h1v1h1v1h1v1h1v1l2,2v1h1v1h1v1h1v1h1v1l1,1v1h1v1h1v1h1v2h1v1h1v1l1,1v1h1v1h1v2h1v1h1v2h1v2h1v1h1v2h1v2h1v2h1v1l1,1v1l1,1v1l1,1v2h1v2h1v2h1v3h1v2h1v3h1v3h1v3h1v3h1v4h1v4h1v5h1v6h1v8h1v30h-1v7l-1,1v5h-1v5h-1v4h-1v4h-1v3h-1v3h-1v3h-1v3h-1v3h-1v2h-1v2h-1v2l-1,1v2h-1v2h-1v2h-1v2h-1v1h-1v2h-1v2h-1v2h-1v1h-1v2h-1v1h-1v2h-1v1l-1,1v1h-1v1h-1v2h-1v1h-1v1h-1v1l-1,1v1h-1v1h-1v1h-1v1l-1,1v1h-1v1h-1v1h-1v1h-1v1h-1v1h-1v1h-1v1h-1v1h-1v1h-1v1h-1v1h-1v1h-1v1h-1v1h-1l-2,2h-1v1h-1v1h-1v1h-1v1h-2v1h-1M256,755h1v1h2v1h2v1h1v1h2v1h2v1h1v1h2v1h1v1h2v1h1v1h2v1h1v1h1v1h2v1h1v1h1l1,1h1v1h1v1h1v1h1v1h1l1,1h1v1h1v1h1v1h1v1h1v1h1v1h1v1h1v1h1v1h1v1h1v1h1v1h1v1h1v1h1v1h1v1h1v1l2,2v1h1v1h1v1h1v1l1,1v1h1v1h1v2h1v1h1v1l1,1v1h1v2h1v1h1v2h1v1h1v2h1v2h1v2h1v2h1v2h1v2h1v2h1v3h1v2h1v3h1v3h1v3h1v3h1v4l1,1v4h1v6l1,1v14l1,1h-1v15h-1v6h-1v5h-1v4h-1v3h-1v3l-1,1v2l-1,1v2h-1v3h-1v2h-1v2h-1v2h-1v2l-1,1v1h-1v2h-1v2h-1v2h-1v2h-1v1h-1v2h-1v1h-1v2h-1v1h-1v2h-1v1h-1v1h-1v2h-1v1h-1v1h-1v1l-1,1v1h-1v1h-1v1h-1v1h-1v1h-1v1h-1v1l-3,3v1h-1l-3,3h-1v1h-1v1h-1v1h-1v1h-1v1h-1v1h-1v1h-1l-1,1h-1v1h-1v1h-1v1h-1l-1,1h-1v1h-1v1h-1l-1,1h-1v1h-1v1h-2v1h-1v1h-2v1h-1v1h-2v1h-2v1h-1v1h-2v1h-1l-1,1h-1v1h-2"/>
<path class="tg" d="M269,755h1v1h3v1h2v1h2v1h2v1h2v1h2l1,1h1l1,1h1l1,1h1v1h2v1h2v1h2v1h1l1,1h1v1h2v1h1l1,1h1v1h2v1h1v1h2v1h1v1h2v1h1v1h1l1,1h1v1h1v1h2v1h1v1h1v1h1v1h2v1h1v1h1v1h1v1h1v1h1v1h1l1,1h1v1h1v1h1v1h1v1h1v1h1v1h1v1h1v1h1v1l1,1v1h1v1h1v1h1v1h1v1h1v1l1,1v1h1v1h1v1h1v2h1v1h1v2h1v1h1v2h1v1h1v2h1v2h1v1h1v2h1v2h1v2h1v2h1v2l1,1v2h1v2l1,1v2h1v3h1v4h1v4h1v5h1v9h1v13l-1,1v8h-1v5h-1v4h-1v4h-1v3h-1v3h-1v2h-1v3h-1v2h-1v2h-1v2h-1v2h-1v2h-1v2h-1v1l-1,1v1h-1v2h-1v1h-1v2h-1v1h-1v1h-1v2h-1v1h-1v1l-1,1v1h-1v1h-1v1h-1v1l-2,2v1h-1v1h-1v1h-1v1h-1v1h-1v1h-1v1h-1v1h-1v1h-1v1h-1v1h-1v1h-1v1h-1v1h-2v1h-1v1h-1v1h-1v1h-1v1h-1l-1,1h-1v1h-1v1h-1v1h-2v1h-1v1h-1l-1,1h-1v1h-1v1h-2v1h-1v1h-2v1h-1l-1,1h-1v1h-2v1h-1v1h-2v1h-2v1h-1l-1,1h-1v1h-2v1h-2v1h-2v1h-2v1h-2v1h-2v1h-2v1h-2l-1,1h-2v1h-2v1h-2"/>
<rect x="372" y="834" width="21" height="21" fill-opacity="0" stroke="#ffffff" stroke-opacity="0.5" stroke-width="5.0"/>
<rect x="374" y="836" width="21" height="21" fill-opacity="0" stroke="#113311" stroke-opacity="0.8" stroke-width="5.0"/>
<rect x="373" y="835" width="21" height="21" fill-opacity="0" stroke="#45a249" stroke-opacity="0.9" stroke-width="5.0"/>
<rect x="112" y="840" width="21" height="21" fill-opacity="0" stroke="#ffffff" stroke-opacity="0.5" stroke-width="5.0"/>
<rect x="114" y="842" width="21" height="21" fill-opacity="0" stroke="#113311" stroke-opacity="0.8" stroke-width="5.0"/>
<rect x="113" y="841" width="21" height="21" fill-opacity="0" stroke="#45a249" stroke-opacity="0.9" stroke-width="5.0"/>
<rect x="-2" y="818" width="39" height="69" fill-opacity="0" stroke="#ffffff" stroke-opacity="0.5" stroke-width="5.0"/>
<rect x="0" y="820" width="39" height="69" fill-opacity="0" stroke="#113311" stroke-opacity="0.8" stroke-width="5.0"/>
<rect x="-1" y="819" width="39" height="69" fill-opacity="0" stroke="#45a249" stroke-opacity="0.9" stroke-width="5.0"/>
</svg>
