<svg xmlns="http://www.w3.org/2000/svg" xmlns:xlink="http://www.w3.org/1999/xlink" version="1.1" x="0px" y="0px" viewBox="0 0 100 125" enable-background="new 0 0 100 100" xml:space="preserve"><path d="M91,35.9l0.1,0.3c0.1,0.3,0.2,0.5,0.3,0.8l0.1,0.2c0.1,0.8,0.4,1.6,0.5,2.5l0.1,0.4l0.2,0.3l0.2,0.5l0.3,0.5l0.1,0.4  l0.1,0.3l0.2,0.1l0.1,0.3l0.1-0.3l0.1-0.1l0.1-0.2l0.1-0.2l0-0.3c0-0.4-0.1-0.7-0.2-1.1l0-0.2l0-0.2l0.1-0.3l0.1,0l0-0.1l0.1,0.1  l0.1,0.3c0,0.3,0.1,0.6,0.1,0.9l0,0.1c0.1,0.3,0.1,0.6,0.1,0.9l-0.1-0.2l0,0l0,0.1l0,0c0,0.2,0.1,0.4,0.1,0.5l0,0.1l0,0.3l0,0.1  l0.1,0.4l0,0.2l0,0l0,0.3l0.1,0.1l0-0.1c0,0,0,0.1,0.1,0.1l0-0.1l0,0l0,0.1l0,0l0,0c-0.5-3.6-1.4-7-2.7-10.3l-0.1-0.1l0,0.2l-0.1,0  l-0.1,0.1l0,0.1l0.1,0.2l0.1,0.3l0.1,0.1l0,0.1l-0.1-0.1l0,0.2l-0.1,0l-0.2-0.3l-0.1,0.2l-0.2-0.1l-0.1,0.1L91,34.6l0,0.6L91,35.5  L91,35.9z M76.1,13.5c0.2,0.2,0.5,0.4,0.7,0.6l0.3,0.4l-0.1,0.1l0.2,0.2l0.4,0.3l0,0.1c0.5,0.7,1.1,1.4,1.8,2l0.3,0  c0.3,0.3,0.6,0.5,1,0.8l0-0.2l0.4,0.1l0.3,0.1l0.3,0.2l0.2,0.1l0.2,0.1l0,0c-1.4-1.4-2.9-2.7-4.4-3.9l0.3,0.3l-0.3-0.2l0,0.1  l-0.2-0.3c-0.3-0.3-0.6-0.5-1-0.8l0.1,0l0.3,0.2l-0.1-0.1l0.1,0.1c-0.2-0.2-0.4-0.3-0.7-0.5l0,0.1l-0.2-0.1L76.1,13.5z M6.5,61.5  L6.5,61.5C6.5,61.5,6.5,61.5,6.5,61.5L6.5,61.5z M94.8,46.1l-0.1-0.3l0-0.1l0,0.1v-0.1l0-0.2l0,0l0,0.2l-0.1,0l0,0l-0.1-0.1l-0.1,0  l-0.1-0.1l-0.1-0.1l-0.1,0l-0.1-0.1c-0.1-0.3-0.3-0.6-0.4-1l-0.1-0.2L93.5,44l-0.1,0.1l-0.1,0.3l-0.1,0.1l-0.2-0.1l-0.2-0.1  l-0.3-0.3l-0.2,0l-0.3-0.3l-0.3-0.3l-0.1-0.2l-0.2,0l-0.3-0.2L91,42.9l-0.4-0.3l-0.2-0.4l-0.1-0.3l0.1-0.1l-0.1-0.2l0-0.2L90.2,41  L90,40.7l-0.1-0.3l-0.2-0.3l-0.5-0.6L88.8,39l-0.3-0.4l-0.4-0.2L88,38.2l-0.1-0.4l-0.2-0.1l-0.3-0.3l-0.2-0.5l-0.2,0  c-0.2-0.2-0.4-0.4-0.6-0.6L86.2,36l-0.4-0.5L85.5,35l-0.1-0.3l-0.4-0.2L85,34.6l-0.3-0.2l0,0.3l0.2,0.3l0.2,0.5l0.2,0.3l0.4,0.4  l0.1,0.2l0.1,0l0.1,0.2l0.1,0l0.2,0.4l0.2,0.2l0.2,0.2l0.3,0.3l0.3,0.6c0.1,0.2,0.3,0.4,0.4,0.6l0.1,0.4l0.2,0  c0.2,0.2,0.3,0.4,0.4,0.6l0,0.1l-0.1,0.3l-0.1,0l-0.2-0.4l-0.3-0.4l-0.4-0.3l-0.2-0.1l-0.1-0.5l-0.2-0.4c-0.2-0.2-0.4-0.3-0.6-0.5  l0,0.1l-0.2-0.2l-0.3-0.1l-0.4-0.4l0-0.1l0.2,0l0.1-0.3l-0.1-0.3l-0.5-0.4L84.9,36c-0.5-0.7-1.1-1.5-1.6-2.3l-0.4-0.3l-0.2-0.1  l-0.1-0.2l-0.3,0L82.1,33l-0.4,0l-0.2-0.1l-0.2-0.4l-0.7-0.6l-0.7-0.9l0-0.2l-0.3-0.2L79,30.2l-0.3-0.5l-0.4-0.3l-0.1-0.5L78,28.3  l-0.4-0.5l-0.1-0.6L77,26.1l-0.5-0.8l-0.4-0.5l-0.3-0.3l0-0.1l0.7,0.1l0.5,0.5l0-0.2l-0.3-0.5L76.3,24l-0.1,0  c-0.5-0.2-1-0.4-1.6-0.7l-0.9-0.2l-0.5-0.5l-0.1-0.4l-0.7-0.2l-0.3-0.4l-0.7-0.4l-0.2-0.3l-0.4-0.2l-0.5-0.1L70,20.3l-0.8-0.4  l-0.5-0.5c-0.4,0-0.7,0-1.1,0l-0.6-0.1l-1.2-0.5c-0.4-0.1-0.9-0.1-1.3-0.2l-0.6,0.1l-1-0.2l-0.6-0.2l-0.5,0.1l0.3,0.4l-0.2,0  l-0.5,0.1l-0.4,0.2l-0.5,0.1l-0.2-0.3l0-0.5l0.4-0.2l-0.2-0.1L60,18.6L59.8,19l-0.6,0.4l0.4,0.2L59.3,20l-0.5,0.2l-0.5,0.2l-0.1,0.2  L57.5,21l-0.1,0.3l-0.6,0.3l-0.4,0c-0.5,0.2-1,0.4-1.5,0.6l-1,0.2l-0.1-0.1l0.6-0.3l0.5-0.2l0.5-0.3l0.7-0.1l0.2-0.2l0.7-0.4  l0.1-0.1l0.3-0.2l0-0.4l0.2-0.3l-0.6,0.2L57,19.8L56.8,20l-0.4-0.3l-0.1,0.2L56,19.6l-0.5,0.2c-0.1,0-0.2,0-0.3,0l-0.1-0.3l0.1-0.2  l-0.4-0.2l-0.7,0.1l-0.5-0.2L53.3,19l0-0.3l-0.4-0.2l0.2-0.3l0.4-0.3l0.1-0.3l0.4,0l0.3,0.1l0.3-0.2l0.4,0l0.3-0.2L55.1,17l-0.3-0.1  l0.3-0.2l-0.3,0l-0.5,0.1L54.2,17l-0.4-0.1L53.2,17l-0.7-0.1l-0.2-0.2l-0.6-0.3l0.6-0.2l1-0.3c0.1,0,0.2,0,0.4,0l0,0.2l1,0l-0.4-0.3  l-0.6-0.2l-0.4-0.2l-0.5-0.2l-0.6-0.1l0.2-0.2l0.8,0l0.5-0.2l0.1-0.2l0.4-0.2l0.4-0.1l0.7-0.2l0.4,0l0.5-0.3l0.6,0.1l0.4,0.2  l0.1-0.1l0.7,0l0,0.1l0.6,0l0.4-0.1l0.9,0.1l0.7,0l0.3,0l0.4-0.1l0.6,0.1c0.4,0,0.8,0.1,1.2,0.1l0.7,0.2l0.4,0l0.2-0.2l0.3-0.2  l0.5,0l0.3-0.2l0.4-0.2l0.4,0.2l0.1-0.1l-0.1-0.2l0.2,0l0.9,0.3l0.1-0.3l0.4,0.3l0.3-0.1l0-0.1l0.4,0l0.6,0.1c0.4,0,0.8,0.1,1.2,0.1  l0.2-0.1l0.6,0.2l-0.1,0.3l0.5,0l0.5-0.2l0.1-0.1l0.5,0.2l-0.1-0.3l-0.4-0.1L72,13.5l0.2-0.1l0.1-0.1l0.3,0.1l0.5,0.2l0.1-0.1  l0.5,0.1l0.1-0.1l0.2-0.1l-0.4-0.3l0-0.1l0.4,0.1l0.5,0.4l-0.4-0.4l0.1,0l-0.5-0.4l-0.5-0.2L73,12.4l-0.6-0.4L72,11.6l0.2,0l0.4,0.1  l0.8,0.4l0.2,0.2l0.3,0l0.6,0.4l-0.4-0.4l0.4,0.2l0.4,0.3l0.4,0.2L75,12.8l-0.5-0.4L73.9,12l0.1,0l0,0c0,0-0.1,0-0.1,0l-0.1,0  l-0.2,0l-0.2,0l-0.3-0.1L73,11.6l-0.1,0.1l-0.6-0.4l-0.5-0.4l-0.2-0.2l-0.1-0.2l0.4,0.3l0.4,0.2l-0.5-0.3l-0.1-0.1  c-0.2-0.1-0.4-0.2-0.6-0.3l0,0.1L71,10.5l-0.2,0l-0.4,0c-0.2-0.1-0.5-0.2-0.7-0.3L69.4,10l-0.2,0L68.9,10l-0.2-0.1l0.2-0.1l0.3,0.1  l0.1-0.1l0.3,0.1l0.2,0.1l0.2,0l0.2,0.1l0.1,0l0.1,0l-0.1-0.1l0-0.1c-0.1-0.1-0.3-0.1-0.4-0.2l0,0.1l-0.1,0l-0.1,0.1l-0.3-0.1  l-0.1-0.1l-0.5-0.2l0,0l0.4,0l-0.4-0.1l-0.2,0L68.2,9l-0.1-0.1l-0.2-0.1l-0.3-0.1l-0.4-0.1l0.1-0.1l0.1,0l0,0  c-0.1,0-0.2-0.1-0.3-0.1l0,0l0,0.1l-0.3,0l-0.3-0.1l-0.3,0l-0.2-0.1l-0.1-0.1l0,0l0-0.1l-0.2-0.1l0.1,0l0.2,0  C54.1,3.5,40.7,4.2,29.5,10l0,0.1l0.3-0.1l0.3-0.1l0.3-0.1l-0.1,0.2l-0.2,0l0,0.1l-0.3,0.2l0.2-0.1l0.2,0.1l-0.1,0.2l-0.2,0.2  l-0.3,0.2C29.3,10.9,29,11,28.7,11l-0.2,0.1l0,0.1l0,0.1l0.2,0l-0.3,0.3l0.2-0.1l0.3,0l0.3,0.2l-0.2,0.2l0.6,0.2l0.4-0.3l0.3,0.1  l0.3,0l0,0.3l-0.2,0.3l-0.3,0.1L29.7,13l0.1,0.2l0.7-0.4l0.1,0.2l0.5-0.1l0.3,0.2l0.3-0.1l0.4,0.1l0.2-0.4l0.5-0.1  c0.7,0.2,0.7,0.2,2.3,0.5l0,0.3l0.6,0.4l1.4,0l0.7,0.1l0.2,0.2L38,14.4l0.4,0.1l0.6-0.1l0.7,0l0.7,0.1l0.8,0l0.5,0.4l0.6-0.1  L42,14.5l0.3-0.2l1.3,0.2l0.9,0l1.2,0.2l0.6,0.2c0,0,0,0,0,0c0.7,0.2,1.5,0.5,2.2,0.8L48.3,16l0.3,0.1l-0.1-0.3l1.3,0.1l0.9,0.4  l-0.5,0.2l-0.8,0.1l0,0.5l-0.2,0.1l-0.5,0l-0.4-0.2l-0.6-0.1l-0.1-0.2l-0.5-0.1l-0.6,0.1l-0.2-0.2l0.1-0.2L46,16.3l0.2,0.2l-0.3,0.2  c0,0,0,0,0,0v0L45.2,17l-0.6,0l0.4,0.3l0.2,0.4l0.2,0.1l0,0.2l-0.2,0.1L44.4,18l-1.5,0.4l-0.5,0.1c-0.6,0.2-1.1,0.4-1.7,0.6  l-0.3,0.2l-0.6-0.4l-1.4,0.4l-0.1-0.2l-0.6,0.2l-0.6-0.1l-0.3,0.3L36,20l-0.1,0.2l0.5,0.1l-0.4,0.8l-0.5,0l-0.4,0.5l0.1,0.2l-1,0.2  l-0.4,0.6l-0.8,0.1l-0.4,0.6l-1,0.5l0-0.4c0.1-0.7,0.3-1.4,0.5-2.1l0.6-0.7l0.5-0.3l0.1-0.3l0.8-0.1c0.7-0.4,1.4-0.8,2.2-1.1l1-0.4  l0.7-0.7l-0.6,0l-0.5,0.4l-1.4,0.5l-0.1-0.6l-1.2,0.1L32.8,19l0.2,0.3c-0.6,0-1.1,0.1-1.7,0.1l0.3-0.4L31,19l-0.7,0.2L29.2,19  l-1.3,0c-1.4,0.7-2.8,1.3-4.1,2l0.5,0.1l-0.1,0.4l0.3,0.2l0.4-0.3l0.4,0.1l0.2,0.7l-0.3,0.5l-0.6,0.5L24,23.9l-0.7,0.9l-1.1,0.8  L21.9,26c-0.8,0.5-1.5,1.1-2.2,1.6L18.9,28l-0.2,0l-0.1-0.3L17.9,28l-0.2,0.2l-0.1-0.1l-0.3,0.2l-0.2,0.2L16.9,29l-0.2,0.1l-0.1,0.1  l-0.2,0.2l-0.3,0.1l-0.2,0.1l-0.1,0.3l-0.1,0.1l0.1,0.1l0.1,0.3l0,0.8l-0.1,0.4l-0.3,0.8l-0.3,0.3l-0.4,0.1L14.3,33L14,33l0.1-0.4  l0.3-0.5l0.1-0.7l0.3-0.1l0-0.6l-0.1-0.2l-0.1,0.1l-0.1,0l0-0.1l-0.1-0.1l0-0.1l0.2-0.3l0.1-0.1l0-0.1l0.2-0.3l0-0.1l-0.1-0.1  l-0.1-0.2l-0.5,0.1L14,29.6l-0.4,0.1l0.3-0.3l0.1-0.3l0.4-0.4l0-0.4l-0.4,0.2L13.6,29l-0.4,0.4l-0.3,0l-0.3,0.3l-0.1,0.5l0.1,0.2  l-0.1,0.3l0.1,0.2l0.5-0.4l0.1,0.3l0.2,0.1l-0.1,0.3L13,31.2l-0.3,0.3l-0.4,0.3l-0.3,0.4l0.1,0.4l-0.2,0.7L11.8,34l0,0.6l-0.2,0.5  l-0.2,0.1l-0.1,0.4l0.1,0.2c-0.2,0.4-0.3,0.7-0.5,1.1l-0.2,0c-0.5,0.8-0.9,1.6-1.4,2.4c-0.3,0.4-0.7,0.7-1,1.1l-0.3,0l-0.2,0.3  l0-0.3l-0.2,0.3L7.3,41L7,41l-0.2,0.7l-0.1,0l0.1-0.5l0.1-0.3l-0.2-0.3l-0.1,0.1l-0.3,0.5l-0.2,0.6L6,42.3c0,0.6-0.1,1.2-0.1,1.9  l0.1,0.5l0,0.6c0,0.9-0.1,1.8-0.2,2.7l-0.2,0.4l-0.2,0.4c-0.1,0.4-0.2,0.8-0.3,1.2l0-0.5l0-0.5l-0.1-0.5L5,48.4l0,0  c-0.1,3.2,0.1,6.5,0.7,9.7l0.1,0.2l0.1,0.1L6,58.9c0.1,0.7,0.2,1.3,0.4,2l-0.1,0c0.1,0.2,0.1,0.5,0.2,0.7l-0.1-0.6L6.6,61l0.2,0.3  l0.1,0.1l0.1,0.3l0.3,0.2l0-0.3l0.4,0.5l0.2,0.5l0.4,0.2l0.4,0.5l-0.2,0.2L8,63.2l-0.2,0L7.6,63l-0.2-0.2l-0.3-0.4l-0.1-0.1l0,0.1  L6.7,62l-0.1-0.3l-0.1-0.1c3.9,14.7,15.1,26.5,29.4,31.2l0,0l0.1,0c0.1,0,0.2,0,0.3,0c0.1,0,0.1,0,0.2,0c-0.1-0.1-0.3-0.1-0.4-0.2  l0.3,0.1c0.3,0.1,0.5,0.2,0.8,0.3l0.2,0.1c0.5,0,1,0.1,1.6,0.1l0.3,0.1l0.1,0.1c0.6,0.2,1.3,0.2,1.9,0.4l0.3,0l0-0.1  c0.3,0.1,0.6,0.1,0.9,0.2c0.2,0,0.4,0,0.6,0.1l0.2,0.1l0.3,0.1l0.3,0.1l0.3,0c0.7,0,1.3,0.1,1.9,0.2l0.2,0l0.1,0.1l0,0l0,0.1l0,0  l0,0l-0.2,0l0,0l-0.2,0l0,0l0,0l0,0l0.1,0l0.1,0l0.1,0c2.2,0.2,4.3,0.2,6.5,0.1l0.1,0l0.1,0l0.1,0c0.2,0,0.4,0,0.6,0l0,0  c0.5,0,0.9-0.1,1.4-0.1l0.1,0l0.1,0l0.2,0l0.3,0l0,0c0.2,0,0.4,0,0.6-0.1c0.5,0,0.9-0.1,1.3-0.2c0.1,0,0.1,0,0.2,0l0.2,0  c17-2.9,31.2-15.9,35.7-32.5C94.8,56.7,95.3,51.4,94.8,46.1z M70.9,10.7l0.3,0l0.5,0.4l0,0.1l0.4,0.3l-0.1,0l-0.6-0.3L71,11.1  l-0.2-0.2l-0.1-0.1L70.9,10.7z M70.6,11.2l0.1-0.1l0.2,0.1l0.2,0.2l0.4,0.1l0.5,0.3l0,0.2l-0.2,0l-0.3-0.1l-0.8-0.2l-0.2-0.1l0.3,0  l-0.5-0.2l-0.1-0.2L70.6,11.2z M70.3,11.7c0.4,0.2,0.7,0.4,1.1,0.6c0.4,0.1,0.7,0.2,1.1,0.2l0.2,0.2l-0.2,0.1l0.3,0.1l0.2,0.2  l-0.4,0l-0.4,0L72,13.2l-0.2,0.2c-0.3,0.1-0.5,0.2-0.8,0.3l-0.4-0.2l-0.5-0.1L70,13.5l-0.7-0.3l0.1-0.1l0.3-0.1l0.3,0l0.2-0.1  l-0.5,0L69.2,13l-0.4,0l-0.3-0.1l0.3-0.2l-0.4,0.1l-0.6,0l-0.2-0.3l0-0.2l0.3-0.3l0.3,0l0.1,0.2l0.3-0.2l0.5,0.1l-0.1-0.2l0.3,0.1  l0.7,0.3l-0.1-0.2l-0.7-0.4l0.1-0.1l0.3,0L70.3,11.7z M66.9,11.2l-0.4,0l-0.2-0.4l0-0.1l0.7,0l0.6,0.2l0.3,0l-0.8-0.3l-0.1-0.2  l0.2,0c0.2,0.1,0.4,0.2,0.6,0.3l0-0.1l0.2,0l0.3,0.2l0.2,0.2l-0.5,0.2l-0.2,0.2l-0.3,0.1l-0.2-0.1l0.2-0.2  C67.5,11.1,67.2,11.2,66.9,11.2z M67.6,9.6l0.3,0.1l-0.3,0l-0.4,0l-0.3,0.1l-0.1-0.1l-0.3,0l-0.2-0.1l0.3,0l0.5,0L67.6,9.6z   M67.4,9.4l0.1,0l0.1,0L68,9.4l0.2,0.1l0,0.1l-0.2,0l-0.3-0.1L67.4,9.4z M68.7,10.3l0-0.2l0.2,0l-0.1,0l0.4,0.1l0.3,0.2l0.4,0.3  l-0.1,0.1l-0.2,0l-0.4-0.2L69,10.6l-0.5-0.3L68.7,10.3z M66.3,8.5l0.4,0.1c0.1,0,0.3,0,0.4,0l0.5,0.2l0.2,0.1L68,8.9l0.4,0.3l0,0.1  l-0.2,0l-0.3-0.1l-0.2-0.1L67.5,9l-0.1,0.1L67.1,9l-0.3-0.1c-0.1-0.1-0.3-0.2-0.4-0.3l0-0.1l-0.2-0.1L66.3,8.5z M66.1,11.6l0.4,0  l0.6-0.1c0.3,0.1,0.5,0.1,0.8,0.2l-0.1,0.1v0l-0.2,0.4l0,0.3c0.1,0.1,0.1,0.1,0.2,0.2l-0.4,0.3L67,12.9l-0.9-0.1l-0.1-0.1L66,12.3  L65.9,12l-0.5-0.2L66.1,11.6z M7.5,50.6l0.2-0.4l0.2-0.5L8.1,49l0,0.6L7.9,50l-0.2,0.5l-0.4,0.6L7.5,50.6z M7.9,58.1l-0.2,0.4  c0.1,0.6,0.2,1.2,0.2,1.8L7.8,60l-0.2,0.2l-0.2-0.5l-0.2-0.1l-0.1-0.3L7,59.6l-0.1-0.4l-0.1,0l-0.2-0.1l-0.2-1l-0.1-0.2l-0.2-0.7  C6,56.7,6,56.3,5.9,55.9l0-0.5l0.1,0.3l0.1-0.1l0-0.6l0.1-0.1l0.2-0.1c0.1-0.3,0.1-0.7,0.2-1l0.1-0.3L7,53.2l0.2-0.5l0.1-0.6l0.1,0  l0.1,0.4l0,0.3l0.2,0.3l0.2,0.3l0,0.3l-0.2,0l0.1,0.4l-0.2,0.2L7.5,55l0.3,0.8l0,0.3l0.4,0.8l-0.3,0l0,0.5L7.9,58.1z M10.2,51.4  c0,0.4,0.1,0.8,0.1,1.2l-0.1,0.7l-0.1-0.8l-0.2,0.4l0.1,0.6l-0.1,0.3l-0.4-0.5l-0.1-0.6l0.1-0.3L9.3,52l-0.1,0.3L9,52.2l-0.2,0.4  l-0.1-0.2l0.1-0.6l0.2-0.2l0.2-0.2l0.1,0.4l0.3-0.2l0.1-0.3l0.3,0l0-0.6l0.3,0.4L10.2,51.4z M9.5,49.4l-0.1,0.7l-0.1,0.2l-0.1,0.5  L9.1,51l-0.2-0.6c0-0.1,0.1-0.3,0.2-0.4l0.1-0.5l0.2,0l-0.1,0.5L9.5,49.4z M10,48.5l0.1,0.3l0.1,0.9l-0.3-0.2l0,0.3l0.1,0.5  l-0.2,0.1l0-0.5l-0.1-0.1l0-0.5l0.2,0.1l0-0.3l-0.2-0.6L10,48.5z M8.5,45.3l0.1,0.3l0.2-1.1L9,43.8l0.2,0l0.2,0.2l0.1-0.2l0,0.2  l-0.1,0.3l0,0.6l-0.2,0.6L9,45.8l-0.1,0.6l0,0.6l0.2,0.1L9.2,47l0.4,0.5l-0.1,0.4l0.1,0.2l-0.1,0.3L9.3,48l-0.1-0.4l-0.1,0.3L9,47.4  l-0.3,0l-0.1-0.2l0-0.3l0.1-0.2l-0.1-0.2l-0.1,0.3l-0.1-0.5l0-0.3L8.5,45.3z M9.2,63.9L9.2,63.9l-0.2,0l-0.1,0l0-0.4l0.1,0l0-0.2  l0.1,0.2l0.2,0l0.1,0.3L9.2,63.9z M9.5,61.1l0-0.3l-0.3-0.5l-0.1-0.7l-0.2,0.2c0.1,0.6,0.3,1.3,0.4,1.9l-0.2,0.1L9,61.5l-0.1-0.6  l-0.2-0.7l-0.1,0l-0.2-0.5l0-0.4l0-0.6l0-1.1l0-0.3l0.2-0.5L8.9,57l0.4,0.2l0.4,0l0.3-0.5l0.1,0.2l-0.2,0.7l-0.2,0.1l-0.3-0.2  l-0.5-0.1l-0.3,0l0,0.5l0.4,0.7L9,58.4l0.6-0.1l0,0.3l-0.2-0.1l-0.1,0.4l-0.2,0.2l0.4,1l0,0.2l0.4,0.9l0.1,0.5L10,61.9l-0.2-0.3  l0-0.6l-0.3,0.2L9.5,61.1z M10.1,64.1L9.7,64c0-0.1,0-0.2-0.1-0.3l0.2-0.1l0.2,0.3l0.2,0l0.2-0.2l0.1,0.4L10.1,64.1z M23.6,25.9  l0.3-0.6l0.3-0.6l0.3-0.4l0.5-0.8l0.1-0.6l0.5-0.8l0.5-0.2l0-0.3l0.2-0.1c-0.1,0.3-0.2,0.6-0.3,0.9L25.7,23l-0.2,0.6l-0.1,1.1  l-0.5-0.3l-0.7,0.8l0.1,0.7l-0.2,0.4L23.9,26l-0.5,0.4L23.6,25.9z M21.4,28.4l0.4-0.5l0.5,0l0.5-0.8l0.4-0.5l0.2,0.7l0.3,0.2  l0.3,0.2l0.4-0.2l-0.2,0.7l-0.8,0.1l-0.7,0.6l-0.5-0.5l-0.5,0.7l-0.5,0L21.4,28.4z M23.5,62.4l0.4,0l0.1,0.1l0,0.4l-0.1,0.4l-0.3,0  l-0.1,0.2c-0.2,0.1-0.4,0.2-0.6,0.3c-0.1,0-0.2,0-0.3,0l-0.5-0.2l-0.4-0.2l0-0.2l0.5,0.1l0.3,0l0-0.3l0.1,0l0.1,0.4l0.3,0l0.1-0.2  l0.3-0.2L23.5,62.4z M14.9,34.6l-0.2-0.2l0-0.5l0.4-0.2l0.4-0.4l0.5-0.3l0.5-0.4l0.9-0.1l0.4,0.2l0.9-1.1l0.2,0.3  c0.4-0.3,0.8-0.5,1.2-0.8l0.6-0.8l0.2-0.7l0.4-0.4l0.5-0.1l-0.1,0.9l-0.2,0.5h0l-0.7,0.6L20.5,32l-0.4,0.5l0,0.3l-0.4,0.4L19,33.5  l-0.8,0l-0.9,0.7l-0.2-0.3l0.2-0.5l-0.8,0.1l-0.6,0.3l-0.5-0.1l0.2,0.6L15,35.3l-0.3,0.2l-0.1-0.3L14.9,34.6z M12.9,58.9l0.2-0.2  l0.7,0.4l0.1,0.3l0.3,1.2l0.5,0.5l0.3-0.7l0.5-0.4c0.1,0,0.3,0,0.4,0c0.3,0.2,0.6,0.4,0.9,0.6l0.6,0.2l1,0.6l1.1,0.5  c0.3,0.3,0.5,0.5,0.8,0.8l0.1,0.4l1,0.5l0.2,0.4l-0.5,0l0.2,0.5l0.6,0.5l0.5,0.8l0.3,0l0,0.3l0.5,0.1L23,66.4l0.7,0.3l0,0.2l-0.4,0  l-0.2-0.2c-0.4-0.1-0.7-0.2-1.1-0.3L21.5,66l-0.4-0.4l-0.4-0.6l-0.8-0.4l-0.4,0.2l-0.3,0.2l0.2,0.5L19,65.7l-0.3-0.1l-0.5-0.1  l-0.6-0.6l-0.5-0.2L17,64.8l-0.6,0l0.1-0.5l0.3-0.2l-0.3-0.8l-0.3-0.6l-1-0.7l-0.4-0.1l-0.8-0.7l-0.1,0.3l-0.2,0l-0.1-0.3l-0.1-0.3  l-0.4-0.4l0.4-0.2l0.3,0.1l-0.1-0.2c-0.2,0-0.4-0.1-0.6-0.1l-0.2-0.5l-0.4-0.2L12.3,59L12.9,58.9z M11.6,60.3l0.5,0l0.5,0.3l0.2,0.6  l-0.4-0.3L12,60.7l-0.2,0l-0.3-0.1L11.6,60.3z M10.9,56.8l0.1-0.2l0.1,0.4l0.2,0.1l0.1,0.3l0,0.6l-0.2-0.1l0,0.4l0.2,0.4l-0.1,0.1  l-0.2-0.5l-0.2-1L10.9,56.8z M11.4,65.2l-0.2,0.1l-0.1-0.1l0-0.2l0-0.4l0.3-0.2l0-0.2l0.3-0.1l0.2,0l0.1-0.1l0.2,0.1L12,64.3  l-0.3,0.2l-0.2,0.1L11.4,65.2z M27.3,83l-0.1-0.2l-0.2,0.1l-0.1,0.3c-0.2-0.1-0.5-0.2-0.7-0.3L26,82.8l-0.5-0.2L25,82.3l-0.3-0.4  l-0.3-0.3l-0.3-0.2l-0.4-0.1l0-0.2l-0.4-0.4l0.1,0.3l-0.3,0.1l0-0.3l-0.1-0.3l0-0.2l-0.3-0.4l0,0.4l-0.1,0.2l0.1,0.4l-0.4-0.3  L22,80.4l-0.5-0.4l-0.3-0.2l0-0.1l-0.7-0.4l-0.3,0l-0.5-0.3l-0.6,0l-0.3,0.1l-0.2,0.1L18.3,79l-0.1,0.2l-0.2,0.1l0.2,0.3l0.1,0.2  l-0.2,0l-0.1,0l-0.3-0.1l-0.1,0l-0.1,0l0.1,0.3l-0.1,0l0,0.1l0,0.1L17.3,80c0,0-0.1,0-0.1,0c-0.2-0.2-0.4-0.4-0.7-0.5l-0.2-0.3l0,0  L16.2,79c-0.5-0.6-1-1.2-1.5-1.8l-0.2-0.3l-0.3-0.4l-0.1-0.2L13.9,76l-0.3-0.5c-0.2-0.3-0.4-0.5-0.6-0.8l0.2,0.3l-0.4-0.6l0.2,0.2  l0.2,0.2L13,74.6c-0.2-0.3-0.4-0.6-0.7-0.9l-0.2-0.3l0-0.1L12,72.9l-0.2-0.4l-0.2-0.4l0.3,0.5l-0.1-0.4l0.1-0.2l0-0.2l0.1-0.2l0.1,0  l0.1,0.1l0.1-0.2l0.1,0l0-0.1l0,0l0.2,0.1l0.2-0.1l0-0.2l-0.1-0.3l0-0.3c-0.1-0.2-0.2-0.4-0.2-0.6l0-0.5l0.4,0.6l0.1-0.1l-0.2-0.3  l0-0.3l0.2,0.2l-0.2-0.5l0.1-0.3l0-0.2l0.1-0.1L12.6,68l0.2,0.1L12.8,68l0.1-0.1l0.1-0.1l0.4,0.3l0.3,0.4l0.2,0l0.3,0.1L14,68.4  l0-0.5l0.1-0.1L14,67.5l0.1-0.4l0.2-0.2l0.2,0.1l0.3-0.1l-0.1-0.3l-0.4-0.3l0.2-0.1l0.3,0.2l0.3,0.3l0.4,0.2l0.1-0.1l0.3,0.2  l0.2-0.2l0.2,0.1l0.1-0.1l0.3,0.4l0,0.3L16.6,68l-0.1,0l0.1,0.3l0,0.3l-0.1,0.3l0.1,0.2l0.5,0.4l0.4,0.2c0.3,0.2,0.5,0.4,0.8,0.7  c0,0,0.1,0,0.1,0l0.3,0.2l0.1,0.2l0.5,0.3l0.2-0.2l0-0.3l0-0.3l-0.1-0.3l0-0.5l-0.2-0.3l0-0.2l-0.2-0.4l-0.1-0.5l0.1-0.1l-0.1-0.2  l0-0.3l0-0.4l0-0.2l0.1-0.2l0.2,0.3l0.1,0.4l0.1,0.1l0.1,0.3l0.3,0.4l0.1,0.4l0,0.2l0.3,0.5l0.3-0.2l0.3,0.3l0.3,0.3l0,0.3  c0.1,0.3,0.3,0.6,0.5,0.9l0.2,0.1l0.3,0.6l0.1,0.3l0.3,0.4l0.7,0.4c0.3,0.2,0.6,0.4,0.9,0.6l0,0.1l0.4,0.4l0.4,0.7l0.2-0.1l0.3,0.3  l0.1-0.1l0.3,0.6c0.5,0.4,1,0.7,1.5,1.1l0.3,0.5l0.1,0.3l0.1,0.4l0.4,0.5l0.2,0.5l0,0.3l0.1,0.5l0.2,0.3l0.1,0.4l0,0.5l-0.2,0.2  l0,0.4l0,0.2l0.1,0.4l0,0.2l0.1,0.4l0.1,0.3l0.1,0.2l-0.2,0.2l-0.5,0L28.3,83l-0.1,0.2l-0.1,0.2l-0.5-0.2L27.3,83z M30,85.2l0,0.3  l-0.1,0l-0.3,0L29,85l-0.3-0.3l-0.5-0.4l-0.2-0.2l0.3,0.1l0.5,0.2c0.1,0,0.3-0.1,0.4-0.1l0.3,0.1l0.4,0.5l0,0.1h0l0.2,0.4L30,85.2z   M44.4,71.1l-0.1,0.3h0l0,0c0-0.1,0-0.2,0-0.3L44.4,71.1z M42.5,85.5l-0.3,0.3L42,85.9l0.3,0.2l-0.4,0l-0.4,0.2l0,0.3L41.3,87  c-0.2,0.1-0.3,0.2-0.5,0.3l-0.5,0L40,87.1l-0.5,0l-0.2-0.2l0.1-0.3l0.4-0.4l0.3-0.1l0.3-0.2l0.4-0.2l0.2-0.2l0.1-0.3l0.2-0.1l0-0.3  l0.3-0.2c0.1,0.1,0.2,0.3,0.4,0.4l0.3-0.2l0.2,0.2l0.1,0.2L42.5,85.5z M44.6,83.8l-0.1,0.3l-0.5,0l-0.1,0.1l0.1,0.2l-0.1,0.1  c-0.1,0.2-0.2,0.4-0.4,0.6l-0.4,0.2L43,85.1L42.8,85l0.2-0.4l-0.3-0.3l-0.7-0.2l0-0.2l0.4-0.2l0-0.4l-0.1-0.3L42,82.9l0-0.1  l-0.3-0.2l-0.6-0.4l-0.3-0.4l0.2,0l0.4,0.3l0.5,0.1l0.3,0.4l0.6,0.5l-0.1-0.3l0.3,0.1l0.2,0.4l0.5,0.2l0.4,0l0.3-0.2l0.3,0.1  L44.6,83.8z"/><text x="0" y="115" fill="#000000" font-size="5px" font-weight="bold" font-family="'Helvetica Neue', Helvetica, Arial-Unicode, Arial, Sans-serif">Created by Ted Grajeda</text><text x="0" y="120" fill="#000000" font-size="5px" font-weight="bold" font-family="'Helvetica Neue', Helvetica, Arial-Unicode, Arial, Sans-serif">from the Noun Project</text></svg>