<svg xmlns="http://www.w3.org/2000/svg" xmlns:xlink="http://www.w3.org/1999/xlink" version="1.0" x="0px" y="0px" viewBox="0 0 100 125" enable-background="new 0 0 100 100" xml:space="preserve"><polygon points="86.6527863,95.0453339 85.6463547,95.0204086 85.447052,95.4339294 85.3474503,95.4438934 84.6848145,95.5036774   85.008606,96.1862564 85.6912003,96.4054565 87.1260757,95.7179184 87.0812302,95.5833817 86.981575,95.2645569   87.9232407,94.5371323 "/><polygon points="54.856472,53.7679253 55.0507736,54.7892723 56.5105247,56.16436 57.34758,54.1864281 56.904129,52.940876 "/><polygon points="31.8287678,54.908802 32.581089,53.7429771 33.0394592,54.4255295 32.5313339,55.5216064 32.8651276,56.1792793   34.5590668,56.6027641 34.5789871,56.6376495 35.5156517,58.1074066 35.3113899,59.4724884 33.2338066,59.2632484   32.9697342,60.7877884 33.7369766,62.0233841 32.2772217,62.7258797 32.6707802,63.6226501 34.8530197,63.9963112   34.8629341,63.9963112 33.6124458,64.4795837 31.564743,66.7913284 32.307106,67.2247772 33.2886124,66.392746   34.5789871,66.6418533 35.5006866,65.6155243 36.1533089,66.0489731 38.52985,65.4461288 40.3981667,65.4660721   41.6536598,64.3052292 41.0956841,63.1443825 41.8081169,62.4817772 41.9775391,61.0219765 40.2835541,60.5835495   39.8849907,59.6668358 39.023056,56.9714661 38.0664749,56.5878448 36.8209457,53.7031555 36.7113304,53.4440918   35.2664986,53.2846527 36.5219879,51.02771 36.8857117,48.9252472 35.3561897,48.9103088 33.9312744,49.2690239   35.4259605,46.4142189 33.7518921,46.6184807 32.6358948,46.409214 31.5497799,48.5565453 31.0416069,51.2269897   31.7490826,52.5173683 "/><polygon points="75.6172485,95.0801926 74.5759811,94.9606171 73.4898605,95.0552902 72.7275314,94.4773483 72.4685593,95.2097473   74.1724625,95.543541 74.157547,95.8225555 76.170311,95.6780548 76.3446503,95.1748428 75.5824127,95.3791275 "/><path d="M47.5427017,46.5437508l1.9331322,1.3501892l1.8633614-0.6178093l2.7601357-3.1238098l0.9306946,1.6584587  l-0.0041313,0.0105553l1.0611458,3.7366409l1.1708488,2.8946457l0.4434052,2.3466339l1.6192131-0.1145897l0.7921638-1.9679718  l1.693943,0.2441254l0.7921638-2.3715363l0.5330963-4.4042473l1.4547958-0.6277466l1.2804642-3.1039124l-1.3352737-1.5644073  l-0.9964218-2.0277367l1.0213013-4.1900063l2.6954193-2.6604805l2.2220306-2.5558758l-0.219223-2.0028343l1.3551865-2.3366489  l2.4014206-0.9665432l1.9430008,1.6042728l0.1494522,1.4149284l-0.9365692,0.6925125l-3.1936264,3.4975166l-1.2654953,1.9629669  l-0.6675873,1.7836113l0.6775894,2.6953659l-0.3089142,2.8498039l1.3501434,0.9316826l0.8121262,1.5295219l2.2718887-0.5879059  l2.4562225-1.0312843l2.5359039-0.224205l2.9893646-3.6917953l1.2953339-1.7188644l0.5280991-1.5444832l-2.067627-2.122406  l0.5729446-2.0626221l-1.2604523-2.4213371l0.9416199-2.8697472l-1.6242218-3.9658012l1.2904282-2.7302303l-2.1423035-2.4861279  l1.3351746-3.0490837l2.3764877-1.5893316l-1.5295181-2.5458908l1.7985916-1.1110177L78.9702454,4.25l-2.5058899,0.8669143  l-2.5459137-0.1893196l-2.127388,3.4825292l-2.2968063-0.2192011l-3.0640488,1.7885885l-3.8412437,4.9273872l-2.3416557,2.8249016  l-3.3579979,6.8554688l-2.5558739,4.6334362l-2.7601357,3.2832699l-3.6867905,2.5807533l-1.2854195,1.9330864l0.4434052,6.6063881  L47.5427017,46.5437508z M63.0571938,16.9745216l0.0108337,0.0001144l-0.0108337-0.0000687V16.9745216z"/><polygon points="52.5148201,84.3734894 52.9781456,82.9336395 52.7440491,81.3094406 51.8422737,82.0318832 51.5582809,82.7343597   51.8821144,83.9948273 "/><polygon points="27.6637096,63.4582787 30.1398773,62.1230354 31.1960659,60.0703735 30.9669266,58.3963776 31.7141991,56.7572441   30.2195606,55.2675629 29.0487576,55.367218 29.0437546,55.362236 27.987566,56.4931755 26.0893192,58.3614922 26.81674,60.7379875   25.6857777,63.1194801 "/><polygon points="60.2422066,90.2225494 58.8172913,90.4168777 57.1831169,90.2574387 56.9888153,91.1641922 58.9368668,92.0560074   59.6492996,92.2453308 60.7154922,92.8980026 61.009491,92.0061874 60.8002281,91.4631271 61.3034439,90.0780792 "/><polygon points="51.7973824,85.2652817 51.0301437,85.170639 51.3490181,86.2168884 51.4038239,88.3990784 51.9318733,88.8723907   52.499855,88.2745285 53.1326027,88.389122 53.3269043,85.9927063 52.4899406,84.6873627 "/><polygon points="19.3534222,22.5943966 17.0367165,22.3452911 14.7598524,24.1936665 13.0011454,23.2171631 10.8787394,25.0854816   8.7015047,22.7538357 6.5840788,23.2669888 5.642437,25.4940262 8.5719709,26.2762299 8.6317577,27.2577133 6.1605935,27.895443   9.1997166,29.4897556 7.8246527,30.9046841 11.720706,31.9060898 13.559144,32.3694382 14.7648096,31.7965012   18.7954235,29.6142845 20.6089134,27.1182194 19.0345459,24.826416 "/><polygon points="95.6107407,68.6347504 95.5957794,68.0020218 93.5381622,67.3045273 92.7210693,67.3244476 91.8591385,66.3081055   90.7879868,66.6518402 89.0143127,65.8845978 89.0442429,65.451149 88.5460281,64.4895859 87.429985,64.3849564   87.3154144,63.6924438 87.6641769,63.2340965 86.7723618,61.9536591 85.3224792,62.1728821 84.8990402,62.0582886   84.5452728,62.5764236 84.0271454,62.4817772 83.6833878,61.0219765 83.354599,60.254715 83.6235809,60.0355148   84.7495804,60.1152191 85.2926407,59.607048 84.8890762,58.9842606 83.9474106,58.5707588 84.0321426,58.142292   83.4641647,57.7088242 82.5873108,56.1394348 82.8862228,55.4818077 82.7517319,54.330925 81.3866272,53.7430229   80.6542282,54.0369759 80.4549255,53.4241676 78.9851608,52.7963791 78.5317993,51.3067207 78.4171829,50.0661697   77.7446365,49.4732857 78.342453,48.6462364 77.928978,46.1750717 78.9204407,44.6106682 78.7111816,44.1323738   77.2663422,44.2170868 75.7517853,43.7587395 73.9930344,44.162281 72.2243652,44.9245377 72.348938,46.4740067   73.2357559,47.4206276 73.7489319,47.0868111 73.5845108,48.6412582 73.3154373,50.6291504 72.1944809,50.6789742   71.0884018,48.7458878 69.7731476,49.6327248 69.0855942,51.2469559 69.0357895,53.1451569 69.3346939,55.2177391   70.7944946,55.6462059 71.4122772,56.0298462 71.262825,56.6924782 71.3773956,57.3002777 68.8065567,57.340168   67.087738,57.0661354 65.7375488,57.0362549 65.6329422,56.4483528 64.2428665,56.0397835 62.4792061,56.8568954   60.3019676,57.9629326 59.3454323,58.6554451 58.6877594,57.9031219 57.1084328,56.9615059 56.3262291,57.6141739   54.9062729,58.062561 54.9212379,57.2155914 53.5062866,56.6575928 53.4814072,55.7209549 53.1027679,54.5302048   54.1091537,52.7415962 54.5226326,53.015625 54.8664322,52.0690041 54.1091537,51.6903191 53.9397774,50.9778824   54.3532562,50.1408958 54.4031067,48.8056526 53.2771454,49.5380287 52.7888489,50.2504883 51.5582809,50.4099236   51.1597214,51.1771889 50.9255333,51.8647194 50.965374,54.4156151 51.5333557,55.7707558 51.5981255,57.1408653   51.9169998,58.0326805 50.965374,59.1935234 50.7063103,58.6753883 49.5405083,58.804924 49.2664757,59.3031349   48.1056328,59.238369 46.1974258,60.2098923 44.971817,63.5678902 44.2543793,64.1856766 43.1357651,64.6231842   43.1333809,64.6141205 41.9127274,65.0624847 41.4942436,66.8610764 38.2409019,68.5400543 36.9205971,67.6183319   37.3640022,70.0297318 35.017437,69.4866562 33.2038765,69.9450226 33.3434181,71.4745712 35.4807663,72.2717361   36.5120735,73.3129807 37.9519043,75.4354095 37.6878815,79.3613739 36.9654884,80.5172348 36.9654884,80.5222626   34.7085228,80.462471 33.5476799,80.5621262 32.0629578,80.2332916 30.1846771,80.24823 28.4757729,79.899498   26.5028667,81.2795639 27.0708256,82.1065903 27.0010796,83.4418106 27.0608654,84.0695801 27.3398762,84.7371902   27.3747387,85.5193939 27.0807858,86.6204529 26.9811344,87.3528519 26.4281158,88.0055008 26.3135242,89.181282   26.6473408,89.8538742 27.2750874,90.0183182 27.4046192,91.1044312 27.1903763,92.4695358 27.9128151,92.2802124   28.6501961,92.5243378 29.2081718,92.0709763 30.5135136,92.340004 30.9120731,93.3364258 31.4252491,93.9193497   32.1128044,94.0638504 32.6459007,93.4111786 33.5177498,92.8033524 34.8530197,92.8332367 36.6216888,92.8083115   37.6131554,91.4681091 38.669342,91.1193695 38.9682503,89.9734726 39.7753792,89.1763 39.2323685,88.154953 39.7704239,86.6802368   40.6323547,85.668869 40.7568855,85.0510635 42.545475,84.6624603 43.8707848,83.4218903 43.9504662,81.184845   45.9831581,80.5670853 48.7383385,81.0852127 50.5967407,79.8745728 51.4038239,78.9777756 52.0465355,78.713707   53.1824989,79.3564148 53.8800125,79.5806198 54.3134613,81.4738388 55.2650375,82.5649338 56.540451,83.7855911   57.6315727,84.6225967 58.6629257,84.7421494 59.2657471,85.4845123 60.1625214,85.818306 60.5760918,86.605484   61.1539879,86.834671 61.5824318,87.7464066 62.1255341,88.7876816 61.8216209,89.1713028 61.537632,90.1229019   61.5326729,90.6609802 62.1155281,90.5264435 62.8628922,89.0019226 63.4457932,88.8972931 63.6102104,87.9606323   62.5987778,87.2930222 63.1866798,86.1172333 64.4023285,86.4161682 65.1795731,87.2631378 65.4386902,86.610466   65.2941895,86.2716904 64.098465,85.3151093 63.0721092,84.7570877 61.8215752,84.0845184 62.2151337,83.7158432   61.8763809,83.3023148 60.7803078,83.3122787 59.2258606,81.792717 58.5233879,80.2133484 57.213089,79.2418213   56.7547188,78.2503738 56.9240952,77.6923752 56.8444099,76.7108917 57.9802818,76.0033951 59.0913696,76.292366   58.7824516,76.4717484 58.732605,76.5016327 58.6977196,77.1891861 59.1112442,77.8517914 59.5397339,76.9998398   60.4365501,77.3087616 60.4663887,77.9763489 61.1041412,78.793457 60.8201027,78.9429092 61.9959106,80.3628464   63.2713699,80.9307785 64.0834503,81.6183395 65.3937988,82.3158493 66.0016251,82.6894913 66.3902206,83.3023148   66.6841736,83.4468155 66.9183197,83.7407455 66.7289734,84.3186874 66.6094437,85.5791779 66.7289734,86.4510498   67.506218,87.063858 67.5311432,87.4624405 67.8599777,88.1250458 68.5674591,88.6979904 68.4827728,89.016861   68.572464,89.1413956 69.1155167,89.9584808 69.7233429,89.9335785 70.3460846,89.7940903 70.6250763,89.8887558   71.0934525,89.9286041 70.8991013,90.2374954 70.6250763,90.1527863 70.2863235,89.9236221 69.9923706,90.0033264   69.8677979,90.2076111 69.5888062,90.1577606 69.4094238,90.3969345 69.1204758,90.6559982 69.364624,91.1243286   69.5738449,91.1691742 69.7781067,91.3584976 69.9574356,91.72715 69.6983719,92.0111389 69.8877182,92.5143585   70.1965866,92.7834091 70.3211136,92.6488953 70.2613525,92.2303696 70.5802307,92.2303696 70.8592148,92.7485428   70.8094101,93.1172028 71.0335922,93.2666779 71.1631317,92.6090088 71.4471664,92.6189651 71.6713486,93.2417526   71.9603424,93.2417526 71.3624344,91.2737808 71.8606415,91.6175385 72.3190155,91.5228882 71.9054871,90.626091   72.5232773,90.5214844 73.2008667,91.0944214 73.1809464,90.0979996 72.4883881,89.5848465 71.7111893,88.7627792   72.2392807,88.3691711 71.5417709,87.5222015 71.2278976,86.4360886 71.4919662,86.0375061 72.2293243,86.9741669   73.0065231,86.9741669 73.7139969,86.6802139 72.7474594,85.6539078 74.4413986,85.1756134 75.1688385,85.3499756   76.005806,85.7834625 76.444252,86.6353912 77.6100998,85.6489029 78.2078705,85.0759888 79.8670197,84.9763565   80.1210861,84.5229721 78.9004288,83.9251022 78.7360153,83.2076645 78.7305984,83.206543 78.282692,82.1315155   78.7909088,80.7713928 79.5182648,79.9792023 79.9068604,77.6325912 80.3303452,77.8119507 81.0079422,77.3934479   80.9780579,76.8802948 82.0591736,75.4105377 82.5773087,74.2994919 83.8727341,74.0503845 83.9673767,74.8027115   86.1396103,75.3108826 86.3588333,75.4204941 86.5830154,75.2162094 86.7823181,75.6197739 85.2079086,76.4318848   84.958847,76.8155289 86.4833679,77.3934479 86.179451,78.3151474 86.9516983,78.7087479 88.8498993,77.5777893   90.3794174,77.2389908 90.65345,76.5315323 89.2285843,76.6511078 88.5460281,76.1728134 87.803627,75.4404373   88.4612961,74.9272614 89.6669846,74.1699829 90.9723282,74.0653534 91.9039841,73.4076996 93.0200272,73.2432861   93.064827,72.331543 93.7822647,71.753624 95.1324081,71.5991669 95.3516312,70.9066544 95.04776,69.7458115 "/><text x="0" y="115" fill="#000000" font-size="5px" font-weight="bold" font-family="'Helvetica Neue', Helvetica, Arial-Unicode, Arial, Sans-serif">Created by Alexander Skowalsky</text><text x="0" y="120" fill="#000000" font-size="5px" font-weight="bold" font-family="'Helvetica Neue', Helvetica, Arial-Unicode, Arial, Sans-serif">from the Noun Project</text></svg>