<svg xmlns="http://www.w3.org/2000/svg" xmlns:xlink="http://www.w3.org/1999/xlink" version="1.1" x="0px" y="0px" viewBox="0 0 100 125" style="enable-background:new 0 0 100 100;" xml:space="preserve"><path d="M69.519,63.985l-5.414,4.576l0.338,2.982l-2.336,1.852v0.967l-5.672,5.865L51.344,81l-1.16-2.514l-2.24-3.676l-0.724-3.993  l-2.32-3.931l1.418-5.027c0,0-0.193-3.222-0.297-3.532c-0.103-0.31-3.764-6.393-3.764-6.393l0.902-3.351l-2.965-1.225l-1.933-1.933  c0,0-4.845,1.279-5,1.351c-0.155,0.071-4.861,0.261-4.861,0.261l-3.169-2.267l-4.152-7.126l1.134-2.853l1.74-6.123l4.523-3.879  l4.113-5.015c0,0,3.003,0.49,3.133,0.404c0.13-0.087,6.664-1.112,6.664-1.112l1.177,2.561l7.782,3.24l1.634-2.139l5.133,1.43  l1.933-0.58l2.393,0.049l0.584,1.061l-0.141,2.112l-1.547-1.547l4.448,8.967l1.353,0.636l1.053,2.089l2.362,1.842l2.062,2.771  l5.607-1.611c0,0-1.931,6.164-2.061,6.373c-0.129,0.209-5.093,5.357-5.093,5.357l-2.771,4.447L69.519,63.985z M75.25,63.857  l-2.671,1.397l-0.51,3.049l-1.261,2.128l0.451,2.836l2.191-0.129l4.125-8.443l-0.72-2.864L75.25,63.857z"/><text x="0" y="115" fill="#000000" font-size="5px" font-weight="bold" font-family="'Helvetica Neue', Helvetica, Arial-Unicode, Arial, Sans-serif">Created by Setyo Ari Wibowo</text><text x="0" y="120" fill="#000000" font-size="5px" font-weight="bold" font-family="'Helvetica Neue', Helvetica, Arial-Unicode, Arial, Sans-serif">from the Noun Project</text></svg>