<svg xmlns="http://www.w3.org/2000/svg" xmlns:xlink="http://www.w3.org/1999/xlink" version="1.1" x="0px" y="0px" viewBox="0 0 100 125" enable-background="new 0 0 100 100" xml:space="preserve"><path d="M65.1,7.5l0.2,0.2L65.2,8l0.1,0.2l1.1,0.3l0.5,0.2l0.9,0.6l-0.4-0.1l0.2,0.2l0.8,0.5l0.5,0.3l0.1,0.2l0.5,0.4  c1.1,0.5,2.2,1.1,3.3,1.6c0.9,0.6,1.7,1.1,2.5,1.7l0.1,0.4l0.3,0.2c0.4,0.2,0.8,0.4,1.2,0.6l0.7,0.6l0.5,0.6l0.5,0.5l0.2,0.5  l0.2,0.6l0.3,0.2l0.3,0.4l0.3,0.1l0.3,0.3l0-0.2l0.1,0c0-0.2-0.1-0.4-0.1-0.7L79.7,18l0-0.1l-0.3-0.4l0-0.1l0.1,0l0-0.1L79.3,17  l0-0.1l-0.1-0.1L79.2,17l-0.2,0l-0.2-0.1l-0.1-0.2l0.1-0.1l0.2,0l-0.1-0.2l-0.1-0.1l0-0.1c-0.4-0.3-0.9-0.7-1.3-1  c-0.6-0.2-1.1-0.5-1.7-0.6l-0.1-0.1l0.1,0l0.1,0l0-0.2L75.8,14l-0.3-0.3c-0.3-0.2-0.5-0.4-0.8-0.6c-0.1-0.1-0.2-0.3-0.4-0.4  l-0.2-0.2c0,0,0,0,0,0c0.1,0,0.3,0.1,0.4,0.1l0.3,0.1l0.3,0.1l0.3,0.2l0.2,0.1l0.1,0l0-0.1l0.1,0c0.1,0.1,0.2,0.1,0.3,0.2l0.4,0.2  l0.1,0l0.2,0.1l0.4,0.3l0.3,0.1l0,0l0.3,0.2l0.3,0.3l0.4,0.3c0.2,0.2,0.5,0.4,0.7,0.5l0.1,0.1l0,0c0.3,0.2,0.6,0.4,0.9,0.7  c-4.6-3.9-9.9-6.8-15.7-8.7l0.3,0.2L65.1,7.5z M77.2,20.7l0.2,0l0.2,0.1l0.1-0.1l0-0.3l-0.4-0.5l-0.2-0.4l-0.7-0.7l-0.9-0.6l-0.1,0  l0,0.3L75,18.6l0.3,0.4l-0.3,0.1l0.3,0.3l-0.3,0.2l-0.4-0.5l-0.5-0.3l0.2,0.5l0,0.3l0.5,0.2l0.2-0.2l0,0.3l0,0.1l-0.2,0l0,0.2  l0.5,0.6l0,0.5l0.2,0.3l-0.1,0.1L75,21.4l-0.2,0.2l-0.5-0.3l-0.4-0.4l-0.3,0.3l-0.1,0.3l0.5,0.4l0.3,0.4l0.7,0.3l0.5,0.3l0.4,0  l0.5,0.4l0.8,0.1L77,22.7l0.2-0.2c-0.1-0.4-0.2-0.8-0.3-1.2l-0.1-0.4l-0.2-0.2l-0.1-0.2l0.4,0.3L77.2,20.7z M84.7,20.3L84.7,20.3  l0.2,0.4l0.2,0.4l0,0.2l0.3,0.5l0.2,0.3l0.2,0.5l0,0.1l-0.1,0l0.1,0.5l0.2,0.3l0.2,0.3l0,0.3l-0.1,0l0,0.2l0.1,0.2l0,0.3  c0.1,0.3,0.1,0.6,0.2,0.9l0.2,0.3l-0.2,0l-0.1,0l-0.1,0l0,0l0.2,0.1l0.2,0l0.2,0.1l0.1,0.1c0.1,0.2,0.1,0.4,0.2,0.6l0,0.6l0.1,0.1  l0.1-0.4c0-0.4,0-0.8,0-1.2c0-0.2-0.1-0.4-0.1-0.6L87,25l0.1,0.1l0.1-0.1l-0.4-0.8l0-0.1l0-0.3l0.1,0.1l0.1-0.2l0-0.3  c-0.1-0.2-0.2-0.4-0.4-0.6l-0.2-0.4l0-0.2c-0.2-0.3-0.4-0.6-0.6-0.8c-0.4-0.4-0.7-0.9-1.1-1.3l0.1,0.1l-0.1-0.1l0,0.1L84.6,20l0,0.1  l0,0.1L84.7,20.3z M46.5,94.7c-0.5,0-1-0.1-1.4-0.1c0.8,0.1,1.7,0.2,2.5,0.3C47.2,94.8,46.8,94.8,46.5,94.7z M46,5.4  c0.5-0.1,1-0.2,1.4-0.3c0.3,0,0.6,0,1,0l-0.3,0.2l0.2,0.1L49,5.5l-0.1,0.1l0.5,0l0.6,0.1l0.2,0.1l0,0.1L50.4,6l0.3,0.1l0.7,0L51.4,6  l0.3-0.1l0.3,0l0.1,0c0.2,0,0.4,0,0.5,0.1l0.1-0.1c0.5,0,1,0,1.5,0l0-0.1l0.4-0.1l1.2,0c0.8-0.1,1.5-0.1,2.3,0c0,0,0,0,0-0.1  c0.5,0,1,0.1,1.5,0.2l0.2,0c-4.7-0.9-9.5-1.1-14.2-0.5l0.1,0L46,5.4z M93.8,63.9l0-0.2l-0.1-0.1l-0.2,0l-0.1,0.1l-0.1-0.1l-0.1,0.2  l-0.2,0.4c0,0-0.1-0.1-0.1-0.1l0-0.3l0-0.3l-0.1,0l-0.1-0.3l0-0.4l0-0.3l-0.1-0.2l-0.1,0l-0.1-0.3l0.1-0.5l-0.1-0.5l0-0.4l0.1-0.7  l0-0.6l0-0.4L92.6,58l-0.4,0.1l-0.2-0.3l-0.1-0.1l-0.1-0.5c0-0.4,0-0.9-0.1-1.3l-0.3-0.5l-0.2-0.3l0.1-0.5l0.2-0.4l0-0.7l0.1-0.8  l0-0.3l-0.1-0.7l0-0.8l-0.1-0.5l-0.1-0.7c-0.1-0.8-0.1-1.6-0.2-2.4l0-0.4L91,46.1l-0.1-0.8l0-0.3l-0.1-0.5l-0.2-0.8l0-0.5l0.2,0  l-0.2-0.6l0.1-0.1l0.2,0.3l0.2,0l0-0.3l0.3,0l0.2,0.4l0.1-0.2l-0.1-0.4l0.1-0.2c0-0.4,0-0.8-0.1-1.1L91.6,41  c-0.1-0.5-0.1-1.1-0.2-1.6l0.2-0.4c-0.2-0.8-0.3-1.6-0.4-2.5L91,36.3L90.7,36l-0.1,0.2l-0.2-0.2l-0.3-0.4l-0.2-0.5l-0.3-0.9l0-0.3  l-0.1-0.2l0-0.2l-0.3-0.7l0-0.2l-0.4-0.9c-0.2-0.5-0.4-1.1-0.6-1.6l-0.3-0.4l-0.2-0.2l-0.3-0.5L87,28.5l0-0.2l-0.2-0.1l-0.2-0.5  l-0.3-0.5l-0.3-0.3l-0.2-0.1l0,0l-0.2-0.1l-0.3,0l-0.1,0l0,0l-0.3-0.1l-0.4-0.2l0,0l-0.2,0.2l-0.2-0.1l0,0.3l-0.3-0.1l0.3,0.3  l0.3,0.5l0.4,0.3l0.6,0.9l0.1,0.6l0.4,0.6l0.2,0.1l0.3,0.4l0.2,0.7l0.4,0.7l-0.1,0.5l0,0.5l-0.4-0.2l0,0.5l-0.6-0.5l-0.5-0.9  L85,31.5l-0.6-1.1l-0.6-0.6l-0.5-0.6l-0.6-0.9l-0.4-1.1l-0.5-0.8l-0.5-0.6L81,25.4l-0.7-0.5l-0.2,0L80,25.3l0.1,0.4l0.2,0.3  c0.1,0.4,0.2,0.7,0.3,1.1l0.3,0.7l0.1,0.6L80.8,28l-0.6-0.2l0.1,0.4l-0.7-0.6l-0.1,0.1l0.4,0.4l0.3,0.4l0.4,0.2l0.4,0.5l0.4,0.4  l0.2-0.2L81.5,29l-0.4-0.5l0.2,0l0.5,0.5l0.7,0.6l0.1,0.3l-0.2,0l0.3,0.7l-0.1-0.1L82,30.1l0,0.2l0.4,0.9l-0.1,0.1l0.3,0.5l0.3,0.1  l0.5,0.3l0.1-0.1l0.2,0.2l0.1,0.2l0.5-0.1l0.3,0.2l0.4,0.1l0.1-0.3l0.1-0.1l-0.2-0.6l0.1,0.1l0.4,0.7c0.2,0.2,0.4,0.4,0.7,0.6  l-0.1,0.3l-0.1,0l0.2,0.4l0.1,0.3l0.4,0.7l0-0.5l0.2,0.3c0,0.1,0.1,0.2,0.1,0.3l0,0.4l0.1,0.1l0.1-0.2l0-0.4l0.2,0.2l0-0.4l0-0.4  l0.2-0.1l0.2,0.6l0.1-0.3l0.2,0.4l0.2-0.4l0.2,0.4l0.1,0.6l-0.2,0.3l-0.2,0.2c0,0.2-0.1,0.5-0.1,0.7l-0.1,0.1l0,0.1L88,37l0,0.4  l-0.2,0.1l-0.3,0l-0.1,0l0,0.1l0,0.1L87.4,38c0,0.3,0,0.6,0.1,0.9l0,0.4l0,0.6l-0.1,0.6l-0.1-0.1l-0.1,0.3l-0.1,0l0,0.4l0.2,0.2  l-0.1,0.2l-0.1,0c0-0.1-0.1-0.1-0.1-0.2L87,42l0.3,0.5l0.2-0.1l0.1,0.1l0.2-0.3l0.1-0.7l0.2-0.4l0.1-0.8l-0.1-0.5l0-0.2l0.1,0.2  c0-0.4,0-0.8-0.1-1.1l0-0.6l0-0.1l0.2,0.1l-0.1,0.4l0.1,0.6l0.3,0.2l0-0.5l0.2,0l0.1,0.3l0.4,0.3l0.1,0.3c0,0-0.1,0-0.1,0l-0.2-0.1  l-0.1-0.1C89,39.6,89,39.8,88.9,40l0,0.3l-0.1,0.2l0,0.4l-0.1,0.3l0.1,0.5l-0.1,0.6L88.6,43l-0.1,0.5l-0.4,0.3l0,0.3l-0.1,0.6  l0.1,0.3l0.2,0.4l0.1,0.3l0.3,0.6l0,1.3l0.2,1l0.2,0.1l0.2,0l0.3,0.7l0.1,0.9l0.1,0.1l0.2,0.4l0.3,0.3l0.2-0.3l0.1,0.4l0.2,0.2  l0,0.6l0.2,0.5c0,0.5-0.1,1.1-0.1,1.6l0.1,0.5l0.1,0.3L91.3,55l-0.1,0.3l-0.2,0.2l-0.1,0.7l0,0.3l-0.1,0.4l0,0.4L90.4,57l-0.2,0  l-0.1,0.3l-0.2,0.1l-0.2-0.1l-0.1-0.3L89.5,57l-0.2-0.2l-0.2,0L89,56.9l-0.1,0l-0.3-0.1l-0.2,0.2l-0.1-1l0.2-0.8l0.1-0.9l0.1-0.7  c0-0.6,0.1-1.1,0.1-1.7l-0.2-0.4l-0.8-0.2l-0.5,0.7L87,52.6l-0.3,1l-0.3,0l0-0.8l0.2-1.1l-0.5,0.2l0.2-0.6l-0.3-1.5l-0.4-0.2  c-0.1-0.3-0.1-0.7-0.2-1l-0.1-0.3l-0.7-0.5l-0.3-0.8l0-0.5L84,46.3L84,45.8l0.1-0.1l-0.3-0.4l-0.2,0.2l-0.3,0.1l-0.2,0.3l-0.5,0.1  l-0.1-0.1l-0.2-0.1l-0.1-0.5l-0.2-0.2l-0.2-0.4l0.3,0l0.2,0.1l0.1-0.1l0-0.3l0.2,0.1l0,0.2L83,45l0.2-0.2l0.2,0l0-0.6l0.2,0  l-0.2-0.6l-0.2-0.3l0.1-0.7l0.1-0.3l-0.2-0.4c-0.3-0.5-0.5-1-0.8-1.5l-0.1-0.6l0.1-0.1l-0.2-0.5l-0.3,0l-0.4-0.7l-0.4,0.3l-0.4,0.1  l-0.4-0.1l-0.4-0.4l0.2-0.5l-0.2-0.4c-0.2,0-0.5,0.1-0.7,0.1l0.1,0.2l0,0.4l-0.3,0.2l-0.4-0.5l-0.3-0.6l-0.2-0.5l-0.3-0.5l-0.5-0.4  l0,0.6l0.5,0.8l0.6,0.7l0.4,0.7L78.7,39l0,0.5l-0.5,0.1l-0.4,0.4L77.4,40l-0.5-0.3l-1-0.8l-0.2-0.2l-0.2,0.1l0,0.7l0.5,0.7l0.5,0.3  l0.3-0.2l0.7,0.6l0.8,0.7l0.9,0.1l0.3-0.5l0.1-0.6l0.7,0.3l0.3,0.5l0.9,0l0.6,0.2l0.1,0.7l0.5,0.2l0.2,0.6l-0.4,0.3L81.8,44  l-0.7,0.6l-0.3,0.4l0.8,1l0.2,0.7l-0.2,0.8l-0.6,0.2l-1.2,0.3l-0.4-0.4l-0.6-1.3l-0.7-0.9l-1-0.7l-1.4-0.8c-0.6-0.5-1.1-1-1.7-1.5  l-0.6-0.8l-0.2-0.6l-0.7-0.4l-0.3-0.7l-0.4-0.6l-0.2-1.3l0.4,0.4l0.1-0.6l-0.4-0.3l-0.1-0.8l-0.5-1l-0.4-1.7l0-0.4l0.3-0.3l0.6,0.2  l0.6,0.5c0.3,0.6,0.6,1.3,0.8,1.9l0.2,0.2l0-0.9l0.7-0.5L73.6,34l-0.1-0.4l-0.3,0.1l0,0.4L72.8,34l-0.4-1.1l-0.4-0.2l-0.1,0.5  l-1.1-0.4l-0.2-0.3L70.4,32L70,32.1l0,0.5l-0.4,0.1l-0.1,0.5l-0.7-1l0.1-0.4l0.4,0.3l0.2-0.2l-0.1-0.4l-0.6-0.4l-0.3,0.2l-0.9-0.4  l-1.5-0.5l-0.2-0.2l0.6,0l-0.4-0.4l-0.4,0l-0.7-0.4l-0.7-0.1l-0.2-0.6l-0.6,0.1l0.2,0.5l-0.3,0.1l-1-0.8c-0.5-0.6-1.1-1.1-1.6-1.7  l-0.4,0.2l0.3,0.5l0,0.1l0.4,0.3L61,28l0,0.5l-0.1,0.2L60,28.9l-0.5,0.4l-0.3,0l-0.9-0.5l0-0.4l0.5-0.4l-0.2-0.3l0-0.5l0.4-0.8  l-0.3-0.5l0.3-0.3l1.1-0.5L59.7,25l-0.2,0.1l-0.5,0l-0.2,0.2l-0.5,0.2l0.2,0.4l-0.3,0.3l0.4,0.2l0,0.4L58,27.3l0.4,0.6l-0.8,0.2  l0,0.5l-0.2,0l-0.1-0.4l0.3-0.5l-0.4-0.2l0.1,0.5L56.5,28l-0.8-0.2L55,27.3l0.3,0.6l-0.1,0.7l-0.7,0l-0.9-0.2l-0.9,0l0.3,0.4  l-0.5,0.4l-0.4,0l-0.7,0.3l-1,0.1l-0.1,0.2l-1,0.1L49,29.8l-0.8,0.4l-0.6,0.1l0,0.3l-0.3,0.3l-0.7,0.4l-0.6-0.1l0.4-0.3l-0.8,0.1  l-0.2-0.3l-0.3,0.2l-1,0.3l-0.8,0l-0.4-0.1L42.9,31l0.3-0.3L44,30l0.2-0.3c-0.3,0.1-0.7,0.1-1,0.1L42.8,30l-0.3-0.3L42.4,30  l-0.5,0.3l-1.1,0.4l-0.2-0.2l-1.4,0.7l0.2,0.4L38.7,32l-0.5,0.3l-0.7,0.1l-0.4-0.2l0-0.3l-0.7-0.1L35.8,32l0.1,0.7L35.3,33l-0.4,0.6  L34.2,34l-0.1,0.3l-0.5,0.4l0.6,0.2l-0.1,0.6c-0.9,0.8-0.9,0.8-2.4,2.6l-0.5,0.1l-0.9,0.7l-0.6,1.5L29.3,41l-0.4,0.2l-0.4-0.2  l-0.3,0.4l-0.1,0.6l-0.2,0.7l-0.3,0.7l-0.1,0.8L26.7,45l0.1,0.6l0.4-0.3l0.2,0.2l-0.4,1.3L27,47.7L26.7,49l-0.3,0.6c0,0,0,0,0,0  c-0.3,0.8-0.6,1.6-1,2.3l-0.4,0l-0.1,0.3l0.4-0.1l0,1.3l-0.4,1l-0.3-0.4l-0.2-0.8l-0.6,0.1L23.8,53l0-0.5l0.2-0.4l0.1-0.7l0.2-0.1  l0.1-0.5l-0.1-0.6l0.2-0.3l0.2,0.1l-0.1-0.6l-0.3,0.2l-0.2-0.2c0,0,0,0,0,0l-0.2-0.6l0.1-0.6l-0.3,0.4L23.1,49l-0.2,0.2l-0.2,0.1  l-0.1-0.1l0.2-1l-0.3-1.5l0-0.5c-0.2-0.6-0.3-1.1-0.5-1.7l-0.2-0.2l0.5-0.7l-0.1-1.4l0.3-0.2l-0.1-0.5l0.3-0.7l-0.3-0.3L22,39.8  l-0.2-0.1l-0.3,0.5L20.8,40l0.1-0.5l-0.3-0.4l-0.3,0.2l0.1-1L20,37.9l0.2-0.8l-0.4-0.4l-0.1-1l0.4-0.1l0.7,0.1l1.1,0.2l0.5,0.5  l0.1,0.5l0.2,0.1l-0.2,0.8c0.2,0.7,0.3,1.4,0.5,2.2l0.1,1l0.6,0.6l0.1-0.6l-0.3-0.4l-0.1-1.4l0.8-0.1l0.3-1.3l-0.3-1.5l-0.5,0.2  l0.4-1.1l0.3-0.7L25,35l0.5-0.6l0.1-0.7l1-1.3l0.9-1.5l0.3-2l0.6-2.3l-0.7,0.6l-0.4,0l-0.5,0.3l-0.1,0.4l-0.4,0.4l-0.9,0.3l-0.3-0.2  L25,27.7l-0.4-0.4l-0.4-0.7l0.1-1.1l-0.1-0.4c0.2-0.8,0.4-1.6,0.6-2.4l0.5-0.8l0.3-0.3l0.4-0.1l0.5-0.8l0-0.2l0.2-0.1l0.1-0.3L27,20  l-0.2-0.2l0.2-0.3l0.1-0.1l0.1-0.2l0.3-0.3l0.2-0.3l-0.1-0.1l0-0.1l-0.2,0.1L27,18.6l-0.7,0L26,18.6l-0.2-0.3l0.1-0.3l0.5-0.4  l0.4-0.4l0.5-0.4l0.2,0.1l0,0.3l0.5,0.1l-0.4,0.3l0.6,0l0.3-0.1l0-0.1l0.1-0.1l0.1,0l0.2-0.1l0.2-0.1l-0.1,0.2l-0.1,0.1l0.1,0l0,0.3  l0.1,0l0.3-0.2l0.3-0.1l0.7-0.6l0.3-0.4l0.6-0.5l-0.2,0.3l0.2,0.1l-0.3,0.5l0.4,0l0.4-0.4l0.5-0.6l0.2-0.4l0.6-0.3l0.2-0.3l-0.4,0  l-0.5,0.2l-0.1-0.1L31.6,15l-0.5,0.6l-0.6,0.2L30.1,16l-0.2-0.1l0.8-0.6l0.2-0.3l0.5-0.5l0.2-0.4l-0.7,0.2l-0.4-0.1l-0.5,0l-0.5,0.1  l-0.1-0.2l0.4-0.3l-0.2,0L29,13.9l0-0.2l0.1-0.3l0.3-0.2c0.2-0.4,0.5-0.7,0.7-1.1l0.5-0.6c0.6-0.4,1.1-0.8,1.7-1.3l0.8-0.4l0.4-0.3  l0.3,0l0.4-0.3l1-0.5l0.7-0.3L36,8.3l0.4-0.2l0.2,0l-0.2,0.1l1-0.3c0.4-0.2,0.9-0.4,1.3-0.6l0.6-0.3L39.5,7C39,7,38.6,7,38.1,7  c-0.3,0.1-0.6,0.1-0.9,0.2c-2.8,0.9-5.6,2.1-8.1,3.6l0,0l-0.3,0.1l0,0.2l-0.2,0.2l-0.4,0.2l-0.4,0.2L27.7,12l-0.1,0l0.1-0.1  l-0.3,0.1l0.1-0.2l0.3-0.2C11.9,21.2,3.4,40.3,7,58.7c3.3,16.8,16.4,30.7,33,34.9c1.6,0.4,3.2,0.7,4.9,1c-1.3-0.3-2.6-0.5-3.9-1  l-0.2-0.1c-0.4-0.1-0.8-0.2-1.2-0.4L39.3,93l-0.8-0.3l-0.3-0.2L38,92.4l0.3,0.1l-0.1-0.1l0.2,0l0-0.1l-0.2-0.2l0-0.1  c-0.5-0.4-1-0.7-1.5-1l-0.3-0.2l-0.6-0.3l-0.1-0.1l0.2-0.1l-0.3-0.2l-0.4-0.3L35,89.7l-0.4-0.2c-0.2-0.2-0.4-0.3-0.6-0.5l0-0.1  l-0.3-0.3l-0.2-0.3l0.1-0.1l-0.4-0.3L33,87.8l-0.3-0.3l-0.2,0.1l0,0.2l0,0.2l0.2,0.2l0.4,0.4l0.1,0.1l0.1,0.1l0.1,0.1l0.1,0.1  l0.1,0.2l0.2,0.1l0.1,0.1l0.4,0.3l0.1,0.3c0.1,0.1,0.2,0.2,0.3,0.3l0,0.1l0.3,0.1c0.2,0.1,0.3,0.3,0.5,0.4l0,0l-0.3,0l-0.1,0  l-0.1-0.2c-0.4-0.3-0.8-0.6-1.2-0.8l0.1-0.1l-0.1-0.2c-0.2-0.2-0.5-0.3-0.7-0.5l-0.1,0L32.7,89l-0.4-0.3L32,88.4l0.1,0l0.3,0.1  l0.3,0l0.1-0.1l-0.4-0.4l-0.3-0.3c-0.2-0.3-0.3-0.6-0.5-0.9l-0.1-0.4l0-0.2L30.9,86l-0.3-0.2l0-0.1l-0.3-0.2l-0.2-0.2l-0.5-0.4  l-0.1-0.1l0-0.2l-0.4-0.6l-0.2-0.7l0.1-0.1l-0.2-0.3l-0.3-0.5l0.1-0.3l-0.2-0.4l0.3-0.2l0.2-0.3l0-0.4l0.4-0.2l0.6-0.5l0.2-0.5  l0.1-0.4l0-0.3l0.1,0l0.6,0.6l0,0.5l0.2,0l0.1-0.4l0-0.4l-0.1,0l-0.7-1l-0.2-0.4L29.5,77l0-0.5l0.2-0.2l-0.4-0.6l0.2-0.4l-0.3-0.7  l0.2-0.2L29.3,74l-0.2-0.4l0.2-0.4l-0.2-0.8l0.1-0.6c-0.3-0.3-0.6-0.7-0.9-1L28,70.2L27.8,69c-0.2-0.4-0.4-0.8-0.6-1.3l-0.5-0.5  l-0.4-1l-0.1-0.6l-0.4-0.4l-0.3,0.3c-0.2-0.2-0.4-0.5-0.6-0.7l-0.4-0.3L24.2,64l0.2-0.2l0.6,0l0.4,0.4l0.1-0.2l-0.6-0.4l-0.5-0.1  l-0.7-0.5l-0.1,0.5l-0.6-0.3l-0.4-0.4l-0.4-0.4l-0.3,0l-0.6-0.7l-0.3-0.1l-0.4-0.5l-0.1-0.4c-0.3-0.5-0.6-0.9-0.9-1.4l-0.4-0.9  l0.1-0.1c0.2,0.3,0.5,0.7,0.7,1l0.4,0.5l0.3,0.6l0.3,0.2l0.6,0.6l0.1,0.1l0.3,0.3l0.4-0.1l0.4,0.1l-0.4-0.5l0-0.2l-0.3-0.2l0.1-0.4  l-0.2-0.1l0.2-0.3L22,59.5c0-0.1-0.1-0.2-0.1-0.3l0.3-0.1l0.2,0l0.1-0.4L22.2,58l0.1-0.5l0-0.4l0.3-0.1l0.1-0.4l0.4,0.1l0.4,0.3  l0.3,0.1l0.1,0.4l0,0.3l0.4,0.3l0.1,0.4l0.3,0.3l0.2-0.2l0-0.3l0.3,0.3l-0.1-0.3L25,58l-0.2-0.1l0-0.4l-0.2-0.6l0-0.7l0.2-0.2  l0.2-0.7c0.3,0.5,0.6,1,0.9,1.5c0,0.1,0.1,0.2,0.1,0.4l-0.3,0l0.3,0.9l0.2-0.5l0.1-0.6l0.2-0.4l0.1-0.5l0-0.6l0.4,0.2l0.2,0.7  l0.4,0.4l0.3,0l0.4,0.3l0.2,0.4l0.5,0.6l0.1,0.4l0.5,0.5l0.1,0.6L29.6,60l0.2,0.1l0.3,0.6l-0.1,0l0.2,0.6l0.3,0.3l0.3,0.8l0.4,0.7  l0.1,0.3l0.4,0.4l0.2,0.6c0.2,0.4,0.4,0.7,0.6,1.1l0.2,0.7l0.3,0.4l0.4,0.1l0.5,0.2l0.4,0.5l0.6,0.2l0.6,0.3l0,0.4l0.3,0.1l0.3-0.2  l0.2,0.2l0.2,0.9l0.7,0l-0.2,0.4l0.5,0.2l0.2-0.1l0.4,0.3l0.4,0.6l0.7,0.7l0.5,0.4l0.4,0.2l0.4,0.5l-0.7,0l0.7,0.5l1.1,0.4l0.4,0  l0.3,0.5l0.6-0.1l-0.3-0.4l0.3-0.1l0.5,0.1l0.4,0l0.3,0.2l0.3,0.4l0.5,0.1l0.7,0.5l0.7,0.1l0.6,0.1l0-0.4l0.4,0l0.7,0.3l-0.1,0.6  l0.3-0.4l0.4,0.1l0.3-0.6l-0.4-0.4l-0.5-0.3l0.1-0.7l0.5-0.4l0.5,0.2l0.4,0.3L50,74l-0.4,0.3l0.8,0.2l0,0.6l0.6-0.5l0.5,0.4  l-0.1,0.4l0.5,0.4l0.5-0.4l0.3-0.5l0-0.7c0.4,0,0.8,0,1.3,0l0.6,0.2l0.1,0.3L54.3,75l0.4,0.3l0,0.3l-0.9,0.5l-0.6,0.1l-0.5-0.1  l-0.1,0.3l-0.4,0.5l-0.1,0.3l-0.6,0.4l-0.7,0l-0.4,0.2l0,0.4l-0.6,0l-0.7,0.4l-0.6,0.6l-0.2,0.4L48,80.3l0.8,0.2L49,81l0.2,0.4  l0.8-0.1l1.1,0.2l0.6,0.2l0.4,0.2l0.7,0.1l0.6,0.2c0.5,0,1.1-0.1,1.6-0.1l0,0.4l0.2,0.5l0.5,0.5l1,0.3l0.4-0.2l0.2-0.5l-0.4-0.7  l-0.4-0.2l0.9-0.4l0.6-0.5l0.2-0.4L58,80.6l-0.5-0.4L56.8,80l0.5-0.7L57,78.9l-0.3-0.8l0.3-0.2l0.9,0l0.5-0.1l0.4-0.2l0.5,0.1  l0.7,0.1l0.2,0.2l0.9-0.3l0.1,0.4l0.4,0.6l0.5-0.1l0.5,0.2l0.6-0.6l0.2-0.7l0.2-0.4l0.6,0.3c0.6,0.2,1.2,0.4,1.7,0.6l0,0.4l0.8-0.1  l0.6,0l0.8-0.3l0.4-0.1l0.4,0.2l0.4-0.2l0.3,0l0.3,0.4c-0.2,0.3-0.3,0.5-0.5,0.7l-0.7,0.6l-0.5,0.7l-0.9,0.5  c-0.9,0.4-1.7,0.7-2.6,1.1l-0.3,0.5L63.7,83l-0.6,0.9l-0.6,0.6l0.5-0.2l0.7-0.9l1.1-0.8l0.8-0.4l0.6,0l-0.4,0.5l0.4,0.4l0.3,0.2  l0.8-0.2l0.9-0.5l0.3-0.7l0.2,0.3l0.4-0.1l-0.6,0.6c-0.6,0.4-1.1,0.8-1.6,1.3l-0.5,0.6L66,84.6l-0.2-0.3l0.9-0.8  c-0.5,0.2-1,0.5-1.6,0.8l0.2,0.1l-0.6,0.4c-0.4,0.3-0.8,0.5-1.2,0.7c-0.1,0.2-0.2,0.3-0.3,0.5l0.1,0.2l0.3,0.1l0.3-0.1l-0.1-0.1  l0.2,0l0,0.1l-0.4,0.2l-0.3,0.1l-0.5,0.2c-0.2,0.1-0.4,0.2-0.6,0.2l-0.5,0.3l0.9-0.3l0.2,0l-0.9,0.4l-0.4,0.1l0-0.1l-0.2,0.2l0.2,0  l-0.1,0.3L61,88.2l-0.1-0.1l-0.2,0l-0.2,0l0.2,0.2l0.2,0l0.1,0.1c-0.2,0.2-0.3,0.4-0.5,0.6l-0.1,0l0.2-0.3l-0.4,0L60,88.4l-0.1,0.2  l0.2,0.2l-0.4,0l0.5,0l0.1,0.3l0.2,0l0.1,0.1l0.2,0.3l-0.4,0.3l-0.7,0.3l-0.4,0.3l-0.4,0.1l-0.3,0.2l-0.1,0.1l-0.8,0.3l-0.4,0.2  l-0.3,0.2l-0.1,0.2l0.2,0.2l0.3,0.2l0.4,0.1l0,0.1l0.4,0.2l0,0.2l0,0.1l-0.2,0.2L57.6,93l-0.4,0l-0.1-0.1l-0.3,0  c-0.3-0.1-0.5-0.2-0.8-0.3l-0.1-0.1l0.1-0.2l-0.2-0.1l-0.6-0.2l-0.3,0l-0.8,0.2l-0.1,0l-0.4-0.1l-0.5,0l-0.9,0.1c-0.4,0-0.8,0-1.3,0  l-0.3,0l0.1,0.1l0,0.1l0.2,0.1l-0.2,0l-0.3,0l-0.3,0l-0.6,0l-0.6-0.2l-0.7,0l-0.6-0.1c-0.4,0-0.8,0-1.1,0L46,92.3l-0.8,0l-0.4,0.1  l-0.2,0.1l0,0.2l0,0.1l0.1,0.1L44.4,93l-0.2,0.1l-0.1,0.3l-0.1,0.1l0.1,0.1l0.2,0.1l0.1,0.2L45,94l0.2,0.1l0.3,0.1l0.8,0.1l0.3,0.1  c0.8,0,1.6,0.1,2.5,0.1l0.5,0l0.2-0.1l0.1-0.1l0.1,0c0.9-0.1,1.7-0.1,2.6-0.1l0.2,0l0,0.1l-0.4,0.1l-0.2,0.1l0.2,0  c-0.1,0.1-0.2,0.1-0.3,0.2l-0.2,0l-0.2,0l0,0l0.2,0l0,0l-0.1,0.1l0.1,0l-0.1,0l0.1,0l-0.1,0.1l-0.2,0l-0.1,0l-0.2,0l0.3,0l0.1,0  c0.1,0,0.2,0,0.3,0l0.2,0l0.2,0l0.1,0c0.4,0,0.8,0,1.1-0.1l0.1,0c0.3,0,0.6,0,0.8-0.1c0.3,0,0.6,0,0.9,0  c17.9-1.6,32.8-13.8,38.5-30.2l0.1-0.2l0.1-0.4L93.8,63.9L93.8,63.9z M90,41.8L89.8,41c-0.1-0.4-0.2-0.8-0.4-1.2l0.3,0.2l0.1-0.1  l0.2,0.1l0,0.6l0,0.4l0,1L90,41.8z M21.7,27.1l-0.4,0.3L21,27.7l-0.1,0.5L20.4,28l0.5-0.8l0-0.7l0.9-0.6l-0.1-0.5l0.5-0.6l0.4,0.2  l0,0.4l-0.4,0.5l0.3,0.5l0.1,0.4L21.7,27.1z M24.3,28.4l0.6,0l0.5,0.5l-0.2,0.6l0.3,0l-0.1,0.2c-0.3-0.1-0.6-0.1-0.8-0.2l-0.4-0.3  L23.7,29l-1,0l0.7-0.6l-0.3-0.7l-0.7,0.2l-0.2-0.2l0.5-0.2l0-0.5l0.4,0.1l0.3,0.3l0.4,0.3l0.2,0.3L24.3,28.4z M20.3,23.4l0.5-0.8  l0.8-0.9l0.4-1l0.4-0.2l0.2,0.1l0.8-0.9l0.5-0.7l0.6-0.5l-0.7,0.3l0-0.7l0.3-0.4l0.3-0.1l0,0.3l0.4-0.2l0.4,0l-0.5,0.5l-0.2,0.4  l-0.4,0.6L24,19.7l-0.9,1l-0.6,0.5l-0.1,0.9L22,22.3c-0.2,0.4-0.4,0.9-0.6,1.3l0.1,0.6l0.4,0.2l0,0.4l-0.4,0.6l-0.6-0.1l-0.2-0.2  l0.1-0.7l-0.3-0.2l0-0.4l-0.2,0L20.3,23.4z M61.7,93.2c-0.5,0.1-1.1,0.2-1.6,0.4l0.5-0.2l-0.3,0l-0.5,0.1l-0.3,0l-0.2-0.1l-0.4,0.1  l-0.7,0.1l-0.2,0l-1,0.1l-0.3,0l0.3-0.1l-0.8,0.1l-0.6,0.2l-0.3,0l-0.1,0.1L54.7,94l-0.3,0l0.4-0.1l0.2-0.1c0.4-0.1,0.9-0.2,1.3-0.2  l0.2,0c0.4,0,0.9-0.1,1.3-0.2l0.7-0.1l0.3,0l0.7-0.2c0.5,0,1,0,1.4-0.1l0.2-0.1l0.5-0.1l0,0.1l0.6-0.1l0.6-0.1l-0.1,0.1  C62.3,93,62,93.1,61.7,93.2z M66.9,91.8l-0.4,0.1c-0.2,0.1-0.4,0.1-0.6,0.2l-0.1,0.1l-0.3,0.1l-0.1,0l-0.2,0.1l-0.3,0.2l-0.2,0l0,0  c-0.4,0.1-0.9,0.3-1.3,0.4L63,93.1l-0.4,0.1l0.1-0.1c0.4-0.1,0.8-0.2,1.3-0.3l0.3-0.1l-0.4,0l0-0.1l-0.5,0.1l0.2-0.1  c0.4-0.1,0.7-0.2,1.1-0.3l0.1-0.1l0.6-0.2l0.4-0.1l0.2-0.1l0.2,0l0.4-0.1l0,0.1l0.3-0.1l0.4-0.1L66.9,91.8z M59,31.5  c0.8,0.1,1.6,0.3,2.4,0.5l1.3,0.1l0.8-0.2l0.8-0.2l0.2-0.5l-0.3-0.9l0.2,0.1l1,0.8l-0.1,0.3l0.5,0.6l-0.2,0.3l-0.4-0.1l-0.2,0.3  l-0.9,0l0.2,0.3l-1-0.1L63.3,33c-0.7-0.1-1.4-0.3-2-0.4l-1.1-0.4l-0.6,0l-0.6-0.2l-0.1-0.3L59,31.5z M50.8,66.2l0.3,0l0.6-0.1  l0.4-0.3l0.4,0l0.3,0.2l0.2-0.4l0.4-0.2l0.5-0.2l0.8-0.2l0.2,0l0.7-0.3c0.8-0.2,1.6-0.4,2.4-0.7l0.5-0.1l0.1,0.2L58,64.8l-0.6,0.4  l-0.2,0.2l0.6-0.2l-0.5,0.6L57,66.2l-0.3,0.7l-0.6,0.3l-0.2,0.2L55,67.7l0.4,0l-0.2,0.2l0.3,0.3l-0.3,0.3l-0.5,0.3L54.8,69l-0.4,0.3  l0.1,0.1l0.6-0.1l0,0.2L54.2,70l-1-0.1l-1.1,0.2L51.6,70l-0.7,0l0-0.3l0.7-0.2l-0.2-0.5l0.2,0l0.9,0.2L52,68.9l-0.6-0.1l0.3-0.3  l0.6-0.2l0.1-0.2l-0.5-0.2l-0.2-0.3l0.9,0l0.3,0l0.5-0.3l-0.7,0l-1.1,0.1L51,67.1l-0.3-0.3l-0.4-0.2l-0.1-0.2L50.8,66.2z M48.9,67.1  l0.2-0.2l0.3,0l-0.1-0.2l0.7,0l0.4,0.4c0.3,0.1,0.7,0.2,1.1,0.3l0.3,0.4l0.4,0.2l-0.4,0.2v0l-0.6,0.5l-0.6,0l-0.7-0.1l-0.3-0.3  l0-0.2l0.3-0.2l-0.6,0l-0.3-0.3l-0.2-0.3L48.9,67.1z M47.9,68.1l0.4,0.1l0.2,0.1l0.4,0.3l-0.1,0.2l-0.5,0.1L48,68.7l-0.1-0.3  L47.9,68.1z M47.7,69.6L47.7,69.6l0.3,0.3l0,0.3l-0.2,0.4l-0.6,0l-0.4-0.2l0.1-0.4L46.1,70l0.1-0.5l0.4,0.1l0.6-0.1L47.7,69.6z   M45.8,67.6l0.1-0.3l0.6,0.3l0.8,0.4l0.2,0.4l0.1,0.3l-0.5-0.2l-0.5-0.3L45.7,68l0.4-0.1L45.8,67.6z M41.7,67.9l0.4,0l0.8,0.6  l0.4,0.6l0.6,0.3l-0.2-0.8l0.4-0.1l0.3,0.2l0,0.3l0.1,0.3l0.3,0l0.3,0.1l0,0.3L44.7,70l0,0l-1.2-0.3l-1-0.1L42,69.3l0-0.2l0.8,0.1  c-0.5-0.2-1.1-0.4-1.5-0.6L41,68.2L41.7,67.9z M39,69.5c0,0.1-0.1,0.1-0.1,0.2l-1.1-0.3l0-0.3l-0.5-0.8c0.3-0.1,0.5-0.2,0.8-0.3  l0.5-0.1l-0.1-0.5l1.1,0.6l0.4,0.4l0.8,0.5l0.2,0.3l0.2,0.4l-0.5-0.1l-1-0.1L39,69.5z M45.8,73.8l-0.7-0.1l0.2,0.3l-0.2,0.2  l-0.7-0.3l-0.7-0.4l-0.5-0.1l-0.8-0.1c-0.6-0.2-1.2-0.4-1.8-0.6l-0.1-0.4l-0.4-0.4l-0.4-0.1l-0.2-0.7c0.3,0.1,0.6,0.2,0.9,0.3  l0.5,0.3l0.5,0.1l-0.7-0.5L40,71l-0.5-0.3l-0.1-0.3l0.9,0.2l-0.5-0.3l-0.5-0.5l0.5-0.2l0.4-0.1l1.1,0.1l0.3,0.3l-0.3,0.2l0.9,0.2  l0.4,0.5l0.5-0.1l0.3,0.3l0.1,0.7l0.3-0.2l0-0.7l0.4,0l0.3,0.2l0.3,0.4l0.1,0.7l0,0.5l0.6,0.5l0.7,0.5L45.8,73.8z M47.9,72.9  L47.2,73l-0.4-0.1l-0.2-0.3l-0.9-0.7l0.1-0.2l0.8,0.3l-0.3-0.5l0.5-0.2l0.4,0.2l0.7,0l0.1,0.2l-0.4,0.2l0.6,0.4L47.9,72.9z   M48.4,69.4l0.7,0.1l0.4,0.2l0.7,0l0.3,0.2l-0.1,0.2l0.4,0.2l0.2,0.2c0.4,0,0.7,0,1.1,0.1l0.6-0.2l0.7-0.1l0.6,0l0.4,0.2l0.1,0.3  l-0.2,0.2l-0.5,0.2l-0.5,0l-1.1,0.2l-0.8,0l-0.6-0.1l-1-0.2l-0.1-0.4l0-0.3L49.3,70l-0.7-0.2l-0.4-0.3L48.4,69.4z M49.9,72.2  l-0.5,0.1l-0.5,0.4l-0.5-0.1l-0.2-0.6l0-0.3l0.2-0.2l0.4-0.1l0.8,0.1l0.7,0.2L49.9,72.2z M55.1,77.7l-0.8,0l-0.3-0.2l-0.5,0.4  l-0.7,0.3l-0.2-0.3L52,77.9l0.4-0.3l0-0.5l0.1-0.5l0.4,0l0.1,0.2l0.2-0.1l0.3,0.1c0.4,0.1,0.7,0.2,1.1,0.3l0.1,0.3l0.4-0.1l0.4,0.1  L55.1,77.7z M62.7,74.5l-0.6,0l-0.9-0.2l-0.5,0.3l0.1,0.3l0.6,0.1l0.7,0l0.2,0.1l0.5,0.4l0,0.4L62.2,76l-1.3,0  c0.5,0.1,0.9,0.2,1.4,0.3l0.1,0.1l-1.3,0.3l-1.1,0l-0.7-0.1l0.1-0.2c-0.5,0-1-0.1-1.5-0.2l0,0.2L56.7,77l-0.4-0.1l0.2-0.5l0.9-0.2  l0.9-0.3L58,75.7l0.1-0.3l0.4-0.7l-0.2-0.2l-0.2-0.2l-0.7-0.1l-0.9,0l0.2-0.2l-0.5-0.3l-0.4,0l-0.4-0.1l-0.2,0.2L54.5,74l-1.6,0  c-0.5-0.1-1.1-0.1-1.6-0.2l-0.4-0.2l0.4-0.3l-0.6,0l-0.1-0.6l0.3-0.6l0.4-0.3l1-0.2l-0.3,0.4l0.3,0.4l0.3-0.5l1-0.4l0.8,0.6l0,0.4  l0.8-0.3l0.3-0.3l0.9,0.1l0.6,0.2l0.1,0.2l0.7-0.3l0.5,0.2l1-0.1l0.4,0.1l0.6,0.4l-0.6,0.6l1.1,0l0.7-0.2l0.8,0.2l0.6-0.3l0.1,0.4  L62.7,74.5z M72.5,79.4l-0.2,0.2l-0.4,0.2l-0.1-0.4l-0.2,0.1l-0.4,0.7L71,80.4l0.3-0.4l-0.6,0.2l-0.5,0.4l-1,0.6L69,81.1l0.3-0.3  l-0.3,0l0.3-0.5l0.1-0.9l0.2-0.4l0.3-0.4l0.2-0.1l0,0.2c-0.1,0.3-0.1,0.6-0.2,1l0.2-0.3l0.4-0.1l-0.1,0.2l0.5-0.2l0.2-0.2l0.6-0.2  l0,0.4l0.3-0.3l0.2,0.1l0.3,0.1C72.5,79.1,72.5,79.3,72.5,79.4z M73,62.2l-0.5,1.2l-0.3,0.4l-0.1,0.5l0.2,0.9l-0.2,1l-0.2,0.3  c-0.2,0.4-0.4,0.8-0.6,1.1l0,0.5l0.3,0.3l0.1,0.4l-0.2,0.9l0.5,0.2c0.1,0.3,0.3,0.7,0.4,1l-0.5,0.5l-0.8,0.2l-0.7,0.7l-0.6,0.1  l-0.6-0.2l-1.1,0L67.6,72l-0.4-0.4l-0.8-0.1l-0.1-0.4l-0.4,0l-0.1-0.8l0.4-0.6l0-0.3L66,69c-0.1,0.2-0.2,0.5-0.4,0.7l-0.3,0.3  l-0.5,0.1l-0.3-0.3l-0.1-0.4l0.3-0.2l0.8-0.4c-0.4,0.1-0.8,0.1-1.2,0.1l-0.3,0.3l-0.4,0.1l0-0.7l-0.3-0.1c-0.4-0.2-0.8-0.4-1.2-0.5  l-0.5,0l-0.1-0.2l-1,0.1c-0.8,0.3-1.5,0.7-2.3,1.1l-0.5-0.1l-0.7-0.2l0.8-0.5l0.6-0.3l-1.4,0.3l-0.8,0l0-0.3l1.1-0.7l1-0.7l0-0.3  l-0.9,0.1l0.1-0.3l0.7-0.8l0.3-0.3l-0.2-0.2l0.5-0.5c0.5-0.4,0.9-0.7,1.4-1l0.4,0l0.4-0.7l0.7-0.2l0.3-0.2l0.6-0.2L61.9,62l-0.2-0.2  l0.4-0.9l0.7-0.7l0-0.4c0.6-0.8,1.2-1.6,1.7-2.5c0.4-0.4,0.9-0.9,1.2-1.3l0,0.6c-0.4,0.8-0.7,1.5-1.1,2.3l0.2-0.1l0.4-0.9l0.6-0.6  l0-0.6l0.3-0.1l0.2,0.5l0.1-0.8c0.1-0.4,0.2-1,0.2-1.4l0.4-0.8l0.3-0.1l0.1,1.3l0.1,0.2l-0.2,1l0.3-0.7l0.3,0.5l0.3,0.4l0.7,0.3  l0.5-0.2l-0.2,0.5l0,0.6l0.6-0.5l0.5,0.1l-0.1,0.4l0.7-0.2l-0.3,0.8l0.4-0.3l0.2,0.2l-0.1,0.5l-0.2,0.5l0.6-0.3l0.3,0.1l-0.6,0.6  l0.1,0.3l0.4-0.4l0.6-0.3l0.5,0.1L72.7,60c-0.3,0.2-0.6,0.3-0.9,0.5l0.4,0.1l0.1,0.6c0.3-0.5,0.5-1,0.8-1.5l0,1.2L73,62.2z   M77.4,59.2l0,0.4c-0.3,0.6-0.7,1.2-1,1.7l0-0.5l-0.7,0.8l0.2-0.8l-0.2-0.1l-0.5,0.8L75,61.2l0.2-0.7l0.6-0.5l0-0.8l0.4-0.5  l-0.1-0.8l0.3-0.7l0.3,0.2l0.5-0.4l0.3,0.7L77.4,59.2z M84.5,56.7l-0.4-0.6l-0.5,0.2c-0.1-0.4-0.3-0.9-0.4-1.3l0.1-0.5l0.4-0.6  l0.3,0.4l0.4-0.1l0.4,0.5l0.1,1.1L84.5,56.7z M85.7,54.3l-0.4-1l-0.1-0.6l-0.2,1l-0.2,0.2l-0.1-0.7l-0.3,0.3l-0.3-0.1l0.1-0.9  L84,52.4l-0.3,0.4l-0.2,0.7l-0.2,0.1l-0.2-0.2L83,53.5l0.2,0.3l-0.5,0l-0.3,0.3l-0.5-0.3l-0.4-0.5l0.1-0.4l0-0.7l0.5,0.6l0-0.6  l0-0.6l0.4,0.2l0.4,0.5l0.1-0.6l0.7-0.5l0.1-0.4l0.6-0.4l0.2-0.2l0.1-0.7l0.3,0.1l0.1,0.3l0.2-0.3l0.2,0.6l0,0.8l0.1,1.1l-0.1,0.3  l0.2,0.4l-0.1,0.6l0.1,0.5L85.7,54.3z"/><text x="0" y="115" fill="#000000" font-size="5px" font-weight="bold" font-family="'Helvetica Neue', Helvetica, Arial-Unicode, Arial, Sans-serif">Created by Ted Grajeda</text><text x="0" y="120" fill="#000000" font-size="5px" font-weight="bold" font-family="'Helvetica Neue', Helvetica, Arial-Unicode, Arial, Sans-serif">from the Noun Project</text></svg>