<svg xmlns="http://www.w3.org/2000/svg" xmlns:xlink="http://www.w3.org/1999/xlink" version="1.1" x="0px" y="0px" viewBox="0 0 100 125" enable-background="new 0 0 100 100" xml:space="preserve"><path d="M94.1,58.3l-0.3,0.3l-0.2,0.3l-0.1,0.6l0.1,0.5l0.2-0.4l0.4-0.6l-0.1,0.4l-0.1,0l-0.1,0.5l-0.2,0.4l0,0.7l-0.1,0.3l0,0.4  c0.3-1.2,0.6-2.4,0.8-3.6l-0.1,0.2L94.1,58.3z M88.5,26.5l0.1,0.2l0,0.1l-0.2-0.2l0.2,0.6l0.1,0.2l0,0c0.1,0.2,0.1,0.4,0.2,0.5  l0.3,0.4l0,0.2c0,0.1,0.1,0.3,0.1,0.4l0,0.2l0.1,0.2l0.2,0.3l0,0.1l0.1,0l0.2,0.2l0.5,0.6l0.2,0.4l0.4,0.7l0.1,0.4l0,0.3l0,0.4  l-0.1,0.2l-0.2-0.3l-0.2-0.5l-0.4-0.6l0-0.2L89.8,31l-0.1,0l0,0.1l0,0.1l-0.1-0.1l-0.1,0L89.5,31l-0.1-0.3l0-0.1l-0.1-0.1l-0.2-0.4  L89.1,30L89,30l-0.2-0.1l-0.1,0.4l0,0.4l-0.1,0.3l-0.1-0.4l-0.2-0.2l-0.1-0.5L88,29.7l0,0.4l0,0.6l0.1,0.5L88,31.3l0,0.4l0.3,0.4  l0.2,0l0.2,0.3l0.3,0.1l0-0.6l0.3,0.1l0.1-0.1l0.2,0.3l-0.2,0.4l0.1,0.4l0,0.5l0.1,0.5l0.4,0.2l0.4,0.6c0.2,0.3,0.5,0.6,0.7,0.9  l0.2,0.5l0,0.3l0.2,0.3l0.2,0.1c0.1,0.4,0.2,0.8,0.3,1.2l-0.1,0.2c0.1,0.6,0.1,1.3,0.2,1.9l0,1l-0.2,0.9l-0.2,0.8l-0.3,0.3l-0.1,0.4  l-0.2-0.2L91,43.9l-0.4,0.6l-0.3,0.3l0,0.8l-0.2,0.1L90,45.2l0-0.3l-0.5,0l-0.1,0.2L89,45.9l-0.2,0.8l0,0.5c0.3,0.5,0.6,1,0.9,1.5  l0.4,0.3l0.3,0.5l0.3,1.3l0,1.3l-0.3,0.6L90,53.5l-0.3,0.8l-0.5,0.9l-0.2-0.4l0.1-0.6l-0.3-0.3l-0.4,0l-0.2-0.3L88,52.9l-0.4-0.2  l-0.4,0.1l0-0.6l-0.4,0.1l0,0.8c-0.1,0.6-0.2,1.3-0.3,1.9l0,0.5l0.3-0.1l0.2,0.6l0.1,0.6l0.3,0.3l0.3,0l0.2,0.3l0.1,0l0.2,0.4  l0.2,0.4l0,0.5l-0.1,0.4l0,0.2l0,0.4l0.1,0.1l0.1,0.6l0,0.2l-0.3,0.2l-0.4-0.4l-0.5-0.4l0-0.4l-0.2-0.4l0-0.6L87,58.4l0.1-0.6  L87,57.6l-0.2-0.2L86.7,57c-0.2-0.2-0.3-0.4-0.5-0.6l-0.1,0.5L86,56.5l0.1-0.5l0.1-0.8l-0.1-0.5l0.1-0.6l-0.2-0.4l0-0.8l-0.2-0.3  l-0.2-0.8l-0.2-0.9l-0.3-0.6l-0.3,0.5l-0.5,0.7l-0.3,0l-0.4-0.1l0.1-1l-0.2-0.7L83,48.9l0-0.3l-0.3,0L82.2,48L82,47.7l-0.1-0.4  L81.7,47l-0.3-0.4l-0.5,0.1L81,47l-0.1,0.5l-0.3-0.1l-0.1,0.2l-0.2,0l-0.2,0l0,0.3l-0.4,0.1l-0.7,0.3l0.1,0.5l-0.3,0.5l-0.8,0.7  l-0.6,1l-0.4,0.6L76.2,52c0,0.1,0,0.2,0,0.3l-0.3,0.2l-0.6,0.4L75,53l-0.2,0.6l0.2,1l0.1,0.6l-0.3,0.8l0,1.3l-0.4,0.1l-0.3,0.6  l0.2,0.2l-0.6,0.3L73.6,59l-0.3,0.3l-0.7-0.6c-0.2-0.6-0.4-1.2-0.6-1.8l-0.3-0.3l-0.4-0.7l-0.2-0.9L71,54.5l-0.7-1  c-0.2-0.8-0.4-1.6-0.7-2.4l-0.1-0.9l-0.2-0.7l-1,0.5l-0.5,0l-1-0.8l0.3-0.3L67,48.7l-0.9-0.6L65.6,48l-0.3-0.5l-0.6-0.5l-1.3,0.2  l-1.2,0.1l-1,0.2c-0.7-0.1-1.5-0.2-2.2-0.3L58.2,47l-0.3-0.9L57.5,46l-0.6,0.1l-0.7,0.4l-0.9-0.2l-0.8-0.6l-0.7-0.2l-0.5-0.7l-0.5-1  L52.4,44L52,43.7L51.7,44l-0.4,0l0.2,0.3l-0.1,0.2c0.2,0.4,0.3,0.8,0.5,1.2l0.4,0.2l0.1,0.3l0.5,0.3l0,0.3l-0.1,0.2l0.1,0.2l0.2,0.2  l0.1,0.2l0.1,0.2l-0.1-0.5l0.2-0.4l0.2-0.1l0.2,0.2l0,0.4l-0.2,0.4l0.1,0.3l0.1,0l0,0.2l0.6-0.1c0.4,0,0.7,0,1.1,0  c0.5-0.5,1-1,1.5-1.5l0.2-0.3l0.1,0.1l-0.1,0.3l-0.1,0.1l0.1,0.6l0.3,0.5l0.4,0.3l0.5,0.1l0.4,0.1c0.2,0.2,0.4,0.4,0.6,0.7l0.3,0.1  c0,0.1,0,0.1,0,0.2c-0.1,0.2-0.2,0.4-0.4,0.7l-0.3,0.3l-0.3,0.5l-0.3,0l-0.1,0.2l-0.1,0.4l0.1,0.5l-0.1,0.1c-0.1,0-0.2,0-0.3,0  l-0.5,0.3l-0.1,0.4l-0.2,0.2l-0.5,0l-0.3,0.2l0,0.3l-0.4,0.2L56,53.6l-0.5,0.3l-0.4,0l-0.6,0.2l-0.1,0.3l0,0.3L53.6,55l-1.2,0.4  l-0.7,0.5l-0.3,0l-0.2,0l-0.5,0.3l-0.5,0.1l-0.7,0l-0.2,0l-0.2,0.2l-0.2,0.1l-0.1,0.2l-0.4,0l-0.3,0.1l-0.5-0.1l-0.2-0.4l0-0.4  l-0.1-0.2l-0.1-0.6L47,54.9l0.2,0l-0.1-0.3l0.1-0.1l0-0.3l-0.1-0.3l-0.2-0.2l-0.1-0.3l-0.4-0.3L46,52.2l-0.2-0.6l-0.5-0.5L45,51  l-0.5-0.7l-0.1-0.5l0.1-0.4l-0.4-0.8l-0.3-0.3l-0.4-0.2l-0.2-0.4l0.1-0.2l-0.2-0.4l-0.2-0.2l-0.2-0.6c-0.2-0.4-0.5-0.8-0.7-1.1  l-0.4,0l0.1-0.4l0.1-0.3l0.1-0.3l0-0.1l-0.2,0.3l-0.2,0.5l-0.2,0.4L41,45.3c-0.2-0.2-0.3-0.4-0.5-0.6l-0.4-1.1L40,43.7l0.2,0.8  l0.4,0.8l0.4,1.2l0.2,0.4l0.2,0.4l0.6,0.9l-0.2,0.1l0,0.5l0.8,0.7l0.1,0.2l0.2,0.7l-0.2,0.1l0.1,0.8l0.2,0.9  c0.2,0.2,0.5,0.3,0.7,0.5l0.4,0.9l0.2,0.7l0.4,0.4l1,0.8c0.4,0.4,0.7,0.8,1.1,1.2l0.4,0.2l0.2,0.2l0,0.3L47,57.5  c0.2,0.1,0.4,0.3,0.6,0.4l0.1,0.3l0.3,0.3l0.4,0l0.7-0.2l0.8-0.1l0.7-0.2l0.4,0l0.3-0.1c0.2,0,0.5,0,0.7,0l0.4-0.1l0.4-0.1l0.4-0.3  l0.3,0l0,0.2L53.5,58l0,0.4l-0.2,0.3l-0.2,0.8c-0.3,0.6-0.6,1.2-0.9,1.8l-0.7,1.1c-0.5,0.6-1.1,1.2-1.6,1.8l-0.8,0.6L48,65.5  l-0.7,0.5l-0.9,0.8l-0.2,0.4L46,67.4l-0.5,0.3L45.3,68L45,68l-0.1,0.5l-0.2,0.3l-0.1,0.5l-0.3,0.2l-0.3,0.8l0.1,0.4l0.5,0.3l0,0.2  l-0.2,0.4l0,0.2l0,0.3l0.3,0.4l0.3,0.7l0.3,0.2l0.1,0.3l0,0.6l0.1,0.6l0.1,1l0.1,0.3l-0.2,0.4L45,76.8l-0.4,0.3  c-0.5,0.1-1,0.3-1.4,0.4l-0.8,0.6l-0.3,0.1l-0.5,0.4l-0.3,0.1l0,0.4l0.4,0.4l0.2,0.3l0,0.2l0.1,0l0,0.5L42,80.8l0.2,0.1l-0.1,0.2  l-0.3,0.2c-0.4,0.1-0.9,0.2-1.3,0.4l-0.3,0.2l0.1,0.2l0.2,0l0,0.3l-0.1,0.4l0,0.4l-0.1,0.2c-0.2,0.1-0.3,0.2-0.5,0.3l-0.2,0.2  l-0.1,0.2l-0.3,0.3c-0.3,0.2-0.6,0.5-0.9,0.7l-0.4,0.2l-0.6,0.1l-0.3,0l0,0.1l-0.4-0.1l-0.3,0.1l-0.7-0.2l-0.3,0l-0.2-0.1l-0.5,0.1  l-0.5,0l-0.3,0.1l-0.2,0l-0.3-0.2l-0.2,0L32.9,85l0,0.1l-0.1-0.1l-0.1-0.3l-0.3-0.3l0.1-0.1l-0.2-0.4c-0.6-0.5-1.1-1.1-1.7-1.7  l-0.6-0.5l-0.4-0.4l-0.3-0.5l-0.3-0.4l-0.5-0.9l-0.2-0.7l-0.2-0.3l-0.3-0.3l-0.5-0.5c-0.3-0.4-0.5-0.7-0.8-1.1l-0.7-0.7  c-0.1-0.3-0.2-0.6-0.3-0.9l0-0.5l0.1-0.5l0-0.3l0.1-0.5L26,73l0.3-0.4l0.2-0.2l0-0.5l-0.1-0.4l-0.2-0.3c-0.2-0.3-0.3-0.6-0.5-0.8  l0-0.1l0.2-0.2c-0.2-0.4-0.3-0.8-0.5-1.2l-0.4-0.5l0-0.1c-0.1-0.2-0.2-0.5-0.3-0.8L24,66.8l-0.7-0.8l-0.5-0.7l-0.4-0.8l0-0.2  l0.1-0.2c0.1-0.3,0.2-0.7,0.2-1l-0.1-0.1l0.2-0.8l0.1-0.6L22.6,61l-0.3-0.2l-0.1-0.4L22,60.3l0-0.2l-0.7,0.1l-0.2-0.1l-0.2,0.1  l-0.5-0.1L20,59.6L19.8,59l-0.4-0.6c-0.3-0.1-0.7-0.1-1-0.2l-0.5,0l-0.5,0l-0.9,0.2l-0.3,0.2l-0.5,0.1l-0.5-0.4L15,58.2L14.6,58  l-0.3-0.1l-0.6-0.1c-0.3,0.1-0.5,0.1-0.8,0.2L12.8,58l-0.1,0l-0.5-0.5l-0.4-0.7l-0.4-0.6l-0.3-0.6L11,55.4L10.7,55l-0.2-0.5  l-0.1-0.3l0-0.6l-0.2-0.5l-0.1-0.4L10,52.6l-0.1-0.2l0-0.4l0-0.2l-0.1-0.2l-0.2-0.4l-0.1-0.1l-0.1-0.3l0-0.1l-0.1-0.2  c0-0.3,0-0.5,0-0.8l0.1-0.3l-0.1-0.7l-0.1-0.4l0.2-0.1L9.5,48l0.1-0.3l0-0.4l0.2-0.3l0.2-0.7c0.1-0.4,0.1-0.7,0.1-1.1l0.1-0.3l0-0.4  L10.2,44c0.1-0.2,0.1-0.4,0.2-0.6l0.2-0.1l0.2-0.3l0-0.3l0.3-0.4l0.3-0.4l0.2-0.1l0.2-0.4l0.1-0.4l0.3-0.4l0.3-0.1l0.5-0.6l0.3-0.2  l0.4,0.1l0.5-0.4l0.3-0.1l0.5-0.4L15,38l0.4-0.5l0.2-0.3l0.4-0.4l0.5-0.2l0.4-0.2c0.3-0.3,0.6-0.6,0.9-1l0.3,0.1l0.2,0.4l0.5,0.1  l0.4,0.3l0.2,0.1l0.6-0.2l0.6,0l0.4-0.2l0.6-0.1c0.6,0.1,1.2,0.2,1.9,0.3l0.2,0.2l0.6-0.2l0.6,0.1l0.2,0.2l0.4,0l0.7-0.2l0.4,0.2  l-0.1,0.3l0.6-0.2l0,0.1l-0.4,0.3l-0.1,0.3l0.2,0.2l-0.3,0.6L26,38.5l0,0.4l0.3,0.1l0.1,0.4l0.2,0.2l0.7,0.4l0.3,0l0.5,0.2l0.8,0.5  l0.2,0.7l0.5,0.2l0.8,0.4l0.6,0.5l0.4-0.1l0.4-0.3l0-0.6l0.3-0.3l0.5-0.3l0.5,0l0.9,0.3l0.2,0.3l0.2,0l0.2,0.1l0.7,0.2l0.1,0.3  l0.9,0.1c0.5,0.2,1.1,0.4,1.6,0.7l0.6-0.2l0.3-0.2l0.6,0l0.5,0.1l0.2,0.4l0.2-0.2l0.5,0.2l0.5,0.1l0.4-0.2l0.2-0.2l0,0l0.2-0.3  l0.2-0.5l0.1-0.2l0,0l0.3-0.6l0.4-0.5l0,0l0-0.5l0.2-0.3l-0.2-0.3l0.3-0.3l-0.4,0l-0.5-0.2l-0.5,0.4l-1,0l-0.5-0.4l-0.7-0.1  l-0.2,0.3l-0.5,0l-0.6-0.4l-0.7-0.1l-0.3-0.7l-0.4-0.4l0.4-0.5l-0.3-0.4l0.8-0.6l1,0.1l0.4-0.5l1.2,0.2l0.8-0.4l0.8-0.1l1.1,0.1  l1.1,0.6l0.9,0.3l0.8-0.1l0.6,0.1l0.8-0.3l0.1-0.3L47,34.9l-0.4-0.3l-0.4-0.1l-0.2-0.2l-0.8-0.6l-0.7-0.3L44.1,33l0.5-0.1l0.6-0.5  l-0.3-0.3l0.9-0.2l0-0.1l-0.6,0.1l-0.5,0L44.3,32l-0.6,0l-0.6,0.2l0,0.4l0.3,0.2l0.6,0l-0.2,0.2l-0.7,0.1l-0.9,0.3L42,33.3l0.2-0.3  l-0.6-0.2l0.1-0.1l0.6-0.2l-0.2-0.2l-0.9-0.2l0-0.3l-0.6,0l-0.3,0.3l-0.6,0.5l0,0.2l-0.3,0.1l-0.2-0.1l-0.3,0.8l-0.4,0.2l-0.3,0.5  l0.1,0.4l0,0.3l0.5,0.3l-0.1,0.2l-0.8,0c-0.3,0.2-0.6,0.3-0.9,0.5l-0.1-0.3l0-0.1l-0.4-0.1l-0.3-0.1l-0.8,0.1l0.3,0.4l-0.3,0.1  c-0.1,0-0.2,0-0.3,0l-0.2-0.4l-0.1,0.1l0,0.4l0.2,0.4l-0.3,0.1l0.3,0.4l0.3,0.2l-0.1,0.4l-0.6-0.3l0.1,0.4l-0.4,0l0.1,0.6l-0.4,0  l-0.5-0.4l-0.1-0.6l0-0.5c-0.1-0.3-0.3-0.5-0.4-0.8l0-0.2L33,35.8l0-0.2l-0.3-0.3l0-0.3l0.2-0.5l0.1-0.2L33,34.3l-0.1-0.1l-0.1-0.2  c-0.2-0.2-0.5-0.3-0.7-0.5l-0.3-0.3l-0.5-0.3l-0.3-0.6l0.1,0L31,32l0.1-0.2l-0.3-0.2l-0.3,0.3l-0.1-0.2l0.1-0.2l0,0l0.1,0l-0.4-0.2  l-0.5,0.2l-0.1,0.3l-0.1,0.2l0.1,0.4l0.4,0.4l0.1,0.6l0.5,0.6l0.5,0.1l0.1,0.2l-0.2,0.1c0.3,0.2,0.6,0.4,0.8,0.6l0.4,0.4l0,0.1  L32,35.6l-0.2-0.4L31.2,35l-0.4,0.4l0.4,0.3l-0.2,0.3l-0.3,0l-0.5,0.5l-0.3,0c0-0.1,0-0.1,0.1-0.2l0.2-0.4l0.2-0.1  c-0.1-0.3-0.1-0.5-0.2-0.8L30.1,35L30,34.7l-0.3-0.2l-0.2-0.3l-0.4-0.1l-0.3-0.4l-0.4-0.5l-0.2-0.5l0.1-0.7L28,31.9l-0.3-0.3l-0.3,0  l-0.4,0.2l-0.2,0l-0.6,0.3l-0.9-0.4l-0.8,0l-0.2,0.4l-0.1,0.4l-0.7,0.3l-0.7,0l-0.1,0.2L22,33.4l-0.4,0.5l0,0.4l-0.4,0.2l-0.3,0.4  l-0.4,0l-0.6,0.4c-0.4-0.1-0.7-0.2-1-0.3l-0.4,0.1l-0.3,0.2L18,35.3L17.9,35l0-0.4l-0.4-0.2l-0.2,0.1l-0.2-0.2l-0.2,0l0.3-0.5  l0.1-0.4l-0.2-0.1l0-0.3l0.2-0.4l0.3-0.2l0.2-0.3l0.3-0.4l0.1-0.3l0-0.3l0.1-0.2l0.3-0.4l0-0.3l0.8-0.3l0.4,0.3l0.6,0.2l0.4,0.3  l0.4,0.1l0.7,0.2l0.4-0.3l0.7-1.2L23,28.6l-0.1-0.4l-0.5-0.4l0.2-0.5l0.6,0l0.6,0.4l0.3-0.7l0.3,0.4l1.3-0.2l0.4-0.5  c0.3,0,0.6,0,0.9-0.1l0.3-0.1l0.9-0.8l0.8-0.1l0.4,0.1l0.2-0.1l0.4,0l0,0.1l0.5-0.2l0-0.2l0.2-0.3l0-0.4l0.3-0.6l0.2-0.1l0.2-0.1  l0.4,0l0.2-0.1l0.5-0.1l-0.2,0.3L31.9,24l0,0.2l0.2,0.1l-0.2,0.2l-0.1-0.1l-0.6,0.4l0,0.3l-0.1,0.2l0.4,0.2l-0.1,0.2l0.5,0l0.4-0.1  l0.4,0.3l0.1,0.2l0.4-0.1c0.5-0.1,1.1-0.2,1.6-0.3l0.5,0.2l0,0.2l0.5,0.1l0.2-0.3l0.8-0.1l0.1-0.5l0.2-0.4l0.4-0.3l0.5-0.1l0.2,0.5  l0.4,0c0.1-0.3,0.3-0.5,0.4-0.8l-0.2,0.1l-0.2-0.2l0.1-0.3l0.7-0.1l0.6,0l0.5,0.2l0.5,0l0.7-0.3L41.3,23l-0.9,0l-0.9,0.1l-0.8,0  l-0.2-0.3l-0.4-0.2l0.3-0.5l0-0.5l0.4-0.3l0.6-0.3l1.3-0.5l0.3-0.1l0-0.2l-0.5-0.3l-0.8,0.1l-0.6,0.3L39,20.5  c-0.7,0.3-1.3,0.5-2,0.7l-0.7,0.7l0.1,0.4l0.3,0.4l-0.7,0.6l-0.5,0.1l-0.6,1l-0.5,0.5l-0.6-0.1l-0.5,0.4l-0.6-0.1l0.1-0.6l0-0.7  l0.1-0.9l-0.1-0.4L31.6,23l-0.7,0l-0.4-0.4l0.2-0.6l0.7-1.3l0.6-0.3l1.3-0.2l1.1-0.4c0.9-0.5,1.8-1,2.8-1.4c0.8-0.2,1.5-0.5,2.3-0.8  l0.9-0.1l0.6,0.1l0.8-0.3l0.7,0.1l0.7,0l1.1,0.5l-0.6,0.1l0.3,0.4l0.5-0.1l0.6,0.4l1.1,0.2l1.5,0.7l0.3,0.3l0,0.4l-0.5,0.3l-0.8,0.1  c-0.6-0.2-1.3-0.4-1.9-0.5l-0.3,0l0.6,0.4l-0.1,0.8l0.6,0.2l0.3,0.2l0.1-0.3l-0.2-0.3l0.3-0.2l1.1,0.4l0.4-0.1l-0.3-0.4l1.1-0.5  l0.4,0l0.4,0.2l0.3-0.4l-0.3-0.3l0.2-0.3L49.3,19l1.2,0.2l0.2,0.3l-0.6,0.1l0,0.3l0.3,0.2l0.7-0.1l0.1-0.3c0.8-0.2,1.6-0.5,2.3-0.7  l0.3,0l-0.4,0.3l0.5,0l0.3-0.2l0.8,0l0.6-0.2l0.6,0.3l0.4-0.4l-0.5-0.3l0.2-0.2l1.2,0.1l0.6,0.1l1.7,0.5l0.2-0.3l-0.5-0.2l-0.1-0.1  l-0.5,0l0-0.3l-0.4-0.4l-0.1-0.2l0.5-0.5l0-0.5l0.2-0.1l1,0l0.2,0.3l-0.1,0.4l0.3,0.1l0.3,0.3l0.3,0.7l0.6,0.3l0,0.4l-0.5,0.8l0.5,0  l0.1-0.2l0.4-0.2l0-0.3l0.2-0.3l-0.4-0.3l0-0.4l-0.4,0L61.5,18l0-0.5l-0.7-0.4l0.5-0.4L61,16.3l0.2,0l0.3,0.2l0.1,0.5l0.4,0  l-0.4-0.3l0.5-0.3l0.7-0.1l0.8,0.2l-0.6-0.4l-0.4-0.5l0.5-0.2l0.8-0.1l0.6-0.2L64.1,15l0.1-0.4l0.3-0.1l0.3-0.3l0.6-0.2l0-0.1  l0.6-0.2l0.3,0l0.2-0.4l0.4-0.1l-0.2-0.2l0-0.2l0.2-0.3l0.5,0l-0.1,0.2l0.5-0.1l0.3,0.2l0-0.2l0.5-0.2l0.6,0l0.3,0.1l0.3,0.2l0,0.2  l-0.1,0.4l0,0.2l0.3,0l0.4,0l0-0.2l0.5,0.2l-0.1-0.1l0.1-0.2l0.5-0.2l0.3,0.2l0.5-0.3l-0.5-0.3l0.3-0.1l0.1-0.1l0.4,0.1l0.4,0.2  l0.2,0.2l0.5,0.2l0.3,0l-0.6-0.5l0.3,0l-0.1-0.3l0.2-0.1L73.8,12l0.1-0.1l-0.6-0.3L73,11.4c0,0,0-0.1,0-0.1  C61.4,4.4,47.1,3.2,34.6,7.8l0.2,0l-0.3,0.2l-0.1,0.1l-0.2,0.2l0.4-0.3L34.9,8l0.4,0.1l0,0.2l0.3,0l0.2,0.2C35.8,8.7,35.9,8.9,36,9  c0,0.2,0,0.4,0,0.6l-0.4,0l-0.4-0.2c-0.1-0.1-0.3-0.2-0.4-0.3l-0.1,0.1L35,9.4l0,0.3l0.4,0l-0.1,0.2L34.8,10l0.5,0.1  c0.2,0.1,0.6,0.1,0.8,0.2l0.3,0.3l-0.2,0.2l-1,0l-0.2,0l-0.5-0.2l0.3,0.2c-0.4,0.1-0.7,0.2-1.1,0.3L33,11.4l-0.2,0.3l-0.2-0.1  l-0.4,0L32,12l-0.5,0.3l-0.2-0.1L31,12.7l-0.4-0.2l-0.1,0.3l-0.3,0.1L30,12.8l-0.2-0.1l-0.2,0.4l-0.3,0.2l0-0.3L29.1,13l0,0.2  l-0.2,0.4l-0.4,0.4l-0.4-0.1c0.1-0.2,0.2-0.4,0.3-0.6l-0.4,0.3l-0.5,0.1c0.2,0.1,0.3,0.3,0.5,0.4c-0.6,0.1-1.1,0.1-1.7,0.2l-0.5-0.2  L25.8,14l-0.3,0l-0.7,0.3l-0.5,0.1l-0.1-0.1l-0.2,0l-0.2-0.1l-0.4,0.2L23,14.6l-0.4,0.2L22.1,15l-0.4,0.4c-0.3,0.2-0.7,0.5-1,0.7  l0-0.1C6.3,28.4,1.2,49.2,8.3,66.8c6.3,15.7,21.3,26.7,38.1,28.1c17.9,1.4,35.3-8.1,43.6-24c1-1.9,1.8-3.8,2.5-5.8l0,0l-0.2,0.1  c0-0.1,0-0.2,0.1-0.2l0.2-0.3l0.1,0.1l0,0c0.3-0.7,0.5-1.5,0.7-2.3l0-0.1l0.2-0.7l-0.2,0.4l0-0.1l0.1-0.3l-0.1-0.3l0.1-0.7l-0.2,0.3  c-0.1,0.6-0.2,1.2-0.4,1.8l-0.2,0.2l0-0.1l0.2-0.7l0.1-0.7l-0.1,0.1l0-0.4l0.2-0.5c0.1-0.7,0.3-1.4,0.5-2.1l0.2-0.7L94,58l0.2-0.1  l0.2-0.2l0.1-0.3c0.2-1.5,0.4-3,0.5-4.5l0-0.3l-0.1,0.5l0,0.5L94.9,54l-0.2-0.2l0-0.5l0.1-0.4l-0.1-0.2L94.6,53L94.5,53l-0.1,0.6  l0-0.2l0.1-0.7l0.1-0.3l0.1-0.4l0.1,0.3l0.1-0.3l0-0.4l0.1-0.2l0-0.6L95,51c0,0.2,0,0.4,0,0.6C95.4,42.8,93.1,34,88.5,26.5z   M28.2,36.2l0.7,0.2c0.4,0,0.7,0,1.1,0l-0.4,0.5v0l0,0.2l-0.2,0.3l-0.4-0.3L28.8,37L28,36.5L28.2,36.2z M52.9,16.8l0.7-0.4l-0.4-0.1  l0.8-0.4l-0.1-0.2c0.6-0.2,1.2-0.4,1.8-0.6l1.1-0.1l0.5-0.2l0.6-0.1l0.3,0.2l-0.1,0.2c-0.7,0.2-1.4,0.4-2,0.6L55,16l-0.4,0.5L54,17  l0.2,0.4l0.8,0.4l-0.2,0.1l-1.3,0l-0.1-0.2l-0.7-0.1l-0.1-0.3l0.4-0.1L52.9,16.8z M26.7,22.2l0.4,0.1l-0.4,0.4L26,23.1l0.4,0.2  l-0.1,0.8l0.2,0.2l-0.2,0.7l0,0.3l0.5,0.2l-0.3,0.4h0l-0.3,0.1l0,0.4l-0.6,0.2l-0.6-0.2l-0.8,0L24,26.3l-0.4,0.2l-0.3-0.2l-0.4,0.1  l-0.1-0.2l1-0.4l0.4,0l-0.6-0.3l0-0.3l0.5-0.1l0-0.4l0.3-0.4l0.5,0.2l0.3-0.3l0-0.4l-0.4-0.2l0-0.2l0.3-0.2l0-0.2l-0.4,0.2l0.4-0.5  l0-0.3l0.6-0.5l0.6-0.4l0.2,0.1l0.5,0.1l-0.8,0.5L26.7,22.2z M24.9,16.7l-0.1-0.5l0.4,0.1l0.2-0.1l-0.2-0.3l0.5-0.2l0.3,0.1  l-0.1,0.5l0.6-0.1l0.1,0.3l0.6-0.1l0.3,0.2l-0.4,0.3L27,17.2l-0.7,0.2c-0.4,0-0.8,0-1.3,0l-0.2-0.2l-0.3-0.5L24.9,16.7z M22.5,24.2  l0.3-0.6c0.4-0.1,0.8-0.3,1.2-0.5l0.3,0.1l0.1,0.5L24,24l-0.2,0.4l-0.6,0.4L22.3,25l-0.4-0.3L22.5,24.2z M52.5,76.7L52.5,76.7  l-0.1,0.2l-0.2-0.4L52,76.7l0.1,0.4L52,77.4l-0.2,0.1L51.8,78c-0.5,1.1-1,2.1-1.4,3.2L50,81.9L49.4,82l-0.6,0.2  c-0.3-0.1-0.6-0.2-0.9-0.3l-0.2-0.3l-0.1-0.5l-0.2-0.4l-0.1-0.4l0.1-0.4l0.3-0.1l0-0.2l0.3-0.4l0.1-0.4L48,78.5l-0.1-0.4l-0.1-0.5  l0.3-0.3l0.1-0.4l0.4,0l0.4-0.1l0.3-0.1l0.3,0l0.4-0.3l0.6-0.4l0.2-0.3l-0.1-0.3l0.3,0.1l0.4-0.4l0-0.4l0.3-0.3l0.2,0.3l0.2,0.3  l0.2,0.4l0.1,0.7l0.2,0.3L52.5,76.7z M76.1,60l-0.3,0.3l-0.6,0.3L74.9,60l-0.1-1.1l0.3-1.3l0.5,0.4l0.3,0.5l0.3,0.7L76.1,60z   M87.8,65.3L87.3,65l-0.1-0.4L87,64.2l-0.1-0.5l-0.2-0.9l-0.4-0.5l-0.1-0.6L86,61.3l-0.4-0.3l-0.2-0.6L85,60.1l-0.5-0.7l0-0.4  l0.3-0.1l0.8-0.1l0.4,0.6l0.4,0.4l0.2,0.2l0.4,0.6l0.5-0.1l0.3,0.4l0.2,0.5l0.3,0.2l-0.2,0.7l0.2,0.2l0.1,0l0,0.5l0.1,0.3l0.3-0.1  l0.1,0.4c-0.2,0.7-0.3,1.3-0.5,2L88,65.8L87.8,65.3z M90.9,66.2l-0.2-0.1l-0.3,0.2l-0.3,0.1l-0.3,0l-0.3-0.1l-0.2,0.1l-0.2,0.2  l-0.6,0l0-0.3l-0.3,0.1l0.4-0.8l0.5-0.2l0.2,0.1l0.1,0l0,0.2l0.6-0.2l0.1-0.3l0.5,0l0,0.4l0.4-0.1l0.2,0.2L90.9,66.2z M92.1,65.4  c-0.2,0.2-0.3,0.4-0.5,0.5L91.4,66l0.2-0.4l0.1-0.1l0.1-0.3l0,0.1l0.2-0.2L92.1,65.4z M93.7,55.5L93.7,55.5l-0.2,0.2l0,0.3l-0.2,0.4  l-0.2,0.8l0.1,0.6l-0.1,0.4l0.2,0.5l-0.3,0.3L93,59.4l-0.1,0.6l-0.3,0.7l-0.1,0.7l-0.3,1.2l0-0.2l-0.4,0.5l0-0.4l-0.2,0.1l-0.1-0.1  L91,62.9L91,62.7l-0.2,0.1l-0.3,0.1l0.1-0.9l-0.1-0.1l-0.1-0.5l0-0.6l0.1-0.7l0.3-0.6l0.2,0.1l0.3-0.3l0.1-0.7l0.2-0.2l0.4-0.4  c0.2-0.5,0.4-1.1,0.6-1.6l0.3-0.6l0.2-0.7l0.1-0.7l0.1-0.1l0.1,0.3l0,0.3l0.2,0.1l0.2,0.1L93.7,55.5z M93.7,51.8l-0.1,0.6l-0.3,1  l0.1-0.6l0.2-0.6l0.1-0.6l0.1-0.8l0.1,0.6L93.7,51.8z M94.3,48.4l0,0.3l-0.2-0.3L94,48.7l-0.1-0.1l0-0.3l0-0.2l-0.1-0.1l0,0.3  l-0.2-0.3l-0.1-0.3l-0.1-0.7l0.1,0.2c-0.1-0.6-0.1-1.3-0.2-1.9l0.1-0.1l0.2,0.1l0-0.2l0,0.2l0,0.3l0.1,0.5l0,0.7l-0.1,0.4l0,0.6  l0.1,0.5l0.1,0l0.1-0.2l0.3,0.2l0,0.4l0.1,0.1l0,0.4l-0.2-0.2L94.3,48.4z M94.6,51l0,0.5l-0.1,0.3l-0.1-0.4c0-0.2,0-0.3,0.1-0.5  l0-0.5l0.1-0.1l0,0.5l0.1-0.9l0,0.7L94.6,51z M94.8,49.7L94.8,49.7l0,0.2l0.1,0.4l-0.1,0.3l0-0.5l0,0l0-0.4L94.8,49.7l0-0.3  l-0.1-0.5l0.2-0.2l0.1,0.2l0.1,0.8L94.8,49.7z M55.2,36.4l0.6-0.2l-0.5-0.4L55,35.3l-0.5,0.2l0,0.5l-0.2-0.4l0-0.2l0.1-0.3l-0.1-0.2  l-0.8-0.2l-0.3-0.6l-0.4-0.2l0-0.2l0.6,0.1l0-0.5l0.5-0.1l0.6,0.1l0.1-0.7l-0.1-0.4l-0.6,0L53.3,32l-0.7,0.3L52,32.5l-0.3,0.4  L51.1,33l-0.6,0.7l0.6,0.7L51,34.8c0.3,0.4,0.7,0.8,1.1,1.2l0.3,0.5l0.3,0l0.2,0.2l-0.5,0.1l-0.1,0.5l-0.1,0.2l-0.2,0.2l0,0.3  l0.2,0.5l0.7,0.1l0.5,0.4l1,0.1l1.1-0.2l0.1-0.2l-0.1-0.5l0.1-0.7l-0.5-0.2l0.2-0.5l-0.4,0l0.1-0.6L55.2,36.4z"/><text x="0" y="115" fill="#000000" font-size="5px" font-weight="bold" font-family="'Helvetica Neue', Helvetica, Arial-Unicode, Arial, Sans-serif">Created by Ted Grajeda</text><text x="0" y="120" fill="#000000" font-size="5px" font-weight="bold" font-family="'Helvetica Neue', Helvetica, Arial-Unicode, Arial, Sans-serif">from the Noun Project</text></svg>