<?xml version="1.0" encoding="UTF-8" standalone="no"?>
<svg
   xmlns:dc="http://purl.org/dc/elements/1.1/"
   xmlns:cc="http://creativecommons.org/ns#"
   xmlns:rdf="http://www.w3.org/1999/02/22-rdf-syntax-ns#"
   xmlns:svg="http://www.w3.org/2000/svg"
   xmlns="http://www.w3.org/2000/svg"
   xmlns:sodipodi="http://sodipodi.sourceforge.net/DTD/sodipodi-0.dtd"
   xmlns:inkscape="http://www.inkscape.org/namespaces/inkscape"
   version="1.1"
   width="1080"
   height="640"
   id="Flag_of_Norway_state"
   viewBox="0 0 27 16"
   sodipodi:docname="Flag_of_Norway,_state.svg"
   inkscape:version="0.92.3 (2405546, 2018-03-11)">
  <metadata
     id="metadata12">
    <rdf:RDF>
      <cc:Work
         rdf:about="">
        <dc:format>image/svg+xml</dc:format>
        <dc:type
           rdf:resource="http://purl.org/dc/dcmitype/StillImage" />
      </cc:Work>
    </rdf:RDF>
  </metadata>
  <defs
     id="defs10" />
  <sodipodi:namedview
     pagecolor="#ffffff"
     bordercolor="#666666"
     borderopacity="1"
     objecttolerance="10"
     gridtolerance="10"
     guidetolerance="10"
     inkscape:pageopacity="0"
     inkscape:pageshadow="2"
     inkscape:window-width="1920"
     inkscape:window-height="1017"
     id="namedview8"
     showgrid="false"
     inkscape:zoom="0.26296296"
     inkscape:cx="540"
     inkscape:cy="320"
     inkscape:window-x="-8"
     inkscape:window-y="-8"
     inkscape:window-maximized="1"
     inkscape:current-layer="Flag_of_Norway_state" />
  <desc
     id="desc2">Flag of Norway, state</desc>
  <path
     id="red"
     d="M0,0 h6 l2,2 l2,-2 h17  l-11,6 v4 l11,6 h-17 l-2,-2 l-2,2 h-6 v-6 l2,-2 l-2,-2 v-6 z"
     fill="#ef2b2d"
     style="fill:#5599ff;fill-opacity:1" />
  <path
     id="white"
     d="M6,0 h1 l1,1 l1,-1 h1 v6 h6 l5.5,1 v2 l-5.5,1 h-6 v6 h-1 l-1,-1 l -1,1 h-1 v-6 h-6 v-1 l1,-1 l-1,-1 v-1 h6 v-6 z"
     fill="white" />
  <path
     id="blue"
     d="M7,0 h2 v7 h12.5 l5.5,1 l-5.5,1 h-12.5 v7 h-2 v-7 h-7 v-2 h7 v-7 z"
     fill="#002868" />
</svg>
